<?xml version="1.0" standalone="no"?>
<!DOCTYPE svg PUBLIC "-//W3C//DTD SVG 1.1//EN" "http://www.w3.org/Graphics/SVG/1.1/DTD/svg11.dtd" >
<svg xmlns="http://www.w3.org/2000/svg" xmlns:xlink="http://www.w3.org/1999/xlink" version="1.1">
<metadata>
Created by FontForge 20170910 at Fri Oct 21 16:47:41 2016
 By Jimmy Wärting
(c)2016 Missy Meyer
</metadata>
<defs>
<font id="Ludicrous-Regular" horiz-adv-x="460" >
  <font-face 
    font-family="Ludicrous"
    font-weight="400"
    font-stretch="normal"
    units-per-em="1000"
    panose-1="0 0 5 4 0 0 0 0 0 4"
    ascent="700"
    descent="-300"
    x-height="473"
    cap-height="696"
    bbox="-408.486 -494.926 1046.63 1052.66"
    underline-thickness="53"
    underline-position="-108"
    unicode-range="U+000D-E0121"
  />
<missing-glyph horiz-adv-x="605" 
d="M100 -120h500v840h-500v-840zM150 -70v740h400v-740h-400z" />
    <glyph glyph-name="b_b" unicode="bb" horiz-adv-x="817" 
d="M37 661c-6 -24 13 -220 24 -339c6 -41 11 -118 11 -166c0 -148 7 -166 72 -166c41 -6 71 11 77 35c0 6 11 12 17 18c41 6 114 95 155 172c24 54 48 180 -47 202c-30 7 -78 -1 -102 -12c-30 -18 -23 -29 -41 125c-11 59 -18 118 -24 136c-6 30 -31 66 -118 42
c-18 -6 -18 -12 -24 -47zM296 239c-21 -38 -34 -54 -45 -65c-11 -24 -12 -23 -18 54c0 41 -6 83 -6 89c-6 6 6 17 24 35c30 35 53 36 59 6c11 -35 16 -65 -14 -119zM429 685c-11 -6 -12 -13 -6 -78c6 -35 11 -161 11 -303v-255c6 -24 43 -41 84 -35c24 0 36 5 47 11
c6 6 29 25 47 36c72 48 161 165 179 237c6 35 0 77 -18 95c-11 18 -103 47 -178 -23c-24 -18 -24 -18 -30 6c0 18 -9 176 -12 261c-6 54 -6 53 -30 59c-18 6 -56 14 -94 -11zM601 186c-24 -30 -24 -30 -30 11c0 48 0 48 30 83c11 24 37 48 48 54c18 11 17 11 17 0
c6 -11 0 -30 0 -41c-11 -30 -41 -77 -65 -107z" />
    <glyph glyph-name="d_d" unicode="dd" horiz-adv-x="873" 
d="M654 571c0 -73 0 -133 -6 -133c0 -6 -13 -6 -19 -6c-18 0 -97 -49 -121 -73c-36 -36 -90 -199 -6 -279c18 -12 124 -61 185 45c18 22 16 79 34 -16c5 -25 84 -11 108 1s24 13 12 73c-17 95 -20 126 -32 223c0 54 -22 200 -23 299c0 6 -13 25 -19 31c-18 18 -79 24 -103 0
c-12 -12 -10 -38 -10 -165zM605 159c-18 -49 -28 -40 -36 -24c-15 29 -12 114 6 157c12 30 48 79 66 79c0 0 6 -19 0 -55c0 -49 -12 -78 -36 -157zM242 632v-140c0 -91 0 -91 -30 -97c-54 0 -134 -60 -158 -120c-18 -43 -24 -104 -12 -134s60 -149 187 -79
c20 11 43 67 43 67c6 0 13 -12 13 -30c12 -60 23 -79 47 -91c30 -12 92 -12 110 0s17 29 -7 175c-18 109 -36 267 -48 418c-6 67 -6 73 -24 79c-18 12 -79 12 -97 0c-18 -6 -18 -12 -24 -48zM236 305c-12 -67 -31 -121 -49 -164s-19 -42 -37 -18c-12 18 -48 68 19 188
c30 43 73 72 73 54c0 -6 0 -30 -6 -60z" />
    <glyph glyph-name="r_r" unicode="rr" horiz-adv-x="710" 
d="M52 447c5 -30 9 -96 14 -202c5 -131 6 -163 11 -173c15 -15 65 -24 106 -9c30 5 36 10 36 86c-5 66 -5 66 20 122c36 81 75 136 111 156c10 5 25 11 25 16c5 15 -10 25 -40 25c-41 0 -76 -19 -106 -55c-10 -15 -21 -27 -26 -27c0 0 -4 12 -4 27c-5 41 -26 85 -41 95
s-61 15 -86 5c-30 -5 -30 -10 -20 -66zM359 258c0 -127 10 -208 20 -228c15 -25 92 -30 122 -10c20 10 21 10 16 76c-5 71 -6 71 9 107c36 66 79 124 140 144c30 10 35 20 25 30c-5 10 -16 11 -41 11c-30 0 -88 -26 -119 -54c-25 -20 -25 -20 -30 16c-5 41 -10 54 -25 59
c-15 10 -82 11 -97 6c-25 -10 -25 -15 -20 -157z" />
    <glyph glyph-name="z_z" unicode="zz" horiz-adv-x="721" 
d="M56 452c-10 -26 47 -30 97 -15c21 10 35 9 35 9s-6 -19 -21 -50c-26 -61 -55 -138 -70 -188c-5 -21 -51 -146 -51 -156c0 -26 20 -36 86 -36c45 -5 50 -6 111 20c92 31 132 51 132 61c0 15 -5 21 -45 16c-21 0 -49 -6 -97 -21c13 40 77 228 87 259c45 132 46 141 15 156
c-15 10 -67 10 -102 0c-162 -40 -172 -45 -177 -55zM421 446c-15 -5 -20 -9 -20 -14c-5 -26 50 -31 106 -16c15 10 30 11 35 11c0 0 -10 -25 -25 -56c-21 -35 -111 -243 -121 -264s-16 -41 -16 -46c5 -31 87 -45 158 -19c66 15 147 50 157 60c15 10 15 20 5 30
s-117 5 -117 5c0 5 112 274 117 300c5 35 0 41 -5 51c-15 10 -72 15 -112 5c-26 -5 -122 -32 -162 -47z" />
    <glyph glyph-name="t_t" unicode="tt" horiz-adv-x="530" 
d="M332 737c0 0 -8 -44 -8 -87c-13 -106 8 -78 -50 -87c-57 -6 -54 -19 -54 36c0 99 -19 143 -68 143c-52 0 -67 -6 -62 -111c-8 -97 4 -92 -36 -93c-31 0 -38 -7 -38 -19c-7 -12 18 -24 43 -24s25 0 25 -173c-7 -199 0 -235 31 -291c25 -43 61 -57 111 -56c56 2 69 6 44 43
c-37 56 -44 75 -44 291c-7 199 -6 198 19 205c7 0 48 5 55 5c12 0 12 0 12 -185c0 -167 0 -203 7 -222c7 -12 44 -129 171 -86c19 12 19 26 7 38c-25 19 -41 84 -41 269c0 180 4 191 35 198c25 0 44 6 51 13c12 7 12 12 0 19c-7 7 -25 6 -44 6c-50 -1 -37 -7 -38 68
c-7 93 -6 119 -37 126c-25 12 -43 12 -68 0c-12 0 -16 -19 -23 -26z" />
    <glyph glyph-name="f_f" unicode="ff" horiz-adv-x="556" 
d="M91 580c-12 -30 -13 -36 -31 -42c-42 -6 -41 -31 -5 -43c12 -6 17 -5 11 -17c-6 -36 -12 -300 -6 -372c12 -78 19 -101 49 -107c36 -18 113 -7 107 17c0 0 0 36 -6 72c-12 78 -17 354 -5 390c6 18 11 17 47 16c73 1 60 22 60 -176c0 -179 17 -271 41 -289
c18 -12 89 -12 107 0s19 12 7 72c-12 72 -19 200 -25 302c-6 90 -5 89 67 89c51 4 69 6 69 30c0 12 -10 13 -75 19c-60 6 -60 5 -54 41c0 18 -7 81 47 79c23 -23 30 -6 24 12c0 24 -88 67 -159 -9c-24 -25 -26 -51 -38 -87c-6 -30 6 -38 -60 -33c-42 0 -53 0 -47 18
c18 90 36 113 66 119c42 6 48 24 18 36c-24 12 -66 12 -90 6c-65 -24 -101 -59 -119 -143z" />
    <glyph glyph-name="p_p" unicode="pp" horiz-adv-x="742" 
d="M43 198c-13 -251 -6 -339 25 -358c25 -13 95 -13 114 0c13 13 12 14 12 145c-6 125 -6 126 13 126c44 6 124 75 162 150c13 38 19 51 19 89c6 44 1 56 -12 75c-31 56 -107 62 -157 18c-19 -19 -25 -18 -25 13c0 25 -12 63 -25 69c-19 6 -38 6 -57 6
c-44 -13 -56 -69 -69 -333zM213 205c-13 -19 -13 -20 -13 18c0 31 2 74 21 118c39 91 62 71 62 21c6 -38 0 -102 -70 -157zM401 236c-6 -201 -1 -339 18 -408c6 -25 76 -38 120 -19c25 13 26 6 13 75c-6 25 -13 83 -13 127c-6 75 -6 75 19 81c31 13 94 75 113 113
c63 113 62 176 6 207c-31 19 -94 19 -125 6c-13 -6 -25 -6 -25 -6s-2 46 -19 63c-14 14 -63 13 -76 0c-13 -19 -18 -64 -31 -239zM552 192c-13 -19 -13 -18 -19 38c0 25 -6 62 0 81c0 31 0 32 31 57c38 25 38 26 44 7c6 -13 40 -105 -56 -183z" />
    <glyph glyph-name="m_m" unicode="mm" horiz-adv-x="1059" 
d="M34 387c-4 -119 -5 -239 4 -290c13 -78 28 -91 83 -91c28 0 41 4 50 8c19 9 18 19 9 74c-13 60 -13 111 -4 124c4 9 15 32 28 55c23 41 21 42 17 -36v-92c10 -25 90 -68 129 0c19 74 32 114 41 137c13 28 14 28 10 0c-9 -74 -10 -117 -10 -149c0 -36 1 -43 10 -47
c19 -9 69 -13 92 -9c19 9 22 16 22 48c5 22 -2 9 2 22c63 231 49 34 53 -21c4 -41 13 -64 32 -73c13 -9 69 -9 88 0c13 9 13 -1 4 73c0 62 -8 83 6 146c13 46 36 48 40 20c4 -13 10 -46 14 -65c9 -74 14 -77 65 -77c19 0 26 1 39 4c18 13 33 27 38 68c9 23 22 41 22 37
s15 -68 15 -109c0 -123 7 -146 53 -146c28 -4 66 0 60 60c4 83 -18 305 -31 324s-33 39 -69 35c-32 0 -54 -36 -77 -68c-19 -28 -19 -18 -23 10c-9 32 -16 99 -77 99c-46 4 -52 -20 -67 -47c-13 -36 -24 -106 -26 -19c0 13 -7 26 -11 30c-4 13 -50 22 -78 9
c-18 -10 -17 -12 -25 -53c-19 -95 -55 -146 -55 -146c-2 12 -1 54 -1 82c-9 74 -13 87 -45 123c-9 9 -41 9 -60 0s-36 -27 -55 -59c-13 -32 -15 -33 -19 -14c-4 28 -23 56 -42 60c-46 19 -73 -4 -105 -78c-4 -13 -9 -28 -9 -32c-4 0 -5 32 -5 78c0 83 -4 110 -23 119
c-4 0 -47 15 -73 0c-23 -13 -27 -28 -36 -124z" />
    <glyph glyph-name="n_n" unicode="nn" horiz-adv-x="835" 
d="M37 482c0 -5 -4 -107 -4 -230c-5 -209 -1 -225 4 -235c26 -20 93 -19 123 -4c20 10 23 20 26 112c3 104 -3 97 27 143c10 15 49 76 75 81c0 -10 0 -66 -10 -199v-61c5 -15 80 -58 117 -10c9 11 10 15 10 97c5 200 -26 260 -112 245c-30 -5 -66 -31 -92 -72
c-15 -26 -15 -26 -15 0c-5 41 -21 118 -26 128c-15 20 -72 30 -102 15c-10 -5 -21 -10 -21 -10zM457 437c-10 -10 -16 -168 -11 -310c0 -67 6 -128 6 -133c10 -20 97 -31 127 -11c15 10 16 10 11 77c0 56 -1 71 9 97c15 46 36 93 56 123c15 20 21 20 26 15
c5 -15 0 -143 -10 -225c-10 -56 -10 -77 -10 -82c15 -26 81 -29 107 -9c5 5 15 15 15 25c20 71 31 224 16 285c-10 46 -26 72 -46 82c-51 20 -97 6 -143 -35c-30 -26 -31 -26 -31 10c0 46 -5 87 -15 97s-62 15 -82 10c-10 -5 -20 -11 -25 -16z" />
    <glyph glyph-name="o_o" unicode="oo" horiz-adv-x="925" 
d="M581 484c-45 -45 -63 -62 -140 -84c-74 -25 -53 -12 -98 -7c-28 5 -61 7 -78 7c-28 -5 -28 -6 -11 16c14 26 66 31 61 50c0 22 -83 22 -128 -6c-39 -17 -95 -66 -112 -105c-39 -67 -50 -163 -33 -218c22 -62 72 -101 145 -112c117 -11 212 29 251 112
c38 107 -16 195 -16 195s13 10 35 13c90 53 56 35 46 -78c-6 -67 0 -84 11 -106c22 -50 67 -74 129 -79c100 -11 201 46 240 129c22 39 22 100 0 139c-22 45 -85 96 -135 107c-11 0 -15 6 -10 17s5 10 5 27c-5 22 -67 34 -112 17c-11 0 -33 -17 -50 -34zM765 289
c0 -45 -12 -57 -42 -102c-17 -27 -33 -36 -53 -32c-17 22 -27 74 -22 129c0 62 17 117 28 117c0 0 11 -1 22 -6c39 -22 67 -67 67 -106zM298 176c-11 -28 -34 -67 -56 -78c-11 -5 -33 12 -50 45c-17 39 -5 133 17 200c11 22 11 22 39 -11c17 -11 34 -39 45 -50
c17 -33 16 -67 5 -106z" />
    <glyph glyph-name="e_e" unicode="ee" horiz-adv-x="728" 
d="M34 235c0 -66 12 -97 45 -140c26 -37 153 -116 266 -11c20 19 32 30 32 24c33 -66 64 -91 129 -110c91 -25 196 24 196 97c0 43 -39 43 -52 0c-13 -37 -26 -48 -59 -42c-20 0 -88 2 -85 160c1 49 0 47 33 53c59 19 130 99 117 148c-6 37 -58 80 -103 74
c-110 0 -181 -105 -181 -258c0 -49 -7 -54 -27 -79c-70 -66 -131 -42 -153 33c-6 25 -9 71 -9 90c0 31 0 31 33 43c45 12 90 48 96 79s-12 67 -38 86c-33 25 -97 30 -130 11c-78 -37 -110 -117 -110 -258zM228 370c-20 -12 -45 -23 -51 -23c0 0 -6 18 0 49c0 49 6 56 32 56
c6 0 20 -7 26 -13c13 -19 13 -50 -7 -69zM539 323c-13 -6 -24 -13 -24 -13c-6 6 19 105 32 117c6 12 12 17 18 5c6 0 15 -19 15 -31c6 -31 -8 -53 -41 -78z" />
    <glyph glyph-name="s_s" unicode="ss" horiz-adv-x="574" 
d="M25 393c0 -54 5 -79 65 -187c54 -90 61 -119 49 -150c-12 -23 -18 -30 -66 -36c-42 -6 -72 -12 -72 -24c0 -42 155 -48 228 -12c12 12 32 22 36 30c11 20 7 6 43 -6c48 -12 135 -32 198 25c23 18 67 105 -23 204c-66 79 -61 78 -61 114c0 60 25 90 67 90
c23 6 47 19 41 31c-12 18 -103 24 -151 12c-12 0 -89 -28 -89 -133c-6 -48 15 -90 60 -126c31 -42 48 -79 48 -115c0 -23 -5 -60 -90 -58c-40 3 -27 -5 -23 41c3 31 -20 71 -62 144c-60 90 -72 121 -66 175c0 31 3 70 66 66c36 -2 54 5 48 23s-77 46 -173 13
c-54 -23 -79 -61 -73 -121z" />
    <glyph glyph-name="l_l" unicode="ll" horiz-adv-x="451" 
d="M268 436c0 -192 5 -307 22 -334c11 -22 39 -33 88 -28c61 0 65 6 43 143c0 22 -6 116 -11 209c-5 263 -17 337 -83 337c-17 0 -26 -5 -37 -16c-17 -17 -22 -86 -22 -311zM45 681c-5 -22 -11 -313 -11 -428c5 -160 11 -202 55 -235c17 -11 22 -12 66 -12c39 0 50 1 55 12
c17 11 16 38 5 77s-16 224 -16 367c5 165 -5 230 -38 241c-22 11 -83 11 -100 0c-5 -5 -16 -17 -16 -22z" />
    <glyph glyph-name="g_g" unicode="gg" horiz-adv-x="848" 
d="M529 413c-33 -33 -75 -54 -107 -214c-19 -94 22 -135 107 -135c33 0 76 7 130 50c12 17 17 13 12 -4c0 -5 -5 -32 -12 -58c-5 -90 -35 -173 -63 -201c-23 -17 -28 -19 -45 -7c-5 12 -10 22 -10 45c-5 17 -10 46 -40 40c-20 0 -29 0 -34 -17c-17 -33 17 -90 67 -118
c56 -33 131 -22 187 34c40 40 61 85 78 158c12 45 22 246 17 336c0 90 -5 97 -73 97c-62 0 -67 -6 -67 -51c0 -17 -18 -136 -102 -208c-13 -11 -35 -28 -40 -11s-30 127 90 270c20 24 30 28 63 28c40 5 51 16 34 33c-5 12 -45 17 -68 12c-33 -12 -91 -46 -124 -79zM96 392
c-28 -28 -60 -83 -67 -197c0 -45 17 -79 50 -107s69 -40 119 -40c40 0 38 2 33 -38c-12 -113 -39 -198 -62 -203c-23 -12 -33 28 -16 73c23 50 21 73 -12 73c-40 0 -73 -51 -73 -113c0 -68 28 -90 113 -90c40 0 136 3 185 152c12 50 28 198 28 299c0 40 6 84 6 101
c5 50 -17 73 -67 73c-45 0 -62 -11 -74 -39c-5 -12 -17 -105 -43 -164c-14 -37 -35 -44 -47 -11c-33 73 6 220 68 248c28 12 50 12 67 0c28 -23 64 -6 52 22c-12 33 -96 46 -158 29c-33 -12 -90 -45 -102 -68z" />
    <glyph glyph-name="c_c" unicode="cc" horiz-adv-x="643" 
d="M43 171c0 -94 35 -141 82 -164c82 -23 212 23 200 82c0 47 -22 47 -58 11c-47 -36 -76 -32 -94 56c-7 86 -12 104 11 198c23 72 27 93 74 93c43 -23 51 5 51 17c0 36 -89 36 -148 13c-82 -47 -130 -165 -118 -306zM349 195c0 -118 48 -165 177 -165c59 0 81 12 93 24
c23 36 12 70 -11 70c0 0 -24 -12 -36 -24c-36 -23 -59 -11 -82 36s-20 123 -5 187c32 86 40 95 87 95c51 -20 59 12 36 35c-12 23 -107 23 -154 0c-59 -36 -105 -140 -105 -258z" />
    <glyph glyph-name=".notdef" horiz-adv-x="605" 
d="M100 -120h500v840h-500v-840zM150 -70v740h400v-740h-400z" />
    <glyph glyph-name="controlBS" horiz-adv-x="0" 
 />
    <glyph glyph-name="controlBS" horiz-adv-x="0" 
 />
    <glyph glyph-name="controlHT" unicode="&#xd;" horiz-adv-x="293" 
 />
    <glyph glyph-name="controlHT" unicode="&#x9;" horiz-adv-x="293" 
 />
    <glyph glyph-name="space" unicode=" " horiz-adv-x="293" 
 />
    <glyph glyph-name="a" unicode="a" horiz-adv-x="442" 
d="M159 407c-30 -25 -124 -129 -134 -273c-3 -45 -2 -98 99 -119c55 -5 74 4 114 39c35 30 35 30 35 5c-5 -45 20 -59 85 -54c35 0 60 9 55 49c-5 50 -8 149 -8 214c0 80 13 134 -12 149c-20 15 -60 15 -80 -5c-20 -15 -20 -19 -45 -89c-10 -35 -13 -112 -109 -199
c-10 -10 -29 56 50 204c45 89 84 124 134 129c30 5 35 20 10 25c-25 10 -40 10 -75 0c-30 -10 -94 -50 -119 -75z" />
    <glyph glyph-name="b" unicode="b" horiz-adv-x="412" 
d="M41 452c2 -74 3 -198 -1 -272c3 -173 4 -179 78 -183c37 -2 36 -2 56 16c6 6 14 17 14 17c0 6 12 13 24 12c25 5 61 23 107 77c91 107 100 215 40 261c-24 20 -91 24 -129 14c-20 -11 -32 -12 -32 -12s-4 32 -2 75c-7 99 -16 186 -21 205c-11 26 -59 46 -103 36
c-38 -10 -40 -41 -31 -246zM203 114c-10 16 2 28 0 114c3 68 5 92 11 98c7 12 32 46 80 17c22 -26 31 -109 -91 -229z" />
    <glyph glyph-name="c" unicode="c" horiz-adv-x="358" 
d="M85 412c-18 -26 -29 -44 -42 -93c-14 -80 -11 -173 14 -228c25 -50 56 -74 131 -71c70 -3 104 18 138 77c23 42 19 52 -13 64c-21 7 -40 -11 -68 -37c-22 -20 -42 -12 -47 5c-16 39 -19 65 -16 140c4 107 12 132 40 163c17 10 35 7 46 -15c27 -12 59 -1 54 16
c1 27 -70 65 -131 50c-38 -10 -78 -34 -106 -71z" />
    <glyph glyph-name="d" unicode="d" horiz-adv-x="475" 
d="M233 551c0 -130 0 -130 -18 -136c-47 0 -135 -54 -165 -107c-18 -30 -30 -95 -24 -136c6 -24 36 -135 154 -100c23 3 53 12 71 53c18 30 18 29 24 -12c12 -59 23 -77 41 -89c41 -24 106 -18 130 12c6 12 -7 16 -31 152c-24 124 -23 310 -41 541c-6 53 -12 59 -71 59
c-36 0 -47 -6 -59 -12c-12 -12 -11 -89 -11 -225zM228 296c-6 -71 -60 -177 -72 -171c-6 0 -37 37 -35 89c3 65 29 124 88 165c24 12 30 12 24 -6c0 -12 1 -53 -5 -77z" />
    <glyph glyph-name="e" unicode="e" horiz-adv-x="358" 
d="M78 446c-27 -24 -105 -248 5 -363c32 -38 70 -49 140 -49c54 0 109 35 109 74c0 43 -29 19 -55 5c-29 -3 -46 -4 -63 23c-21 32 -33 72 -38 126c0 44 13 42 40 53c87 27 121 86 77 140c-21 27 -64 71 -172 17c-17 -5 -38 -21 -43 -26zM237 406c0 -27 -10 -42 -42 -59
c-11 -5 -25 -4 -30 1c-5 17 0 75 5 86c11 27 45 32 62 11c5 -5 5 -22 5 -39z" />
    <glyph glyph-name="f" unicode="f" horiz-adv-x="381" 
d="M159 684c-38 -46 -49 -107 -56 -184c-7 -21 -7 -42 -14 -42s-58 3 -63 -28c4 -16 35 -28 56 -21c15 7 14 6 14 -99c0 -155 29 -274 57 -289c21 -15 90 -15 105 0c21 15 23 34 8 126c-7 43 -15 120 -15 184c-7 105 -7 105 28 112c21 0 43 8 50 8c15 15 -13 35 -56 35
c-35 0 -36 0 -29 71c7 105 27 138 70 145c21 7 41 8 41 18c0 52 -100 26 -135 11c-32 -18 -42 -24 -61 -47z" />
    <glyph glyph-name="g" unicode="g" horiz-adv-x="450" 
d="M98 387c-47 -58 -60 -89 -67 -150s13 -188 170 -183c41 1 39 0 26 -102c-7 -48 -13 -82 -26 -109c-27 -54 -53 -58 -80 -24c-13 20 -30 36 -38 73c-3 42 -13 61 -48 47c-13 0 -26 -29 9 -103c44 -90 156 -128 252 -54c34 20 114 74 123 558c1 34 -22 54 -76 54
s-68 -14 -81 -48c-20 -81 -62 -191 -75 -198s-22 30 -27 83c-4 49 8 175 164 227c20 7 34 6 34 13c0 20 -83 24 -131 11c-34 -13 -82 -37 -129 -95z" />
    <glyph glyph-name="h" unicode="h" horiz-adv-x="449" 
d="M37 440c-4 -394 -5 -403 24 -427c14 -10 50 -14 79 -10s54 33 78 82c10 24 28 73 38 97c29 73 59 123 63 113c0 0 11 17 0 -161c-11 -185 1 -174 59 -174s54 -10 54 160c-4 218 -16 262 -74 272c-63 10 -112 -34 -146 -127c-4 -20 -14 -34 -14 -34c0 -4 0 25 0 64
c4 87 -4 320 -14 359c-4 20 -12 40 -16 44c-20 24 -68 33 -97 19s-30 0 -34 -277z" />
    <glyph glyph-name="i" unicode="i" horiz-adv-x="197" 
d="M41 607c-3 -17 -3 -33 7 -37c27 -20 80 -13 103 7c13 19 14 57 3 73c-11 11 -16 8 -45 6c-24 -2 -63 -3 -68 -49zM38 380c-16 -164 -10 -297 8 -335c12 -33 37 -76 120 -32c9 13 9 17 6 110c-4 59 -5 122 -3 145c3 146 1 196 -26 216c-11 11 -52 10 -70 -4
c-14 -7 -32 -12 -35 -100z" />
    <glyph glyph-name="j" unicode="j" horiz-adv-x="211" 
d="M-77 578c16 -17 80 -18 105 -8c16 10 16 77 0 87c-25 17 -80 17 -105 0c-16 -10 -16 -62 0 -79zM-77 429c0 -183 -7 -410 -16 -489c-16 -122 -41 -183 -89 -218c-41 -35 -48 -54 -7 -71c64 -17 160 33 201 112c48 79 66 257 57 475c-9 157 -24 209 -49 236
c-16 17 -65 17 -81 0c-9 -10 -16 -28 -16 -45z" />
    <glyph glyph-name="k" unicode="k" horiz-adv-x="422" 
d="M26 543c10 -235 21 -422 21 -459c-5 -63 16 -84 73 -84c37 0 88 0 83 120c-3 78 1 79 11 63c37 -47 83 -78 130 -78c63 0 63 15 16 67c-21 21 -59 57 -99 115c-10 16 -11 21 10 47c37 37 63 73 73 94c5 26 1 37 -41 37c-37 5 -47 -5 -68 -47c-10 -16 -27 -37 -32 -42
c-10 -16 -10 -15 -15 89c0 99 -10 188 -26 214c0 5 -22 42 -105 21c-37 -10 -36 -6 -31 -157z" />
    <glyph glyph-name="l" unicode="l" horiz-adv-x="237" 
d="M56 685c-6 -6 -13 -193 -13 -392c0 -193 7 -225 38 -262c19 -19 93 -50 143 -6c6 12 6 18 -6 68c-6 50 -13 81 -13 299s0 243 -12 268c-6 19 -19 32 -31 38c-19 12 -68 12 -87 6c-6 -6 -19 -13 -19 -19z" />
    <glyph glyph-name="m" unicode="m" horiz-adv-x="552" 
d="M47 498c-10 -20 -26 -281 -21 -332c5 -60 4 -134 51 -167c20 -14 99 -18 116 26c3 9 -19 77 -20 126c-2 65 -4 68 21 101c15 30 34 45 34 45s3 -84 0 -166c13 -29 94 -55 130 5c15 66 56 186 51 141c0 -5 -4 -60 -4 -116c-5 -101 -5 -101 15 -111s70 -10 90 0
c15 5 15 5 15 91s-15 232 -25 252c-20 40 -31 45 -46 50c-35 5 -70 -20 -100 -71c-15 -25 -16 -24 -26 6c-15 40 -47 83 -100 35c-15 -10 -40 -50 -50 -80c-5 -20 -6 -16 -11 65c0 86 -4 106 -19 111c-10 10 -65 27 -101 -11z" />
    <glyph glyph-name="n" unicode="n" horiz-adv-x="419" 
d="M34 473c-5 -5 -7 -109 -9 -227c-5 -264 8 -231 60 -238c49 7 87 11 87 96c0 47 -1 85 4 94c5 14 71 123 90 142c9 14 12 7 7 -69c0 -43 -24 -169 -11 -186c14 -19 76 -28 104 -14c28 9 28 18 23 127c0 114 -9 152 -28 185c-24 28 -66 38 -104 19c-24 -9 -57 -38 -71 -66
c-9 -19 -9 -19 -14 14c-9 80 -19 123 -38 128c-19 9 -57 13 -81 4c-9 0 -19 -4 -19 -9z" />
    <glyph glyph-name="o" unicode="o" horiz-adv-x="439" 
d="M62 365c-21 -46 -29 -75 -29 -129s21 -121 100 -157c37 -12 120 -12 157 0c91 33 138 96 129 187c-4 58 -45 116 -99 141c-21 9 -29 12 -58 8c-37 0 -38 1 -34 13c12 16 25 28 46 37c25 12 29 19 8 28c-16 4 -63 0 -79 -4c-54 -16 -112 -70 -141 -124zM274 204
c-4 -21 -17 -48 -54 -67c-10 -5 -34 29 -46 58c-9 29 -7 50 5 108c4 29 20 83 24 83c0 0 17 -13 29 -29c50 -50 63 -95 42 -153z" />
    <glyph glyph-name="p" unicode="p" horiz-adv-x="405" 
d="M48 356c-19 -151 -26 -467 -7 -530c6 -44 26 -63 76 -57c31 0 56 6 69 19c0 6 -13 169 -6 260c1 19 6 18 37 31c75 25 158 138 164 226c6 44 8 131 -94 126c-38 -2 -57 -6 -82 -31c-13 -19 -13 -19 -13 0c0 31 -18 75 -31 81c-19 13 -69 13 -82 0
c-13 -19 -18 -43 -31 -125zM261 268c-13 -31 -62 -114 -75 -120s0 63 13 101c25 50 56 119 69 119c0 0 13 -58 -7 -100z" />
    <glyph glyph-name="q" unicode="q" horiz-adv-x="409" 
d="M67 362c-39 -79 -53 -139 -33 -185c26 -46 66 -72 125 -72c33 0 32 0 39 -72c7 -138 20 -211 46 -237c13 -13 88 -46 132 7c35 43 79 145 59 171c-13 33 -59 12 -66 -27c0 -13 -13 -39 -20 -52c-13 -33 -13 -33 -13 0c-7 99 20 395 46 467c13 33 7 45 -26 52
c-33 13 -59 13 -92 0c-26 -7 -39 -26 -46 -92c-13 -53 -53 -138 -66 -131s-19 52 -6 105c20 59 33 92 59 118c20 13 26 20 39 13c26 -7 53 7 53 20c0 33 -79 39 -132 13c-39 -20 -78 -52 -98 -98z" />
    <glyph glyph-name="r" unicode="r" horiz-adv-x="401" 
d="M41 495c-13 -8 -13 -8 0 -74c8 -35 12 -188 12 -288c0 -61 0 -61 18 -74c13 -8 85 -15 117 0c18 13 18 13 13 74c0 43 0 65 5 78c43 117 46 169 153 209c22 13 25 17 17 30c-13 13 -52 34 -106 11c-47 -21 -55 -58 -73 -80c-5 -13 -4 -12 -9 18c-5 13 -4 67 -43 100
c-18 8 -61 14 -79 9c-8 -5 -20 -8 -25 -13z" />
    <glyph glyph-name="s" unicode="s" horiz-adv-x="323" 
d="M26 421c-9 -35 -11 -30 -11 -81c0 -57 6 -79 51 -148c45 -86 63 -126 63 -161c0 -23 10 -65 -69 -68c-40 -2 -63 -7 -63 -24c-6 -12 1 -16 18 -22c29 -12 131 -12 166 -6c63 17 103 63 97 120c0 35 -18 75 -69 161c-57 98 -69 120 -63 171c0 29 4 66 69 69
c45 2 57 5 51 22c-6 12 -34 24 -91 24s-103 -1 -149 -57z" />
    <glyph glyph-name="t" unicode="t" horiz-adv-x="397" 
d="M134 653c-7 -14 -21 -108 -28 -165c-7 -36 -7 -36 -29 -36c-29 0 -50 -15 -57 -29c0 -14 28 -28 50 -28s21 0 28 -151c14 -172 22 -207 51 -229c36 -36 122 -51 172 -29c36 14 29 28 -7 50c-14 7 -29 22 -36 29c-7 22 -15 151 -22 280c-7 79 -7 79 58 86c43 0 64 7 71 14
c22 22 1 29 -71 36c-57 0 -58 0 -58 79c0 72 0 93 -7 100c-14 7 -71 14 -93 7c-7 -7 -22 -14 -22 -14z" />
    <glyph glyph-name="u" unicode="u" horiz-adv-x="452" 
d="M251 443c-5 -33 -19 -108 -33 -188c-14 -56 -31 -126 -45 -145c-24 -5 -36 20 -41 39c-5 41 -7 38 -2 122c5 52 18 136 18 145c-5 37 -38 52 -71 33c-9 -9 -38 -33 -51 -208c-6 -75 10 -209 127 -201c70 -5 123 34 144 90c33 110 20 18 29 -29c9 -70 14 -80 28 -89
c33 -14 66 -5 71 18c0 5 0 29 -5 52c-19 94 -24 290 -19 351c5 28 0 42 -23 47c-23 9 -80 9 -99 0c-23 -5 -23 -9 -28 -37z" />
    <glyph glyph-name="v" unicode="v" horiz-adv-x="409" 
d="M46 338c5 -31 56 -277 66 -308c10 -20 56 -46 149 -20c31 15 31 20 46 102c5 26 77 308 77 334c0 36 -41 72 -77 25c-10 -20 -47 -143 -67 -215c-5 -20 -10 -41 -15 -41c0 0 -5 20 -10 46c-10 56 -52 180 -67 200c-5 10 -15 21 -20 26c-10 5 -67 5 -82 -5
c-26 -10 -26 -36 0 -144z" />
    <glyph glyph-name="w" unicode="w" horiz-adv-x="514" 
d="M26 371c11 -243 38 -343 99 -365c11 0 41 -8 61 0c34 7 38 26 48 51c6 17 48 83 59 83c6 0 39 -98 102 -96c34 0 50 17 56 56c6 33 35 219 35 247c0 44 4 80 -61 78c-43 -1 -56 -11 -50 -50c0 -39 -12 -198 -18 -192c0 0 -29 65 -54 69c-33 6 -45 -19 -78 -58
s-28 -56 -50 110c-11 111 -22 161 -33 172s-78 16 -100 5c-17 -6 -22 -16 -16 -110z" />
    <glyph glyph-name="x" unicode="x" horiz-adv-x="443" 
d="M5 484c5 -15 46 -97 77 -159c10 -15 61 -113 66 -118c0 0 -10 -26 -20 -46c-36 -77 -51 -133 5 -133c26 0 51 36 66 56c19 36 6 35 36 -10c36 -41 57 -51 108 -46c26 0 41 0 46 10c10 10 10 10 -36 72c-15 20 -41 56 -56 82c-40 68 -33 26 0 117c20 56 56 151 48 177
c0 0 -15 13 -25 13c-36 15 -69 -51 -95 -113c-15 -46 -10 -56 -26 -25c-21 41 -77 123 -97 138c-15 10 -54 29 -87 5c-10 -5 -15 -10 -10 -20z" />
    <glyph glyph-name="y" unicode="y" horiz-adv-x="396" 
d="M247 404c-7 -59 -1 -90 -30 -112c-44 -44 -101 22 -94 103c7 44 -7 73 -29 73c-15 0 -37 -22 -44 -73c0 -51 3 -171 69 -192c22 -15 74 -15 103 0c22 7 17 47 17 -26c0 -152 -39 -271 -54 -308c-7 -7 -22 -29 -37 -44c-29 -22 -29 -21 -14 -36c44 -37 146 -7 190 44
c22 29 32 73 54 161c22 146 22 388 -7 461c-7 37 -51 51 -88 36c-29 -15 -36 -28 -36 -87z" />
    <glyph glyph-name="z" unicode="z" horiz-adv-x="360" 
d="M79 438c-10 -5 -29 -15 -29 -20c5 -10 24 -10 74 0c20 5 35 5 35 5s-10 -30 -25 -60c-15 -35 -99 -273 -104 -288c-10 -35 -5 -50 20 -55c60 -20 95 -15 184 20c70 30 99 45 99 55s-5 10 -35 10c-30 5 -49 0 -94 -20c-10 -5 -10 -5 -5 5c10 25 29 85 74 214
c30 94 45 144 40 154c-5 25 -59 35 -129 15c-50 -15 -85 -25 -105 -35z" />
    <glyph glyph-name="A" unicode="A" horiz-adv-x="469" 
d="M116 692c-4 -4 -33 -123 -43 -156c-29 -123 -66 -487 -62 -544c4 -43 29 -56 95 -52c57 4 66 24 80 161c4 47 10 103 14 127c4 33 5 33 29 43c14 4 23 5 23 5s5 11 49 -147c23 -82 31 -85 74 -85c29 0 53 4 53 14c0 4 -10 32 -20 61c-52 156 -60 175 -56 185
c0 4 5 9 19 19c29 14 16 41 -19 33c-10 0 -18 6 -18 10c0 0 -11 38 -25 85c-29 132 -37 170 -51 184c0 4 -6 19 -10 33c0 24 -1 30 -15 34c-19 10 -80 15 -99 5c-10 -4 -18 -11 -18 -15zM241 345c0 -5 0 -12 -12 -12c-17 -5 -22 -12 -22 0c0 23 -5 81 5 125
c0 0 29 -108 29 -113z" />
    <glyph glyph-name="B" unicode="B" horiz-adv-x="513" 
d="M34 696c0 0 -4 -9 -9 -18c0 -9 -5 -38 0 -108c5 -149 28 -420 33 -453c5 -79 9 -98 28 -107c14 -9 28 -10 61 -10c47 0 69 10 74 24c5 9 10 9 52 14c42 0 51 0 74 14c61 33 108 88 131 149c5 28 34 166 -93 248c-21 13 -108 61 -117 61c-14 0 -10 4 9 18
c23 19 99 65 33 140c-21 24 -38 28 -103 28c-33 0 -70 5 -79 5c-51 22 -94 -5 -94 -5zM203 570c-19 -23 -19 -23 -24 33c-9 51 -9 52 14 47c23 0 24 0 24 -33c5 -28 0 -28 -14 -47zM310 360c14 -28 30 -100 -5 -173c-14 -29 -28 -46 -51 -65c-28 -28 -28 -28 -28 -5
c0 9 -4 43 -9 66c-5 42 -24 262 -24 285c-5 9 5 9 42 -19c42 -37 56 -56 75 -89z" />
    <glyph glyph-name="C" unicode="C" horiz-adv-x="467" 
d="M44 516c-14 -63 -16 -119 -13 -201c11 -110 35 -213 64 -255c40 -55 113 -68 184 -57c95 21 168 81 166 107s-10 26 -37 22c-26 -9 -35 -13 -59 -35c-16 -16 -43 -35 -77 -16c-27 28 -55 98 -63 190c-17 118 -18 216 6 307c11 52 24 63 48 57c10 -4 15 -7 26 -24
c24 -38 40 -55 58 -52c23 3 26 18 20 59c-5 32 -45 93 -151 89c-23 -1 -49 -7 -54 -8c-60 -36 -95 -83 -118 -183z" />
    <glyph glyph-name="D" unicode="D" horiz-adv-x="516" 
d="M30 674c-5 -27 -10 -276 -5 -381c0 -101 10 -201 19 -233c5 -23 22 -46 36 -51c18 -9 83 -9 97 0c18 9 27 23 32 32c0 14 4 14 36 19c41 9 189 60 234 224c9 37 30 213 -78 303c-55 55 -124 77 -197 77c-27 0 -27 5 -32 14c-9 23 -32 32 -69 32c-18 0 -36 1 -45 -4
c-18 -5 -23 -14 -28 -32zM355 536c23 -32 32 -188 14 -252c-9 -46 -66 -130 -165 -169c-25 124 -23 357 -23 412c0 105 1 106 28 101c23 0 41 -5 59 -14c27 -14 73 -55 87 -78z" />
    <glyph glyph-name="E" unicode="E" horiz-adv-x="443" 
d="M70 695c-16 -9 -23 -38 -36 -185c-10 -108 -1 -272 2 -297c6 -45 15 -106 28 -132c4 -15 36 -75 137 -76c74 -1 124 3 166 34c27 18 23 33 -1 50c-10 6 -96 10 -112 10s-10 5 -17 41c-3 25 -21 143 -15 264c0 59 1 59 31 61c31 7 95 26 101 36c0 5 7 10 2 15
c-4 15 -29 22 -78 21c-49 4 -48 5 -52 20c-5 55 -1 99 -1 104c5 0 46 1 90 -3c84 -3 103 0 105 20c1 15 -8 21 -67 26c-30 3 -78 7 -113 5c-54 5 -149 -6 -170 -14z" />
    <glyph glyph-name="F" unicode="F" horiz-adv-x="389" 
d="M150 697c-9 -4 -31 -9 -49 -9c-31 0 -63 -10 -72 -23c0 -4 -5 -36 -5 -67c-4 -72 18 -458 18 -494c9 -94 14 -104 99 -104c58 0 72 5 81 18c4 13 4 28 0 104c-4 45 -27 314 -31 332v32s23 4 45 4c45 4 62 14 71 23c13 18 -18 31 -76 27c-54 0 -50 -5 -54 49
c0 18 -4 37 -4 41s68 13 117 13c63 4 93 32 53 54c-18 9 -72 13 -130 9c-22 -4 -50 -9 -63 -9z" />
    <glyph glyph-name="G" unicode="G" horiz-adv-x="518" 
d="M110 586c-31 -71 -98 -224 -31 -477c18 -68 165 -156 339 -54c31 13 133 81 85 232c-13 45 -49 58 -125 58c-40 0 -89 -9 -107 -22c-27 -18 0 -45 54 -45c36 -4 35 -4 44 -22c29 -35 18 -94 14 -107c-9 -31 -74 -89 -139 -5c-31 49 -35 76 -31 161c0 85 15 197 98 353
c22 22 23 22 45 18c54 -4 58 -5 58 4c4 22 18 29 -58 47c-45 13 -80 7 -107 -2c-63 -27 -112 -76 -139 -139z" />
    <glyph glyph-name="H" unicode="H" horiz-adv-x="520" 
d="M397 673c-10 -9 -10 -9 -20 -116c-10 -112 -10 -102 -36 -103c-14 1 -108 -10 -108 -5c0 0 -1 31 -3 69c4 103 5 105 -36 119c-45 19 -96 14 -122 -13c-16 -18 -15 -17 -16 -80c-8 -185 -9 -312 6 -402c2 -34 2 -132 27 -154c40 -36 122 -35 139 -7c6 10 7 18 8 33
c-7 26 -9 118 -11 250c2 126 3 137 12 131c5 -5 81 -3 108 0c14 4 13 3 14 -46c-2 -73 -2 -213 5 -239c2 -34 24 -95 32 -106c9 -6 54 -33 67 15c7 18 9 42 34 318c14 214 24 311 20 321c-7 20 -45 28 -96 28c-5 0 -15 -9 -24 -13z" />
    <glyph glyph-name="I" unicode="I" horiz-adv-x="287" 
d="M69 687c-31 -9 -49 -18 -49 -22c0 -13 18 -23 36 -27c22 -4 22 -5 18 -18c-4 -27 -9 -297 -9 -436c0 -130 4 -83 4 -137c0 -11 -25 -8 -25 -28c17 -19 127 -16 178 3c36 18 41 27 23 36c-13 4 -17 -3 -18 27s-10 130 -14 355c-4 63 -13 154 -22 202c-4 9 0 10 18 14
c27 4 36 9 36 22c0 22 -55 31 -113 18c-18 -4 -45 -9 -63 -9z" />
    <glyph glyph-name="J" unicode="J" horiz-adv-x="272" 
d="M-17 581c0 -31 18 -218 22 -262c18 -146 22 -295 13 -322c-4 -31 -27 -53 -58 -71c-27 -18 -31 -27 -27 -36c9 -18 31 -22 80 -22c40 0 141 4 186 107c9 27 11 202 -7 353c-27 240 -49 328 -80 341c-22 9 -89 9 -107 0c-22 -18 -26 -21 -22 -88z" />
    <glyph glyph-name="K" unicode="K" horiz-adv-x="463" 
d="M51 643c0 -21 -14 -493 -14 -591c0 -21 5 -26 31 -38c38 -17 106 -9 132 12c12 9 13 44 13 211c4 163 4 161 13 127c4 -17 100 -224 112 -250c9 -17 26 -33 49 -33c64 0 73 13 47 73c-43 90 -85 147 -102 211c-12 43 -38 98 -55 128c-12 17 -12 18 35 69
c55 55 85 85 81 89c0 17 -30 26 -64 22c-21 -4 -26 -4 -73 -51c-34 -38 -51 -47 -51 -43c0 21 -9 86 -13 98c0 4 -9 13 -13 17c-17 9 -56 13 -86 9s-38 -17 -42 -60z" />
    <glyph glyph-name="L" unicode="L" horiz-adv-x="361" 
d="M46 670c-13 -36 -26 -335 -22 -500c0 -94 11 -144 67 -152c58 -18 142 -4 196 27c36 18 41 23 45 36c0 18 -22 26 -71 22c-27 0 -49 -4 -58 -4c-13 -4 -13 -5 -9 254c0 237 0 264 -9 295c-9 40 -9 40 -27 49c-27 13 -72 13 -94 0c-9 -4 -14 -18 -18 -27z" />
    <glyph glyph-name="M" unicode="M" horiz-adv-x="656" 
d="M32 697c-12 -8 -12 -12 -12 -53c4 -53 4 -33 0 -222v-259c4 -123 8 -139 37 -151c25 -12 104 -22 135 16c0 12 -4 415 -8 493c-4 53 -4 57 4 73s8 17 20 -20c16 -41 23 -105 48 -126s74 -8 86 0c4 0 45 25 59 114c8 8 9 12 13 4c4 -12 41 -353 45 -374
c4 -25 6 -75 16 -102c16 -16 82 -25 123 -9c29 12 33 29 17 115c-4 29 -46 265 -58 357c-12 62 -28 99 -53 115c-16 12 -68 32 -111 4c-21 -8 -53 -89 -62 -103s-9 -18 -24 -14c-20 13 -35 88 -47 96c-12 4 -24 55 -93 21c-8 -4 -8 1 -12 9c-4 16 -29 28 -62 28
c-16 0 -34 4 -61 -12z" />
    <glyph glyph-name="N" unicode="N" horiz-adv-x="519" 
d="M369 654c0 -37 -13 -356 -13 -388c-4 -61 -6 -59 -38 -8c-37 65 -51 101 -88 218c-18 61 -23 98 -23 112c-4 56 -15 76 -52 80c-47 10 -87 -14 -97 -56c-10 -32 -29 -271 -29 -378c0 -84 15 -176 29 -200c10 -14 81 -45 139 -6c18 18 20 15 10 127c-4 24 -5 59 -5 83
c-4 47 -4 46 14 14c14 -14 89 -125 107 -149c28 -32 75 -55 112 -55c32 0 57 8 61 22c0 4 0 38 -10 75c-4 56 -8 98 -8 322c-4 299 -1 280 -52 276h-33c-14 -4 -20 -24 -24 -89z" />
    <glyph glyph-name="O" unicode="O" horiz-adv-x="485" 
d="M186 688c-17 -4 -58 -33 -75 -55c-26 -39 -44 -53 -57 -123c-35 -126 -33 -236 -7 -327c17 -57 49 -211 235 -174c70 13 119 43 154 152c22 61 41 180 4 310c-44 174 -123 239 -232 222c-4 0 -13 -5 -22 -5zM290 500c17 -70 21 -79 21 -166s5 -183 -64 -247
c-42 4 -92 222 -61 384c4 26 13 112 55 118c13 -22 36 -54 49 -89z" />
    <glyph glyph-name="P" unicode="P" horiz-adv-x="405" 
d="M41 657c-8 -24 -17 -330 -17 -510c-4 -118 -3 -119 13 -131c12 -12 79 -42 130 4c4 8 8 25 8 176c0 167 1 167 25 175c29 12 132 50 167 155c8 20 26 86 -41 122c-35 19 -77 17 -122 9c-41 -12 -45 -12 -45 -4c0 4 0 12 -4 20c-12 24 -45 36 -78 24
c-16 -4 -28 -16 -36 -40zM265 563c10 -71 -82 -135 -90 -131c0 0 0 33 -4 78c-4 86 -4 86 33 102c29 12 45 12 53 -4c4 -8 8 -29 8 -45z" />
    <glyph glyph-name="Q" unicode="Q" horiz-adv-x="507" 
d="M143 646c-13 -21 -21 -38 -21 -38s-94 -74 -98 -366c-1 -68 9 -177 107 -225c21 -13 115 -27 174 -4c17 4 38 16 51 25c21 17 21 18 34 9c9 -4 17 -18 21 -22c21 -21 68 -25 68 -4c4 9 -21 51 -47 77c-21 21 -21 25 -8 59c13 55 77 140 13 361c-21 72 -64 111 -119 141
c-9 9 -17 13 -17 13s0 4 4 8c4 9 5 12 -4 21s-41 13 -85 9c-21 -9 -47 -30 -73 -64zM307 300c-1 -38 5 -79 -36 -49c-47 4 -47 -21 -9 -64c4 -9 13 -17 13 -21c0 -13 -29 -72 -38 -81c-9 -13 -8 -13 -17 -4c-13 9 -54 75 -55 216c-1 94 29 198 68 260c4 9 8 12 8 12
c4 0 9 -4 13 -17c30 -64 55 -159 53 -252z" />
    <glyph glyph-name="R" unicode="R" horiz-adv-x="492" 
d="M40 683c-8 -21 -12 -149 -16 -421c-4 -223 -4 -223 25 -235c25 -8 90 -8 111 0c12 8 21 13 21 17c4 0 4 82 8 177c0 169 0 169 29 107c83 -165 140 -256 169 -264c17 -8 49 -8 66 0c12 8 13 21 -4 46c-8 12 -74 132 -95 165c-17 33 -62 119 -70 136c-17 33 -46 74 -54 74
s0 9 17 17c66 33 153 103 161 132c12 33 -12 58 -66 70c-29 8 -96 8 -141 0c-37 -4 -37 -4 -45 4c-4 4 -17 13 -21 17c-12 4 -50 4 -62 -4c-12 -4 -29 -21 -33 -38zM201 539c-17 -12 -16 -13 -20 8c0 12 -4 41 -4 62c0 45 0 46 12 50c21 8 82 16 99 16c8 0 21 -4 25 -8
c29 -17 4 -45 -112 -128z" />
    <glyph glyph-name="S" unicode="S" horiz-adv-x="416" 
d="M82 652c-29 -29 -67 -100 4 -272c15 -37 75 -141 79 -149c21 -29 45 -82 45 -103c4 -29 -4 -54 -8 -54s-21 17 -42 46c-12 21 -40 54 -57 62c-17 12 -59 7 -71 -5c-8 -8 -12 -12 -12 -33s16 -73 62 -115c33 -21 118 -52 202 -17c29 8 42 21 75 50c41 41 32 95 -38 206
c-29 45 -107 194 -115 227c-4 8 -30 75 33 149c8 8 12 8 16 4c8 -8 17 -33 21 -66c4 -25 35 -72 95 -12c8 17 8 49 0 66c-8 25 -34 78 -136 74c-33 -1 -54 0 -66 -4c-33 -8 -70 -33 -87 -54z" />
    <glyph glyph-name="T" unicode="T" horiz-adv-x="426" 
d="M77 756c-49 -9 -67 -27 -36 -45c9 -4 97 -13 97 -17s0 -31 -4 -62c-18 -154 -12 -538 10 -578c13 -22 80 -31 133 -18c22 9 26 23 22 89c-13 132 -15 242 -15 388c0 88 -4 168 -4 181c0 18 0 17 22 13c31 -4 85 -2 97 27c5 11 -14 21 -49 30s-163 9 -207 0
c-22 -4 -48 -8 -66 -8z" />
    <glyph glyph-name="U" unicode="U" horiz-adv-x="462" 
d="M330 557c0 -126 -1 -140 -14 -261c-13 -90 3 -168 -85 -215c-4 -4 -14 14 -18 45c-9 31 -14 126 -18 265c-4 166 -9 247 -18 265c-9 22 -31 27 -67 27c-36 4 -63 -9 -72 -27c-18 -31 -18 -490 0 -548c18 -63 40 -86 94 -99c45 -9 216 -32 270 92c34 69 35 88 31 353
c0 207 -5 234 -18 247c-9 4 -50 8 -63 4c-18 -9 -18 -27 -22 -148z" />
    <glyph glyph-name="V" unicode="V" horiz-adv-x="510" 
d="M29 638c8 -34 47 -189 55 -227c42 -168 83 -306 100 -344c21 -50 51 -67 110 -63c50 0 78 12 80 33c2 23 -16 21 -9 55c1 5 22 84 30 113c17 84 57 285 67 353c21 76 25 122 12 135c-4 0 -16 4 -37 4c-25 0 -39 -9 -55 -51c-4 -13 -34 -130 -34 -147
c-8 -55 -46 -227 -50 -227c0 0 -5 13 -9 30c-4 21 -92 307 -105 336c-21 42 -33 55 -54 63s-72 8 -93 0c-17 -13 -16 -21 -8 -63z" />
    <glyph glyph-name="Y" unicode="Y" horiz-adv-x="443" 
d="M289 683c-8 -8 -22 -20 -42 -50c-27 -38 -78 -143 -121 -186c-39 -13 -16 130 -8 179c11 57 12 64 -15 72c-19 4 -41 -4 -49 -15c-15 -27 -57 -152 -23 -266c11 -27 75 -81 140 -8c27 27 57 65 95 133c4 -4 -4 -64 -15 -193c-8 -76 -15 -182 -19 -243
c-4 -53 0 -65 15 -76c38 -30 122 -19 137 15c0 4 11 197 19 262c8 137 8 190 0 266c-4 68 -15 114 -30 125c-11 8 -51 18 -84 -15z" />
    <glyph glyph-name="W" unicode="W" horiz-adv-x="625" 
d="M24 548c4 -146 28 -365 32 -389c8 -49 13 -112 53 -150c12 -8 73 -24 134 8s60 51 73 117c12 49 32 102 32 98c4 0 51 -75 67 -112c30 -62 43 -51 43 -63c0 -32 60 -48 113 -28c12 4 17 8 21 24c4 24 4 503 0 568c-8 53 -13 69 -33 77c-28 12 -77 4 -89 -16
c0 -4 -4 -89 -4 -219c-4 -215 -5 -215 -29 -183c-37 49 -40 49 -60 53c-37 4 -76 6 -138 -130c-8 -24 -13 -28 -17 -24c-8 41 -36 259 -48 369c-4 89 -25 138 -53 150c-20 8 -61 8 -77 0c-24 -12 -24 -16 -20 -150z" />
    <glyph glyph-name="X" unicode="X" horiz-adv-x="526" 
d="M341 618c-32 -92 -52 -141 -52 -137c-4 0 -8 4 -12 12c-16 28 -88 137 -108 157c-24 24 -56 53 -125 20c-23 -11 -24 -20 16 -100c16 -36 124 -213 145 -292c4 -8 4 -17 -4 -37c-4 -12 -61 -153 -69 -165c-12 -32 -16 -52 -12 -60c8 -8 77 -47 113 40c12 28 36 93 36 97
s76 -109 88 -117c16 -8 72 -12 104 -8c24 8 41 16 41 36c0 12 -21 53 -49 93c-52 80 -68 112 -96 176c-12 32 -12 32 4 76c8 24 88 253 88 273c4 16 4 16 -12 20c-12 8 -36 8 -48 4c-16 -8 -24 -24 -48 -88z" />
    <glyph glyph-name="Z" unicode="Z" horiz-adv-x="431" 
d="M60 650c49 -13 125 16 125 16v-20c-8 -73 -57 -355 -69 -424c-4 -16 -32 -194 -20 -202c12 -16 93 -31 149 -4c24 12 105 49 129 57c36 12 49 20 45 32c0 8 -3 33 -81 28c-28 -2 -73 -8 -73 -8s4 25 8 57c20 117 41 258 45 335c8 73 8 157 4 169c-4 4 2 45 -157 20
c-121 -28 -147 -45 -105 -56z" />
    <glyph glyph-name="zero" unicode="0" horiz-adv-x="481" 
d="M77 485c-34 -77 -57 -273 -43 -331c19 -62 52 -110 105 -139c19 -10 170 -49 240 62c26 42 53 96 67 163c24 101 14 235 -24 336c-14 38 -43 67 -81 86c-29 10 -29 10 -19 15c10 10 9 18 -5 28c-5 5 -71 21 -115 -4c-34 -24 -87 -110 -125 -216zM288 259
c-10 -67 -53 -163 -67 -153c-24 24 -34 125 -24 211c14 96 23 139 57 240c5 14 10 5 20 -29c19 -72 28 -192 14 -269z" />
    <glyph glyph-name="one" unicode="1" horiz-adv-x="268" 
d="M36 655c0 -8 29 -16 45 -16c12 0 12 0 16 -24c0 -37 -3 -330 -7 -403c-4 -40 -8 -94 -12 -122c-8 -57 -5 -65 16 -77c8 -8 21 -9 61 -9c53 0 72 4 76 25c4 8 17 134 21 223v200c-8 199 -17 236 -57 248c-12 8 -74 8 -98 0c-33 -4 -65 -33 -61 -45z" />
    <glyph glyph-name="two" unicode="2" horiz-adv-x="381" 
d="M80 666c-22 -13 -49 -44 -53 -57c0 -13 31 -22 53 -18c18 0 50 17 68 39c26 31 31 27 31 -35c4 -40 -8 -109 -39 -190c-18 -40 -107 -327 -111 -353c-9 -35 9 -52 66 -48c40 0 84 4 150 26c26 9 71 23 84 27c26 13 36 26 18 39c-9 4 -61 13 -124 0c-13 0 -22 -4 -22 0
c0 0 5 27 14 58c18 53 52 159 61 185c0 9 61 156 49 247c-9 53 -18 79 -40 92c-35 22 -125 53 -205 -12z" />
    <glyph glyph-name="three" unicode="3" horiz-adv-x="376" 
d="M24 651c0 -17 38 -21 84 -4c55 17 55 17 59 0c4 -4 28 -79 -67 -147c-21 -17 -34 -34 -34 -38c0 -8 21 -30 38 -34c17 -8 42 -46 63 -101c29 -71 54 -148 8 -222c-8 -8 -8 -9 -33 4c-21 8 -73 27 -105 -4c-13 -13 -13 -26 8 -51c34 -38 63 -50 118 -54
c97 0 167 59 180 151c8 34 18 177 -92 277c-15 17 -17 17 -42 34c-15 7 -9 4 29 42c55 55 68 88 55 138c-4 25 -52 89 -164 63c-50 -13 -109 -41 -105 -54z" />
    <glyph glyph-name="four" unicode="4" horiz-adv-x="439" 
d="M64 667c-4 -15 -8 -34 -15 -53c-15 -38 -26 -99 -26 -125c0 -22 0 -22 15 -29s115 -23 181 -4c30 4 30 4 26 -64c0 -90 4 -332 8 -351c7 -22 30 -34 72 -34c38 -4 67 4 78 15c7 7 9 8 5 121c0 64 -6 214 -6 282c4 139 -4 211 -11 230c-15 26 -59 41 -97 26
c-30 -11 -38 -22 -42 -105c-4 -64 -4 -68 -11 -72c-15 -4 -71 -11 -86 -7s-15 4 -11 15c0 7 18 128 22 143c4 30 0 41 -19 45c-11 4 -70 18 -83 -33z" />
    <glyph glyph-name="five" unicode="5" horiz-adv-x="415" 
d="M113 672c-21 -4 -56 2 -80 -117c-7 -34 -13 -60 -13 -89c0 -42 26 -86 109 -84c46 -8 89 -25 93 -42c13 -34 8 -75 -13 -113c-34 -63 -62 -101 -117 -160c-21 -25 -22 -34 -9 -42c25 -21 84 -25 126 -12c17 4 25 12 42 29c21 25 125 112 131 248c4 42 -5 63 -26 88
c-25 25 -88 50 -151 63c-29 4 -34 5 -34 13c-4 17 13 147 21 185c0 4 114 25 139 25c21 0 46 13 46 21c0 4 -8 9 -21 17c-21 8 -46 8 -105 0c-46 -4 -96 -17 -138 -30z" />
    <glyph glyph-name="six" unicode="6" horiz-adv-x="437" 
d="M148 661c-95 -126 -152 -437 -103 -545c14 -32 32 -105 170 -103c67 1 139 34 180 143c32 90 18 163 -36 199c-32 22 -85 40 -121 40c-40 4 -41 0 -23 63c14 59 76 192 118 274c2 3 -10 14 -14 18c-18 9 -76 9 -94 0c-14 -9 -37 -35 -77 -89zM288 256
c-4 -71 -46 -171 -68 -162c-9 4 -22 31 -31 67c-4 22 0 166 4 184c4 9 71 -17 85 -35c14 -14 14 -18 10 -54z" />
    <glyph glyph-name="seven" unicode="7" horiz-adv-x="391" 
d="M95 689c-53 -5 -90 -14 -85 -23c0 -13 17 -21 35 -26c13 0 50 -5 81 0c58 0 57 -1 62 -14c0 -9 -59 -418 -64 -466c-22 -142 -22 -146 -9 -155c13 -13 49 -22 80 -22c35 0 80 13 89 26c0 5 22 160 22 178c18 75 47 378 42 431c0 45 -1 49 -14 58c-22 27 -71 31 -151 22
c-18 0 -57 -4 -88 -9z" />
    <glyph glyph-name="eight" unicode="8" horiz-adv-x="435" 
d="M105 666c-17 -17 -30 -36 -35 -53c-13 -31 -24 -108 70 -158c13 -9 13 -13 8 -18c-5 -9 -60 -65 -83 -106c-46 -83 -57 -197 -4 -245c39 -39 165 -71 246 -31c53 22 129 90 92 215c-13 31 -34 80 -65 119c-26 31 -28 31 3 70c13 22 36 54 49 71c26 39 31 65 9 74
c-17 9 -58 9 -75 0c-22 -9 -57 -39 -83 -70s-27 -31 -40 -14c-22 22 -32 41 -27 63c9 35 12 73 106 100c26 0 35 4 44 9c9 13 9 12 0 17c-22 13 -83 19 -127 10c-35 -9 -62 -22 -88 -53zM259 261c9 -39 4 -88 -9 -105s-30 -35 -35 -35s-13 8 -18 17c-5 17 -19 62 9 140
c13 26 26 53 31 53s8 -8 13 -17s9 -36 9 -53z" />
    <glyph glyph-name="nine" unicode="9" horiz-adv-x="400" 
d="M64 584c-44 -112 -15 -165 92 -165c19 0 43 2 78 14c0 0 -5 -29 -10 -68c-29 -175 -44 -258 -44 -297c0 -44 0 -43 15 -53c24 -10 78 -15 112 -5c29 10 34 20 39 49c0 10 -1 48 9 82c5 39 20 171 25 205c15 73 14 199 9 228c-5 19 -29 24 -58 24c-44 0 -58 -4 -73 -38
c-24 -44 -87 -103 -102 -93s5 92 29 136c15 19 49 81 136 54c19 -15 54 -15 64 0c15 10 4 29 -15 44c-15 10 -105 35 -155 13c-55 -14 -132 -77 -151 -130z" />
    <glyph glyph-name="exclam" unicode="!" horiz-adv-x="222" 
d="M49 513c-5 -84 -6 -226 -5 -288c4 -48 17 -61 75 -57c40 3 61 15 68 29c0 4 1 39 2 79c-3 93 -3 195 12 338c2 31 6 72 5 90c-2 27 -1 27 -24 33c-19 7 -49 5 -70 -6c-34 -12 -49 -57 -63 -218zM60 32c-1 -35 -2 -37 12 -44c10 -7 70 -30 114 10c7 14 19 77 -20 91
c-14 7 -54 9 -75 -2c-27 -6 -34 -15 -31 -55z" />
    <glyph glyph-name="numbersign" unicode="#" horiz-adv-x="639" 
d="M339 621c0 -68 0 -68 -34 -70c-28 -8 -28 -9 -34 38c-6 52 -29 93 -46 101c-40 16 -57 -9 -57 -106c0 -57 0 -68 -11 -67c0 -6 -29 -9 -52 -17c-40 -12 -52 -17 -46 -29c0 -11 5 -12 28 -15c17 -2 86 2 86 2c0 -6 6 -17 6 -40c0 -28 -1 -30 -75 -49
c-68 -20 -79 -31 -68 -43s80 -15 108 -7c11 5 23 3 29 2c0 6 6 -34 6 -85c0 -80 0 -87 11 -99c23 -14 74 -19 97 -11c11 10 12 9 6 118c-6 115 -6 116 22 124c17 4 34 13 34 13s6 -24 6 -52c0 -57 6 -80 29 -89s57 -6 68 4s23 48 23 111c6 56 5 56 28 59c11 5 34 7 51 11
c51 11 19 45 -44 46c-28 3 -28 3 -34 27v34c6 -1 39 7 79 13c25 7 56 22 56 33c0 23 -38 22 -135 5c-6 1 -6 6 -12 41c-11 58 -22 76 -68 81c-17 2 -34 4 -40 -1c-17 -4 -17 -3 -17 -83zM349 455c6 -7 -5 -12 -28 -20c-40 -12 -46 -11 -40 28c0 28 1 29 24 37
c40 6 45 6 45 -17c0 -11 -1 -22 -1 -28z" />
    <glyph glyph-name="question" unicode="?" horiz-adv-x="434" 
d="M71 679c-23 -14 -59 -46 -36 -100c13 -30 72 -13 72 14c0 14 12 89 86 50c9 -9 69 -81 -9 -159c-41 -63 -68 -145 -68 -199c-5 -23 10 -113 118 -108c41 -5 58 13 49 49c-9 18 -22 28 -49 28c-23 -5 -24 4 -19 40c9 41 32 68 82 104c45 41 72 64 95 109
c14 23 42 186 -145 203c-32 3 -107 13 -176 -31zM130 64c0 -18 -1 -27 4 -32c32 -27 99 -32 122 -5c5 9 22 64 -9 91c-18 14 -58 18 -85 9c-23 -14 -32 -31 -32 -63z" />
    <glyph glyph-name="parenleft" unicode="(" horiz-adv-x="241" 
d="M69 590c-40 -179 -40 -413 0 -548c30 -95 56 -120 110 -110c40 5 49 25 34 60c-10 25 -25 66 -40 125c-15 54 -25 153 -20 268s11 165 36 260c25 100 25 110 15 120c-10 5 -41 10 -56 5c-25 -10 -59 -95 -79 -180z" />
    <glyph glyph-name="parenright" unicode=")" horiz-adv-x="257" 
d="M73 742c5 -15 5 -29 12 -68c5 -35 27 -202 10 -384c-10 -104 -20 -156 -35 -210c-40 -115 -40 -124 -20 -139c10 -10 64 -15 84 -5c15 10 21 20 51 95c35 100 49 203 49 348c0 105 -21 285 -60 365c-5 5 -22 37 -86 32c-5 -5 -5 -9 -5 -34z" />
    <glyph glyph-name="dollar" unicode="$" horiz-adv-x="453" 
d="M115 598c6 -74 14 -56 -30 -89c-36 -30 -65 -70 -59 -100c6 -41 35 -59 136 -83c65 -12 93 -14 95 -42c-10 -26 -54 -23 -95 -29c-77 -12 -94 -41 -35 -59c18 -6 21 15 18 -77c-1 -41 0 -71 6 -77c18 -30 71 -42 118 -24c36 6 41 29 35 118c-5 86 -10 62 24 77
c30 6 59 24 77 36c18 18 44 124 -142 136c-34 -2 -56 3 -71 18c-12 12 8 83 118 77c53 -6 77 5 77 23c0 24 -30 36 -71 42c-48 5 -35 -11 -35 71c-6 36 -12 65 -12 71c-12 6 -53 23 -71 17c-6 0 -24 0 -30 -6c-41 -6 -47 -17 -53 -100z" />
    <glyph glyph-name="ampersand" unicode="&#x26;" horiz-adv-x="471" 
d="M125 605c-7 -66 15 -48 -39 -99c-56 -52 -66 -118 -33 -151c20 -13 59 -33 85 -26c13 0 14 -7 7 -20c-13 -26 -21 -69 -13 -92c7 -27 11 -45 42 -47c-3 -15 2 -63 2 -89c13 -66 15 -81 74 -81c33 0 72 26 66 72c0 20 -13 81 -17 116c25 13 89 49 115 82
c46 53 40 105 -13 105c-26 -7 -40 -13 -79 -66c-13 -20 -32 -39 -52 -52c-26 -26 -27 -27 -27 -7c-7 26 14 66 40 92c13 20 19 32 19 39c0 20 -26 33 -65 33s-53 11 -40 31c13 39 46 48 79 68c20 7 33 20 33 20c7 13 16 55 -57 42c-1 26 -1 29 -5 57c-13 66 -24 79 -83 72
c-33 -7 -39 -27 -39 -99z" />
    <glyph glyph-name="plus" unicode="+" horiz-adv-x="426" 
d="M138 373c0 -18 0 -19 -43 -25c-37 0 -49 -6 -61 -12c-6 -6 -6 -19 -6 -25c6 -12 43 -24 73 -24s31 0 37 -18c0 -6 6 -68 12 -74c25 -30 79 -32 109 -14c12 6 12 12 12 67s0 55 49 67c55 12 79 26 73 44c-6 12 -30 23 -73 23c-49 0 -49 1 -49 44c-6 25 -12 42 -24 54
c-6 0 -11 2 -36 2c-30 0 -43 0 -49 -6c-12 -12 -18 -36 -24 -103z" />
    <glyph glyph-name="divide" unicode="&#xf7;" horiz-adv-x="447" 
d="M160 453c-7 -12 3 -62 8 -74c17 -13 55 -21 85 -17c18 -1 25 3 32 21c14 29 16 48 -8 68c-17 13 -72 23 -91 12c-12 1 -20 -4 -26 -10zM106 302c-69 -20 -90 -32 -54 -52c17 -13 61 -16 141 -3c37 3 98 5 141 8c73 1 92 13 87 31c0 6 -10 13 -16 19c-25 8 -157 18 -207 9
c-25 -4 -67 -8 -92 -12zM234 99c25 -2 29 -2 48 9c27 28 23 47 -1 67c-35 27 -78 23 -91 6c-46 -46 -23 -77 44 -82z" />
    <glyph glyph-name="equal" unicode="=" horiz-adv-x="395" 
d="M139 388c-77 -9 -98 -13 -103 -22c-9 -9 -6 -22 8 -31c23 -9 108 -9 166 0c31 5 68 9 86 9c67 0 89 35 31 49c-18 5 -112 9 -117 4c0 0 -31 -4 -71 -9zM44 232c18 -9 28 -10 149 -10c126 0 129 1 152 10c18 9 18 40 0 49c-18 5 -26 4 -143 4h-140
c-40 -14 -49 -35 -18 -53z" />
    <glyph glyph-name="multiply" unicode="&#xd7;" horiz-adv-x="384" 
d="M230 425c-36 -49 -31 -49 -54 -22c-14 9 -31 21 -40 26c-23 9 -76 9 -94 0c-23 -14 -9 -33 45 -103c30 -39 30 -34 -15 -80c-18 -18 -27 -31 -27 -36c0 -18 14 -22 45 -22c23 0 31 -1 49 13c43 49 21 52 70 -7c21 -25 36 -27 85 -22c40 0 59 9 59 27c5 14 0 18 -45 63
c-27 23 -60 73 -60 73c0 5 9 27 27 58c27 45 27 49 22 54c-9 9 -26 9 -40 0c-5 0 -18 -8 -27 -22z" />
    <glyph glyph-name="hyphen" unicode="-" horiz-adv-x="374" 
d="M40 338c-13 -6 -13 -25 6 -38s32 -12 140 -12c114 0 127 -1 146 12s18 25 -7 38c-19 6 -228 20 -260 7c-13 0 -25 -7 -25 -7z" />
    <glyph glyph-name="quotedblright" unicode="&#x201d;" horiz-adv-x="446" 
d="M68 651c13 -6 25 -13 25 -13s-42 -108 -32 -114h26c44 -6 108 64 114 127c6 32 6 38 0 63c-19 32 -32 44 -89 38c-25 0 -44 0 -57 -6c-44 -32 -38 -82 13 -95zM259 630c6 -7 19 -15 25 -22h13c0 -15 -19 -58 -25 -73c-25 -29 -1 -44 50 -37c44 7 84 74 90 146
c0 59 -13 88 -45 95c-32 15 -58 15 -83 0c-44 -22 -57 -72 -25 -109z" />
    <glyph glyph-name="quoteright" unicode="&#x2019;" horiz-adv-x="239" 
d="M75 641c13 -6 25 -13 25 -13s-42 -108 -32 -114h26c44 -6 108 64 114 127c6 32 6 38 0 63c-19 32 -36 55 -93 49c-25 0 -40 -11 -53 -17c-24 -28 -38 -82 13 -95z" />
    <glyph glyph-name="quotedblleft" unicode="&#x201c;" horiz-adv-x="431" 
d="M254 655c-6 -19 -13 -57 -13 -82c-6 -51 47 -128 146 -64c7 4 31 53 0 83c-13 6 -25 19 -38 19c-19 0 -19 0 -13 19c0 13 8 30 14 49c13 38 26 51 17 62c-17 0 -18 2 -31 -4c-38 -6 -69 -44 -82 -82zM32 598c-6 -38 4 -119 107 -89c25 6 39 26 45 51s-7 45 -32 51
c-19 13 -19 12 -19 25s13 32 19 51c25 44 19 50 -13 50c-19 0 -31 1 -50 -12c-32 -19 -57 -70 -57 -127z" />
    <glyph glyph-name="quoteleft" unicode="&#x2018;" horiz-adv-x="221" 
d="M49 654c-6 -19 -13 -57 -13 -82c-6 -51 47 -128 146 -64c7 4 31 53 0 83c-13 6 -25 19 -38 19c-19 0 -19 0 -13 19c0 13 8 30 14 49c13 38 26 51 17 62c-17 0 -18 2 -31 -4c-38 -6 -69 -44 -82 -82z" />
    <glyph glyph-name="at" unicode="@" horiz-adv-x="567" 
d="M56 449c-16 -32 -38 -118 -6 -245c43 -74 107 -106 213 -101c64 0 107 16 107 32s-10 16 -69 16c-21 0 -36 0 -64 5c-43 19 -90 49 -90 174c0 94 15 124 52 167c16 21 126 91 192 5c32 -43 50 -55 50 -119c-5 -59 -12 -74 -29 -73c0 0 -9 18 -9 39c0 48 1 76 -31 81
c-48 5 -55 -18 -87 -66c-10 -26 -33 -54 -38 -59c-5 -16 -11 5 -11 21c0 30 -5 72 73 114c26 16 49 -2 44 24c-7 25 -64 22 -90 6c-48 -32 -85 -91 -85 -144c-5 -48 5 -69 21 -74c21 -10 76 -11 102 5c26 5 28 40 37 -5c21 -26 96 -32 133 -11c26 21 80 63 69 170
c-5 53 -56 226 -272 202c-80 -16 -175 -84 -212 -164z" />
    <glyph glyph-name="less" unicode="&#x3c;" horiz-adv-x="368" 
d="M156 558c-70 -118 -135 -244 -135 -249c-5 -21 104 -190 141 -222c37 -37 65 -53 97 -53c32 -5 70 5 70 21c0 5 -103 130 -130 173c-54 76 -54 76 -5 168c60 102 113 199 113 215c0 11 -22 16 -59 16c-27 0 -38 1 -49 -10c-5 -5 -27 -32 -43 -59z" />
    <glyph glyph-name="greater" unicode="&#x3e;" horiz-adv-x="385" 
d="M28 597c0 -23 75 -140 124 -193c54 -58 53 -60 32 -100c-15 -35 -36 -75 -69 -122c-60 -93 -65 -110 -33 -122c43 -17 82 -5 119 35c37 47 152 229 152 252c0 5 -22 22 -43 45c-27 23 -66 66 -93 106c-49 58 -80 98 -107 110c-16 12 -60 12 -76 0c-5 0 -6 -6 -6 -11z" />
    <glyph glyph-name="bracketleft" unicode="[" horiz-adv-x="282" 
d="M55 522c0 -67 -6 -178 -6 -239c-6 -67 -6 -147 -6 -190c6 -80 7 -79 25 -85c67 -24 213 6 195 43c-12 12 -18 18 -49 24c-18 6 -18 6 -24 61c-6 122 -25 447 -25 478c6 24 6 24 43 24c31 0 43 6 49 12c12 18 12 19 -12 31s-92 12 -135 0c-49 -12 -49 -12 -55 -159z" />
    <glyph glyph-name="bracketright" unicode="]" horiz-adv-x="329" 
d="M121 673c29 0 29 2 22 -137c-7 -199 -15 -422 -22 -475c-7 -38 -7 -39 -50 -46c-29 0 -44 0 -51 -15c-14 -22 15 -32 115 -39s122 0 129 15c21 38 29 606 15 690c-7 53 -14 61 -93 61h-86c-43 -7 -22 -54 21 -54z" />
    <glyph glyph-name="asciicircum" unicode="^" horiz-adv-x="451" 
d="M39 522c-6 -13 -7 -18 6 -31c19 -13 77 -13 102 0c6 0 26 26 45 51c38 51 34 62 59 31c19 -19 62 -72 68 -78c25 -13 64 -19 89 -13c31 13 26 26 -38 102c-45 51 -77 91 -77 97c6 19 -19 38 -57 32h-50c-13 -6 -128 -160 -147 -191z" />
    <glyph glyph-name="quoteleft" unicode="&#x300;" horiz-adv-x="417" 
d="M40 667c-6 -13 38 -57 89 -76c57 -31 126 -44 186 -46c57 0 67 4 81 34c2 20 -48 26 -98 33c-51 13 -86 24 -124 55c-13 13 -27 17 -58 20c-68 6 -76 -20 -76 -20z" />
    <glyph glyph-name="quoteleft" unicode="`" horiz-adv-x="417" 
d="M40 667c-6 -13 38 -57 89 -76c57 -31 126 -44 186 -46c57 0 67 4 81 34c2 20 -48 26 -98 33c-51 13 -86 24 -124 55c-13 13 -27 17 -58 20c-68 6 -76 -20 -76 -20z" />
    <glyph glyph-name="acute" unicode="&#x301;" horiz-adv-x="400" 
d="M98 570c-76 -19 -83 -44 -32 -63c45 -13 151 20 246 65c82 45 83 76 -6 76c-45 0 -68 -9 -119 -34c-25 -13 -70 -31 -89 -44z" />
    <glyph glyph-name="acute" unicode="&#xb4;" horiz-adv-x="400" 
d="M98 570c-76 -19 -83 -44 -32 -63c45 -13 151 20 246 65c82 45 83 76 -6 76c-45 0 -68 -9 -119 -34c-25 -13 -70 -31 -89 -44z" />
    <glyph glyph-name="circumflex" unicode="&#x302;" horiz-adv-x="401" 
d="M75 589c-23 -33 -33 -55 -30 -62c0 -10 20 -16 49 -16c36 -3 49 4 62 26s47 78 54 81c0 0 26 -15 36 -25c32 -36 96 -81 118 -74c13 3 23 10 21 23c-5 35 -79 99 -89 112c-13 20 -18 18 -18 28c3 13 0 31 -16 34c-13 10 -45 10 -61 7c-32 -13 -59 -38 -126 -134z" />
    <glyph glyph-name="circumflex" unicode="&#x2c6;" horiz-adv-x="401" 
d="M75 589c-23 -33 -33 -55 -30 -62c0 -10 20 -16 49 -16c36 -3 49 4 62 26s47 78 54 81c0 0 26 -15 36 -25c32 -36 96 -81 118 -74c13 3 23 10 21 23c-5 35 -79 99 -89 112c-13 20 -18 18 -18 28c3 13 0 31 -16 34c-13 10 -45 10 -61 7c-32 -13 -59 -38 -126 -134z" />
    <glyph glyph-name="dieresis" unicode="&#x308;" horiz-adv-x="419" 
d="M32 637c-12 -52 7 -70 59 -70c35 0 59 12 65 24c6 6 17 75 0 87s-66 18 -89 6c-23 -6 -29 -12 -35 -47zM250 630c0 -35 1 -41 18 -47c17 -12 94 -12 106 0c6 6 31 53 -6 93c-12 6 -83 12 -100 0c-17 -6 -18 -17 -18 -46z" />
    <glyph glyph-name="dieresis" unicode="&#xa8;" horiz-adv-x="419" 
d="M32 637c-12 -52 7 -70 59 -70c35 0 59 12 65 24c6 6 17 75 0 87s-66 18 -89 6c-23 -6 -29 -12 -35 -47zM250 630c0 -35 1 -41 18 -47c17 -12 94 -12 106 0c6 6 31 53 -6 93c-12 6 -83 12 -100 0c-17 -6 -18 -17 -18 -46z" />
    <glyph glyph-name="tilde" unicode="&#x303;" horiz-adv-x="449" 
d="M55 615c-28 -35 -35 -49 -21 -63c7 -14 50 -21 85 -14c21 7 28 14 35 42c0 14 7 28 14 28s14 -7 21 -21c21 -35 56 -49 112 -49c42 0 71 14 99 49c21 28 21 56 0 70c-35 7 -64 4 -78 -17s-28 -28 -39 -15c-10 21 -17 32 -24 39c-21 14 -81 36 -126 14
c-35 -14 -57 -28 -78 -63z" />
    <glyph glyph-name="tilde" unicode="&#x2dc;" horiz-adv-x="449" 
d="M55 615c-28 -35 -35 -49 -21 -63c7 -14 50 -21 85 -14c21 7 28 14 35 42c0 14 7 28 14 28s14 -7 21 -21c21 -35 56 -49 112 -49c42 0 71 14 99 49c21 28 21 56 0 70c-35 7 -64 4 -78 -17s-28 -28 -39 -15c-10 21 -17 32 -24 39c-21 14 -81 36 -126 14
c-35 -14 -57 -28 -78 -63z" />
    <glyph glyph-name="asciitilde" unicode="~" horiz-adv-x="449" 
d="M60 373c-28 -35 -35 -49 -21 -63c7 -14 50 -21 85 -14c21 7 28 14 35 42c0 14 7 28 14 28s14 -7 21 -21c21 -35 56 -49 112 -49c42 0 71 14 99 49c21 28 21 56 0 70c-35 7 -64 4 -78 -17s-28 -28 -39 -15c-10 21 -17 32 -24 39c-21 14 -81 36 -126 14
c-35 -14 -57 -28 -78 -63z" />
    <glyph glyph-name="degree" unicode="&#xb0;" horiz-adv-x="320" 
d="M85 668c0 -7 -7 -21 -21 -35c-28 -28 -35 -70 -21 -91c14 -35 49 -43 112 -43c70 -7 106 15 127 64c28 56 13 98 -43 119c-28 14 -126 14 -140 0c-14 -7 -14 -14 -14 -14zM183 570c-7 -21 -28 -35 -42 -28c-7 7 -7 49 7 70s28 21 35 -7v-35z" />
    <glyph glyph-name="asterisk" unicode="*" horiz-adv-x="392" 
d="M196 610c-10 -13 -17 -29 -20 -32c-3 -7 -6 -7 -26 13c-39 36 -72 49 -101 39c-22 -7 -18 -14 27 -59c20 -22 38 -42 38 -45c3 0 -12 0 -32 0c-39 -3 -55 -6 -55 -16c-3 -13 13 -20 49 -20c20 -3 32 -3 32 -3c0 -3 -3 -9 -10 -16c-20 -16 -35 -38 -32 -45
c3 -10 20 -16 42 -13c26 0 46 6 68 32c20 20 19 19 35 6c10 -3 27 -15 37 -25c26 -20 32 -20 48 -20c39 -3 35 13 -4 52c-32 32 -32 33 7 36s59 9 59 19c3 7 0 10 -10 13c-7 7 -16 7 -58 7c-45 0 -46 -1 -20 48c13 29 22 52 22 55c0 13 -32 20 -54 17
c-16 -7 -26 -14 -42 -43z" />
    <glyph glyph-name="comma" unicode="," horiz-adv-x="208" 
d="M39 94c-9 -36 -5 -62 13 -70c-1 -11 31 -6 31 -11c0 -17 -14 -51 -35 -79c-8 -17 0 -24 30 -24s109 23 104 139c-2 43 -3 36 -22 61c-42 23 -82 36 -121 -16z" />
    <glyph glyph-name="period" unicode="." horiz-adv-x="194" 
d="M39 71c-1 -35 -2 -37 12 -44c10 -7 70 -30 114 10c7 14 19 77 -20 91c-14 7 -54 9 -75 -2c-27 -6 -34 -15 -31 -55z" />
    <glyph glyph-name="semicolon" unicode=";" horiz-adv-x="205" 
d="M39 94c-9 -36 -5 -62 13 -70c-1 -11 31 -6 31 -11c0 -17 -14 -51 -35 -79c-8 -17 0 -24 30 -24s106 23 101 139c-2 43 -4 52 -22 60c-8 5 -79 37 -118 -15zM42 336c-1 -35 -2 -37 12 -44c10 -7 70 -30 114 10c7 14 19 77 -20 91c-14 7 -54 9 -75 -2
c-27 -6 -34 -15 -31 -55z" />
    <glyph glyph-name="colon" unicode=":" horiz-adv-x="197" 
d="M42 336c-1 -35 -2 -37 12 -44c10 -7 70 -30 114 10c7 14 19 77 -20 91c-14 7 -54 9 -75 -2c-27 -6 -34 -15 -31 -55zM38 113c0 -18 -1 -27 4 -32c32 -27 100 -28 123 -1c5 9 22 64 -9 91c-18 14 -59 14 -86 5c-23 -14 -32 -31 -32 -63z" />
    <glyph glyph-name="cent" unicode="&#xa2;" horiz-adv-x="442" 
d="M154 603c0 -37 1 -75 6 -86c0 -16 0 -16 -33 -38c-43 -27 -85 -70 -96 -97c-11 -43 5 -85 48 -107c16 -11 91 -22 118 -22c0 0 6 -33 6 -70c0 -102 11 -129 59 -134c37 -5 64 11 69 33c11 22 6 172 -5 188c0 5 5 10 27 21c33 16 43 27 32 43c-16 11 -59 11 -123 -5
c-59 -16 -75 -17 -86 5c-5 22 10 59 37 81c33 37 81 59 129 59c54 5 76 16 65 32s-39 22 -76 22c-27 5 -26 5 -31 48c0 54 -6 81 -17 97c-16 16 -85 15 -107 4s-22 -10 -22 -74z" />
    <glyph glyph-name="sterling" unicode="&#xa3;" horiz-adv-x="388" 
d="M89 430c-7 -61 -6 -68 -20 -82c-20 -14 -21 -13 -7 -27s14 -21 0 -82c-7 -34 -21 -96 -28 -130c-14 -41 -13 -75 -13 -82s13 -13 27 -20c27 -7 41 -7 82 7c34 7 89 13 137 13c55 7 81 7 81 14c7 14 -27 27 -102 27c-41 7 -82 7 -82 7s7 27 14 68c7 34 20 83 20 103
c7 55 14 61 48 68c48 7 82 20 75 34c0 20 -34 28 -75 21c-34 -7 -34 -7 -27 68c7 82 13 150 20 177c7 7 7 1 14 -13c7 -34 21 -41 48 -34s40 68 20 102c-14 27 -89 40 -130 20c-55 -27 -82 -102 -102 -259z" />
    <glyph glyph-name="Euro" unicode="&#x20ac;" horiz-adv-x="437" 
d="M122 484c-16 -62 -23 -70 -54 -78c-16 0 -31 -8 -39 -16c0 -8 -1 -16 15 -16c8 -8 31 -15 39 -15c23 0 15 -16 -8 -24c-55 -8 -54 -46 -7 -54c23 -8 23 -8 23 -47c8 -94 55 -196 117 -219c16 -8 119 -36 187 0c23 23 8 39 -39 39c-39 8 -46 9 -62 32
c-31 39 -47 109 -47 164s0 54 39 70c70 8 70 39 -8 47c-47 8 -47 23 0 31c62 8 70 31 8 39c-31 8 -31 8 -31 31c16 62 31 117 47 156c16 23 24 31 47 39c31 8 38 31 15 39c-16 8 -85 8 -101 0c-47 -16 -125 -132 -141 -218z" />
    <glyph glyph-name="percent" unicode="%" horiz-adv-x="595" 
d="M351 646c-10 -25 -69 -142 -79 -167c-10 -20 -54 -124 -74 -173c-5 -15 -39 -89 -69 -143c-49 -99 -59 -128 -54 -138c10 -20 73 -25 98 -5c10 5 35 49 50 79c44 89 93 202 128 296c10 25 106 249 106 264c0 5 7 42 2 42c-15 10 -64 10 -74 0c-5 0 -19 -30 -34 -55z
M20 533c0 -44 45 -79 109 -79c49 0 88 25 113 74c10 25 10 69 -5 89c-20 30 -98 54 -133 44c-39 -15 -79 -84 -84 -128zM178 543c-5 -15 -33 -49 -39 -45c-36 26 -15 79 -5 109c5 10 44 -13 44 -64zM321 173c-5 -30 5 -49 25 -64c44 -30 133 -30 168 5c30 30 29 35 39 74
s-22 86 -74 98c-22 8 -54 15 -79 5c-39 -15 -74 -64 -79 -118zM430 143c-5 10 0 64 5 84c10 15 9 15 14 0s10 -24 5 -49c-10 -35 -19 -50 -24 -35z" />
    <glyph glyph-name="quotedbl" unicode="&#x22;" horiz-adv-x="351" 
d="M215 662c0 -45 -5 -129 -5 -144c0 -25 0 -25 15 -30c30 -15 59 16 79 56c10 20 17 48 17 108c0 90 -10 106 -65 106c-5 0 -21 0 -31 -5s-10 -6 -10 -91zM32 701c0 -10 5 -94 10 -134c5 -60 10 -75 15 -80c15 -10 20 -10 40 0c40 25 61 133 51 199c-5 15 -10 36 -15 41
c-10 20 -56 30 -81 15c-20 -5 -25 -16 -20 -41z" />
    <glyph glyph-name="quoteright" unicode="'" horiz-adv-x="177" 
d="M54 655c0 -45 -11 -148 -11 -163c0 -25 0 -25 15 -30c30 -15 59 16 79 56c10 20 23 67 23 127c0 90 -10 106 -65 106c-5 0 -21 0 -31 -5s-10 -6 -10 -91z" />
    <glyph glyph-name="slash" unicode="/" horiz-adv-x="390" 
d="M213 578c-16 -42 -38 -90 -58 -152c-11 -31 -72 -234 -88 -270c-31 -115 -43 -146 -32 -162c5 -11 27 -22 63 -22c42 0 57 12 68 48c11 16 15 51 20 67c26 94 105 351 110 371c16 57 41 135 52 161c11 36 16 89 11 100c-5 5 -21 10 -32 10c-20 5 -31 0 -36 -5
c-11 -11 -36 -57 -78 -146z" />
    <glyph glyph-name="backslash" unicode="\" horiz-adv-x="434" 
d="M58 601c27 -65 98 -249 108 -281s37 -108 59 -161c53 -167 53 -168 113 -173c38 0 60 12 65 22s-15 70 -37 118c-5 16 -55 156 -71 194c-16 43 -86 226 -124 291c-27 60 -38 80 -54 96s-21 22 -48 22s-27 -5 -37 -15c-5 -16 -1 -38 26 -113z" />
    <glyph glyph-name="underscore" unicode="_" horiz-adv-x="438" 
d="M151 41c-88 -9 -112 -13 -118 -22c-10 -9 -7 -22 9 -31c26 -9 124 -9 191 0c36 5 77 9 98 9c77 0 103 35 36 49c-21 5 -128 9 -134 4c0 0 -36 -4 -82 -9z" />
    <glyph glyph-name="questiondown" unicode="&#xbf;" horiz-adv-x="437" 
d="M367 49c22 15 56 49 30 102c-15 29 -73 9 -71 -18c1 -14 -7 -89 -83 -55c-10 8 -73 76 0 159c37 65 59 149 56 203c4 23 -17 111 -125 100c-41 3 -56 -16 -45 -51c10 -17 23 -27 50 -25c23 6 24 -3 21 -39c-7 -41 -27 -70 -75 -109c-42 -44 -68 -68 -88 -114
c-13 -24 -32 -188 156 -194c32 -1 108 -7 174 41zM272 659c-1 18 -1 27 -6 32c-34 25 -101 26 -122 -2c-4 -9 -19 -65 14 -90c19 -13 59 -15 85 -4c22 15 31 32 29 64z" />
    <glyph glyph-name="exclamdown" unicode="&#xa1;" horiz-adv-x="216" 
d="M199 216c3 84 1 226 -1 288c-5 48 -18 61 -76 56c-40 -4 -60 -17 -67 -31c0 -4 -1 -39 -1 -79c5 -93 7 -195 -5 -338c-1 -31 -5 -72 -4 -90c3 -27 2 -27 25 -33c19 -7 49 -3 70 8c34 13 48 58 59 219zM178 697c0 35 2 36 -12 43c-10 7 -71 29 -114 -12
c-7 -14 -18 -77 21 -90c14 -7 54 -8 75 3c27 7 34 16 30 56z" />
    <glyph glyph-name="nbspace" unicode="&#xa0;" horiz-adv-x="60" 
 />
    <glyph glyph-name="glyph126" 
d="M289 683c-8 -8 -22 -20 -42 -50c-27 -38 -78 -143 -121 -186c-39 -13 -16 130 -8 179c11 57 12 64 -15 72c-19 4 -41 -4 -49 -15c-15 -27 -57 -152 -23 -266c11 -27 75 -81 140 -8c27 27 57 65 95 133c4 -4 -4 -64 -15 -193c-8 -76 -15 -182 -19 -243
c-4 -53 0 -65 15 -76c38 -30 122 -19 137 15c0 4 11 197 19 262c8 137 8 190 0 266c-4 68 -15 114 -30 125c-11 8 -51 18 -84 -15zM17 836c-12 -52 7 -70 59 -70c35 0 59 12 65 24c6 6 17 75 0 87s-66 18 -89 6c-23 -6 -29 -12 -35 -47zM235 829c0 -35 1 -41 18 -47
c17 -12 94 -12 106 0c6 6 31 53 -6 93c-12 6 -83 12 -100 0c-17 -6 -18 -17 -18 -46z" />
    <glyph glyph-name="glyph127" horiz-adv-x="477" 
d="M116 692c-4 -4 -33 -123 -43 -156c-29 -123 -66 -487 -62 -544c4 -43 29 -56 95 -52c57 4 66 24 80 161c4 47 10 103 14 127c4 33 5 33 29 43c14 4 23 5 23 5s5 11 49 -147c23 -82 31 -85 74 -85c29 0 53 4 53 14c0 4 -10 32 -20 61c-52 156 -60 175 -56 185
c0 4 5 9 19 19c29 14 16 41 -19 33c-10 0 -18 6 -18 10c0 0 -11 38 -25 85c-29 132 -37 170 -51 184c0 4 -6 19 -10 33c0 24 -1 30 -15 34c-19 10 -80 15 -99 5c-10 -4 -18 -11 -18 -15zM241 345c0 -5 0 -12 -12 -12c-17 -5 -22 -12 -22 0c0 23 -5 81 5 125
c0 0 29 -108 29 -113zM42 884c-6 -13 38 -57 89 -76c57 -31 126 -44 186 -46c57 0 67 4 81 34c2 20 -48 26 -98 33c-51 13 -86 24 -124 55c-13 13 -27 17 -58 20c-68 6 -76 -20 -76 -20z" />
    <glyph glyph-name="glyph128" horiz-adv-x="477" 
d="M116 692c-4 -4 -33 -123 -43 -156c-29 -123 -66 -487 -62 -544c4 -43 29 -56 95 -52c57 4 66 24 80 161c4 47 10 103 14 127c4 33 5 33 29 43c14 4 23 5 23 5s5 11 49 -147c23 -82 31 -85 74 -85c29 0 53 4 53 14c0 4 -10 32 -20 61c-52 156 -60 175 -56 185
c0 4 5 9 19 19c29 14 16 41 -19 33c-10 0 -18 6 -18 10c0 0 -11 38 -25 85c-29 132 -37 170 -51 184c0 4 -6 19 -10 33c0 24 -1 30 -15 34c-19 10 -80 15 -99 5c-10 -4 -18 -11 -18 -15zM241 345c0 -5 0 -12 -12 -12c-17 -5 -22 -12 -22 0c0 23 -5 81 5 125
c0 0 29 -108 29 -113zM114 828c-76 -19 -83 -44 -32 -63c45 -13 151 20 246 65c82 45 83 76 -6 76c-45 0 -68 -9 -119 -34c-25 -13 -70 -31 -89 -44z" />
    <glyph glyph-name="glyph129" horiz-adv-x="477" 
d="M116 692c-4 -4 -33 -123 -43 -156c-29 -123 -66 -487 -62 -544c4 -43 29 -56 95 -52c57 4 66 24 80 161c4 47 10 103 14 127c4 33 5 33 29 43c14 4 23 5 23 5s5 11 49 -147c23 -82 31 -85 74 -85c29 0 53 4 53 14c0 4 -10 32 -20 61c-52 156 -60 175 -56 185
c0 4 5 9 19 19c29 14 16 41 -19 33c-10 0 -18 6 -18 10c0 0 -11 38 -25 85c-29 132 -37 170 -51 184c0 4 -6 19 -10 33c0 24 -1 30 -15 34c-19 10 -80 15 -99 5c-10 -4 -18 -11 -18 -15zM241 345c0 -5 0 -12 -12 -12c-17 -5 -22 -12 -22 0c0 23 -5 81 5 125
c0 0 29 -108 29 -113zM80 841c-23 -33 -33 -55 -30 -62c0 -10 20 -16 49 -16c36 -3 49 4 62 26s47 78 54 81c0 0 26 -15 36 -25c32 -36 96 -81 118 -74c13 3 23 10 21 23c-5 35 -79 99 -89 112c-13 20 -18 18 -18 28c3 13 0 31 -16 34c-13 10 -45 10 -61 7
c-32 -13 -59 -38 -126 -134z" />
    <glyph glyph-name="glyph130" horiz-adv-x="477" 
d="M116 692c-4 -4 -33 -123 -43 -156c-29 -123 -66 -487 -62 -544c4 -43 29 -56 95 -52c57 4 66 24 80 161c4 47 10 103 14 127c4 33 5 33 29 43c14 4 23 5 23 5s5 11 49 -147c23 -82 31 -85 74 -85c29 0 53 4 53 14c0 4 -10 32 -20 61c-52 156 -60 175 -56 185
c0 4 5 9 19 19c29 14 16 41 -19 33c-10 0 -18 6 -18 10c0 0 -11 38 -25 85c-29 132 -37 170 -51 184c0 4 -6 19 -10 33c0 24 -1 30 -15 34c-19 10 -80 15 -99 5c-10 -4 -18 -11 -18 -15zM241 345c0 -5 0 -12 -12 -12c-17 -5 -22 -12 -22 0c0 23 -5 81 5 125
c0 0 29 -108 29 -113zM53 842c-28 -35 -35 -49 -21 -63c7 -14 50 -21 85 -14c21 7 28 14 35 42c0 14 7 28 14 28s14 -7 21 -21c21 -35 56 -49 112 -49c42 0 71 14 99 49c21 28 21 56 0 70c-35 7 -64 4 -78 -17s-28 -28 -39 -15c-10 21 -17 32 -24 39c-21 14 -81 36 -126 14
c-35 -14 -57 -28 -78 -63z" />
    <glyph glyph-name="glyph131" horiz-adv-x="477" 
d="M116 692c-4 -4 -33 -123 -43 -156c-29 -123 -66 -487 -62 -544c4 -43 29 -56 95 -52c57 4 66 24 80 161c4 47 10 103 14 127c4 33 5 33 29 43c14 4 23 5 23 5s5 11 49 -147c23 -82 31 -85 74 -85c29 0 53 4 53 14c0 4 -10 32 -20 61c-52 156 -60 175 -56 185
c0 4 5 9 19 19c29 14 16 41 -19 33c-10 0 -18 6 -18 10c0 0 -11 38 -25 85c-29 132 -37 170 -51 184c0 4 -6 19 -10 33c0 24 -1 30 -15 34c-19 10 -80 15 -99 5c-10 -4 -18 -11 -18 -15zM241 345c0 -5 0 -12 -12 -12c-17 -5 -22 -12 -22 0c0 23 -5 81 5 125
c0 0 29 -108 29 -113zM22 842c-12 -52 7 -70 59 -70c35 0 59 12 65 24c6 6 17 75 0 87s-66 18 -89 6c-23 -6 -29 -12 -35 -47zM240 835c0 -35 1 -41 18 -47c17 -12 94 -12 106 0c6 6 31 53 -6 93c-12 6 -83 12 -100 0c-17 -6 -18 -17 -18 -46z" />
    <glyph glyph-name="glyph132" horiz-adv-x="451" 
d="M70 695c-16 -9 -23 -38 -36 -185c-10 -108 -1 -272 2 -297c6 -45 15 -106 28 -132c4 -15 36 -75 137 -76c74 -1 124 3 166 34c27 18 23 33 -1 50c-10 6 -96 10 -112 10s-10 5 -17 41c-3 25 -21 143 -15 264c0 59 1 59 31 61c31 7 95 26 101 36c0 5 7 10 2 15
c-4 15 -29 22 -78 21c-49 4 -48 5 -52 20c-5 55 -1 99 -1 104c5 0 46 1 90 -3c84 -3 103 0 105 20c1 15 -8 21 -67 26c-30 3 -78 7 -113 5c-54 5 -149 -6 -170 -14zM48 882c-6 -13 38 -57 89 -76c57 -31 126 -44 186 -46c57 0 67 4 81 34c2 20 -48 26 -98 33
c-51 13 -86 24 -124 55c-13 13 -27 17 -58 20c-68 6 -76 -20 -76 -20z" />
    <glyph glyph-name="glyph133" horiz-adv-x="451" 
d="M70 695c-16 -9 -23 -38 -36 -185c-10 -108 -1 -272 2 -297c6 -45 15 -106 28 -132c4 -15 36 -75 137 -76c74 -1 124 3 166 34c27 18 23 33 -1 50c-10 6 -96 10 -112 10s-10 5 -17 41c-3 25 -21 143 -15 264c0 59 1 59 31 61c31 7 95 26 101 36c0 5 7 10 2 15
c-4 15 -29 22 -78 21c-49 4 -48 5 -52 20c-5 55 -1 99 -1 104c5 0 46 1 90 -3c84 -3 103 0 105 20c1 15 -8 21 -67 26c-30 3 -78 7 -113 5c-54 5 -149 -6 -170 -14zM120 826c-76 -19 -83 -44 -32 -63c45 -13 151 20 246 65c82 45 83 76 -6 76c-45 0 -68 -9 -119 -34
c-25 -13 -70 -31 -89 -44z" />
    <glyph glyph-name="glyph134" horiz-adv-x="451" 
d="M70 695c-16 -9 -23 -38 -36 -185c-10 -108 -1 -272 2 -297c6 -45 15 -106 28 -132c4 -15 36 -75 137 -76c74 -1 124 3 166 34c27 18 23 33 -1 50c-10 6 -96 10 -112 10s-10 5 -17 41c-3 25 -21 143 -15 264c0 59 1 59 31 61c31 7 95 26 101 36c0 5 7 10 2 15
c-4 15 -29 22 -78 21c-49 4 -48 5 -52 20c-5 55 -1 99 -1 104c5 0 46 1 90 -3c84 -3 103 0 105 20c1 15 -8 21 -67 26c-30 3 -78 7 -113 5c-54 5 -149 -6 -170 -14zM86 839c-23 -33 -33 -55 -30 -62c0 -10 20 -16 49 -16c36 -3 49 4 62 26s47 78 54 81c0 0 26 -15 36 -25
c32 -36 96 -81 118 -74c13 3 23 10 21 23c-5 35 -79 99 -89 112c-13 20 -18 18 -18 28c3 13 0 31 -16 34c-13 10 -45 10 -61 7c-32 -13 -59 -38 -126 -134z" />
    <glyph glyph-name="glyph135" 
d="M70 695c-16 -9 -23 -38 -36 -185c-10 -108 -1 -272 2 -297c6 -45 15 -106 28 -132c4 -15 36 -75 137 -76c74 -1 124 3 166 34c27 18 23 33 -1 50c-10 6 -96 10 -112 10s-10 5 -17 41c-3 25 -21 143 -15 264c0 59 1 59 31 61c31 7 95 26 101 36c0 5 7 10 2 15
c-4 15 -29 22 -78 21c-49 4 -48 5 -52 20c-5 55 -1 99 -1 104c5 0 46 1 90 -3c84 -3 103 0 105 20c1 15 -8 21 -67 26c-30 3 -78 7 -113 5c-54 5 -149 -6 -170 -14zM28 840c-12 -52 7 -70 59 -70c35 0 59 12 65 24c6 6 17 75 0 87s-66 18 -89 6c-23 -6 -29 -12 -35 -47z
M246 833c0 -35 1 -41 18 -47c17 -12 94 -12 106 0c6 6 31 53 -6 93c-12 6 -83 12 -100 0c-17 -6 -18 -17 -18 -46z" />
    <glyph glyph-name="glyph136" horiz-adv-x="417" 
d="M69 687c-31 -9 -49 -18 -49 -22c0 -13 18 -23 36 -27c22 -4 22 -5 18 -18c-4 -27 -9 -297 -9 -436c0 -130 4 -83 4 -137c0 -11 -25 -8 -25 -28c17 -19 127 -16 178 3c36 18 41 27 23 36c-13 4 -17 -3 -18 27s-10 130 -14 355c-4 63 -13 154 -22 202c-4 9 0 10 18 14
c27 4 36 9 36 22c0 22 -55 31 -113 18c-18 -4 -45 -9 -63 -9zM-39 874c-6 -13 38 -57 89 -76c57 -31 126 -44 186 -46c57 0 67 4 81 34c2 20 -48 26 -98 33c-51 13 -86 24 -124 55c-13 13 -27 17 -58 20c-68 6 -76 -20 -76 -20z" />
    <glyph glyph-name="glyph137" horiz-adv-x="400" 
d="M69 687c-31 -9 -49 -18 -49 -22c0 -13 18 -23 36 -27c22 -4 22 -5 18 -18c-4 -27 -9 -297 -9 -436c0 -130 4 -83 4 -137c0 -11 -25 -8 -25 -28c17 -19 127 -16 178 3c36 18 41 27 23 36c-13 4 -17 -3 -18 27s-10 130 -14 355c-4 63 -13 154 -22 202c-4 9 0 10 18 14
c27 4 36 9 36 22c0 22 -55 31 -113 18c-18 -4 -45 -9 -63 -9zM33 818c-76 -19 -83 -44 -32 -63c45 -13 151 20 246 65c82 45 83 76 -6 76c-45 0 -68 -9 -119 -34c-25 -13 -70 -31 -89 -44z" />
    <glyph glyph-name="glyph138" horiz-adv-x="401" 
d="M69 687c-31 -9 -49 -18 -49 -22c0 -13 18 -23 36 -27c22 -4 22 -5 18 -18c-4 -27 -9 -297 -9 -436c0 -130 4 -83 4 -137c0 -11 -25 -8 -25 -28c17 -19 127 -16 178 3c36 18 41 27 23 36c-13 4 -17 -3 -18 27s-10 130 -14 355c-4 63 -13 154 -22 202c-4 9 0 10 18 14
c27 4 36 9 36 22c0 22 -55 31 -113 18c-18 -4 -45 -9 -63 -9zM-1 831c-23 -33 -33 -55 -30 -62c0 -10 20 -16 49 -16c36 -3 49 4 62 26s47 78 54 81c0 0 26 -15 36 -25c32 -36 96 -81 118 -74c13 3 23 10 21 23c-5 35 -79 99 -89 112c-13 20 -18 18 -18 28c3 13 0 31 -16 34
c-13 10 -45 10 -61 7c-32 -13 -59 -38 -126 -134z" />
    <glyph glyph-name="glyph139" 
d="M69 687c-31 -9 -49 -18 -49 -22c0 -13 18 -23 36 -27c22 -4 22 -5 18 -18c-4 -27 -9 -297 -9 -436c0 -130 4 -83 4 -137c0 -11 -25 -8 -25 -28c17 -19 127 -16 178 3c36 18 41 27 23 36c-13 4 -17 -3 -18 27s-10 130 -14 355c-4 63 -13 154 -22 202c-4 9 0 10 18 14
c27 4 36 9 36 22c0 22 -55 31 -113 18c-18 -4 -45 -9 -63 -9zM-59 832c-12 -52 7 -70 59 -70c35 0 59 12 65 24c6 6 17 75 0 87s-66 18 -89 6c-23 -6 -29 -12 -35 -47zM159 825c0 -35 1 -41 18 -47c17 -12 94 -12 106 0c6 6 31 53 -6 93c-12 6 -83 12 -100 0
c-17 -6 -18 -17 -18 -46z" />
    <glyph glyph-name="glyph140" horiz-adv-x="527" 
d="M369 654c0 -37 -13 -356 -13 -388c-4 -61 -6 -59 -38 -8c-37 65 -51 101 -88 218c-18 61 -23 98 -23 112c-4 56 -15 76 -52 80c-47 10 -87 -14 -97 -56c-10 -32 -29 -271 -29 -378c0 -84 15 -176 29 -200c10 -14 81 -45 139 -6c18 18 20 15 10 127c-4 24 -5 59 -5 83
c-4 47 -4 46 14 14c14 -14 89 -125 107 -149c28 -32 75 -55 112 -55c32 0 57 8 61 22c0 4 0 38 -10 75c-4 56 -8 98 -8 322c-4 299 -1 280 -52 276h-33c-14 -4 -20 -24 -24 -89zM97 875c-28 -35 -35 -49 -21 -63c7 -14 50 -21 85 -14c21 7 28 14 35 42c0 14 7 28 14 28
s14 -7 21 -21c21 -35 56 -49 112 -49c42 0 71 14 99 49c21 28 21 56 0 70c-35 7 -64 4 -78 -17s-28 -28 -39 -15c-10 21 -17 32 -24 39c-21 14 -81 36 -126 14c-35 -14 -57 -28 -78 -63z" />
    <glyph glyph-name="glyph141" horiz-adv-x="473" 
d="M186 688c-17 -4 -58 -33 -75 -55c-26 -39 -44 -53 -57 -123c-35 -126 -33 -236 -7 -327c17 -57 49 -211 235 -174c70 13 119 43 154 152c22 61 41 180 4 310c-44 174 -123 239 -232 222c-4 0 -13 -5 -22 -5zM290 500c17 -70 21 -79 21 -166s5 -183 -64 -247
c-42 4 -92 222 -61 384c4 26 13 112 55 118c13 -22 36 -54 49 -89zM57 868c-6 -13 38 -57 89 -76c57 -31 126 -44 186 -46c57 0 67 4 81 34c2 20 -48 26 -98 33c-51 13 -86 24 -124 55c-13 13 -27 17 -58 20c-68 6 -76 -20 -76 -20z" />
    <glyph glyph-name="glyph142" horiz-adv-x="473" 
d="M186 688c-17 -4 -58 -33 -75 -55c-26 -39 -44 -53 -57 -123c-35 -126 -33 -236 -7 -327c17 -57 49 -211 235 -174c70 13 119 43 154 152c22 61 41 180 4 310c-44 174 -123 239 -232 222c-4 0 -13 -5 -22 -5zM290 500c17 -70 21 -79 21 -166s5 -183 -64 -247
c-42 4 -92 222 -61 384c4 26 13 112 55 118c13 -22 36 -54 49 -89zM129 812c-76 -19 -83 -44 -32 -63c45 -13 151 20 246 65c82 45 83 76 -6 76c-45 0 -68 -9 -119 -34c-25 -13 -70 -31 -89 -44z" />
    <glyph glyph-name="glyph143" horiz-adv-x="473" 
d="M186 688c-17 -4 -58 -33 -75 -55c-26 -39 -44 -53 -57 -123c-35 -126 -33 -236 -7 -327c17 -57 49 -211 235 -174c70 13 119 43 154 152c22 61 41 180 4 310c-44 174 -123 239 -232 222c-4 0 -13 -5 -22 -5zM290 500c17 -70 21 -79 21 -166s5 -183 -64 -247
c-42 4 -92 222 -61 384c4 26 13 112 55 118c13 -22 36 -54 49 -89zM95 825c-23 -33 -33 -55 -30 -62c0 -10 20 -16 49 -16c36 -3 49 4 62 26s47 78 54 81c0 0 26 -15 36 -25c32 -36 96 -81 118 -74c13 3 23 10 21 23c-5 35 -79 99 -89 112c-13 20 -18 18 -18 28
c3 13 0 31 -16 34c-13 10 -45 10 -61 7c-32 -13 -59 -38 -126 -134z" />
    <glyph glyph-name="glyph144" horiz-adv-x="473" 
d="M186 688c-17 -4 -58 -33 -75 -55c-26 -39 -44 -53 -57 -123c-35 -126 -33 -236 -7 -327c17 -57 49 -211 235 -174c70 13 119 43 154 152c22 61 41 180 4 310c-44 174 -123 239 -232 222c-4 0 -13 -5 -22 -5zM290 500c17 -70 21 -79 21 -166s5 -183 -64 -247
c-42 4 -92 222 -61 384c4 26 13 112 55 118c13 -22 36 -54 49 -89zM68 826c-28 -35 -35 -49 -21 -63c7 -14 50 -21 85 -14c21 7 28 14 35 42c0 14 7 28 14 28s14 -7 21 -21c21 -35 56 -49 112 -49c42 0 71 14 99 49c21 28 21 56 0 70c-35 7 -64 4 -78 -17s-28 -28 -39 -15
c-10 21 -17 32 -24 39c-21 14 -81 36 -126 14c-35 -14 -57 -28 -78 -63z" />
    <glyph glyph-name="glyph145" horiz-adv-x="473" 
d="M186 688c-17 -4 -58 -33 -75 -55c-26 -39 -44 -53 -57 -123c-35 -126 -33 -236 -7 -327c17 -57 49 -211 235 -174c70 13 119 43 154 152c22 61 41 180 4 310c-44 174 -123 239 -232 222c-4 0 -13 -5 -22 -5zM290 500c17 -70 21 -79 21 -166s5 -183 -64 -247
c-42 4 -92 222 -61 384c4 26 13 112 55 118c13 -22 36 -54 49 -89zM37 826c-12 -52 7 -70 59 -70c35 0 59 12 65 24c6 6 17 75 0 87s-66 18 -89 6c-23 -6 -29 -12 -35 -47zM255 819c0 -35 1 -41 18 -47c17 -12 94 -12 106 0c6 6 31 53 -6 93c-12 6 -83 12 -100 0
c-17 -6 -18 -17 -18 -46z" />
    <glyph glyph-name="glyph146" horiz-adv-x="469" 
d="M330 557c0 -126 -1 -140 -14 -261c-13 -90 3 -168 -85 -215c-4 -4 -14 14 -18 45c-9 31 -14 126 -18 265c-4 166 -9 247 -18 265c-9 22 -31 27 -67 27c-36 4 -63 -9 -72 -27c-18 -31 -18 -490 0 -548c18 -63 40 -86 94 -99c45 -9 216 -32 270 92c34 69 35 88 31 353
c0 207 -5 234 -18 247c-9 4 -50 8 -63 4c-18 -9 -18 -27 -22 -148zM52 879c-6 -13 38 -57 89 -76c57 -31 126 -44 186 -46c57 0 67 4 81 34c2 20 -48 26 -98 33c-51 13 -86 24 -124 55c-13 13 -27 17 -58 20c-68 6 -76 -20 -76 -20z" />
    <glyph glyph-name="glyph147" horiz-adv-x="469" 
d="M330 557c0 -126 -1 -140 -14 -261c-13 -90 3 -168 -85 -215c-4 -4 -14 14 -18 45c-9 31 -14 126 -18 265c-4 166 -9 247 -18 265c-9 22 -31 27 -67 27c-36 4 -63 -9 -72 -27c-18 -31 -18 -490 0 -548c18 -63 40 -86 94 -99c45 -9 216 -32 270 92c34 69 35 88 31 353
c0 207 -5 234 -18 247c-9 4 -50 8 -63 4c-18 -9 -18 -27 -22 -148zM124 823c-76 -19 -83 -44 -32 -63c45 -13 151 20 246 65c82 45 83 76 -6 76c-45 0 -68 -9 -119 -34c-25 -13 -70 -31 -89 -44z" />
    <glyph glyph-name="glyph148" horiz-adv-x="469" 
d="M330 557c0 -126 -1 -140 -14 -261c-13 -90 3 -168 -85 -215c-4 -4 -14 14 -18 45c-9 31 -14 126 -18 265c-4 166 -9 247 -18 265c-9 22 -31 27 -67 27c-36 4 -63 -9 -72 -27c-18 -31 -18 -490 0 -548c18 -63 40 -86 94 -99c45 -9 216 -32 270 92c34 69 35 88 31 353
c0 207 -5 234 -18 247c-9 4 -50 8 -63 4c-18 -9 -18 -27 -22 -148zM90 836c-23 -33 -33 -55 -30 -62c0 -10 20 -16 49 -16c36 -3 49 4 62 26s47 78 54 81c0 0 26 -15 36 -25c32 -36 96 -81 118 -74c13 3 23 10 21 23c-5 35 -79 99 -89 112c-13 20 -18 18 -18 28
c3 13 0 31 -16 34c-13 10 -45 10 -61 7c-32 -13 -59 -38 -126 -134z" />
    <glyph glyph-name="glyph149" horiz-adv-x="469" 
d="M330 557c0 -126 -1 -140 -14 -261c-13 -90 3 -168 -85 -215c-4 -4 -14 14 -18 45c-9 31 -14 126 -18 265c-4 166 -9 247 -18 265c-9 22 -31 27 -67 27c-36 4 -63 -9 -72 -27c-18 -31 -18 -490 0 -548c18 -63 40 -86 94 -99c45 -9 216 -32 270 92c34 69 35 88 31 353
c0 207 -5 234 -18 247c-9 4 -50 8 -63 4c-18 -9 -18 -27 -22 -148zM32 837c-12 -52 7 -70 59 -70c35 0 59 12 65 24c6 6 17 75 0 87s-66 18 -89 6c-23 -6 -29 -12 -35 -47zM250 830c0 -35 1 -41 18 -47c17 -12 94 -12 106 0c6 6 31 53 -6 93c-12 6 -83 12 -100 0
c-17 -6 -18 -17 -18 -46z" />
    <glyph glyph-name="glyph150" horiz-adv-x="449" 
d="M289 683c-8 -8 -22 -20 -42 -50c-27 -38 -78 -143 -121 -186c-39 -13 -16 130 -8 179c11 57 12 64 -15 72c-19 4 -41 -4 -49 -15c-15 -27 -57 -152 -23 -266c11 -27 75 -81 140 -8c27 27 57 65 95 133c4 -4 -4 -64 -15 -193c-8 -76 -15 -182 -19 -243
c-4 -53 0 -65 15 -76c38 -30 122 -19 137 15c0 4 11 197 19 262c8 137 8 190 0 266c-4 68 -15 114 -30 125c-11 8 -51 18 -84 -15zM109 822c-76 -19 -83 -44 -32 -63c45 -13 151 20 246 65c82 45 83 76 -6 76c-45 0 -68 -9 -119 -34c-25 -13 -70 -31 -89 -44z" />
    <glyph glyph-name="glyph151" horiz-adv-x="451" 
d="M159 407c-30 -25 -124 -129 -134 -273c-3 -45 -2 -98 99 -119c55 -5 74 4 114 39c35 30 35 30 35 5c-5 -45 20 -59 85 -54c35 0 60 9 55 49c-5 50 -8 149 -8 214c0 80 13 134 -12 149c-20 15 -60 15 -80 -5c-20 -15 -20 -19 -45 -89c-10 -35 -13 -112 -109 -199
c-10 -10 -29 56 50 204c45 89 84 124 134 129c30 5 35 20 10 25c-25 10 -40 10 -75 0c-30 -10 -94 -50 -119 -75zM42 661c-6 -13 38 -57 89 -76c57 -31 126 -44 186 -46c57 0 67 4 81 34c2 20 -48 26 -98 33c-51 13 -86 24 -124 55c-13 13 -27 17 -58 20
c-68 6 -76 -20 -76 -20z" />
    <glyph glyph-name="glyph152" horiz-adv-x="451" 
d="M159 407c-30 -25 -124 -129 -134 -273c-3 -45 -2 -98 99 -119c55 -5 74 4 114 39c35 30 35 30 35 5c-5 -45 20 -59 85 -54c35 0 60 9 55 49c-5 50 -8 149 -8 214c0 80 13 134 -12 149c-20 15 -60 15 -80 -5c-20 -15 -20 -19 -45 -89c-10 -35 -13 -112 -109 -199
c-10 -10 -29 56 50 204c45 89 84 124 134 129c30 5 35 20 10 25c-25 10 -40 10 -75 0c-30 -10 -94 -50 -119 -75zM114 605c-76 -19 -83 -44 -32 -63c45 -13 151 20 246 65c82 45 83 76 -6 76c-45 0 -68 -9 -119 -34c-25 -13 -70 -31 -89 -44z" />
    <glyph glyph-name="glyph153" horiz-adv-x="451" 
d="M159 407c-30 -25 -124 -129 -134 -273c-3 -45 -2 -98 99 -119c55 -5 74 4 114 39c35 30 35 30 35 5c-5 -45 20 -59 85 -54c35 0 60 9 55 49c-5 50 -8 149 -8 214c0 80 13 134 -12 149c-20 15 -60 15 -80 -5c-20 -15 -20 -19 -45 -89c-10 -35 -13 -112 -109 -199
c-10 -10 -29 56 50 204c45 89 84 124 134 129c30 5 35 20 10 25c-25 10 -40 10 -75 0c-30 -10 -94 -50 -119 -75zM80 618c-23 -33 -33 -55 -30 -62c0 -10 20 -16 49 -16c36 -3 49 4 62 26s47 78 54 81c0 0 26 -15 36 -25c32 -36 96 -81 118 -74c13 3 23 10 21 23
c-5 35 -79 99 -89 112c-13 20 -18 18 -18 28c3 13 0 31 -16 34c-13 10 -45 10 -61 7c-32 -13 -59 -38 -126 -134z" />
    <glyph glyph-name="glyph154" horiz-adv-x="451" 
d="M159 407c-30 -25 -124 -129 -134 -273c-3 -45 -2 -98 99 -119c55 -5 74 4 114 39c35 30 35 30 35 5c-5 -45 20 -59 85 -54c35 0 60 9 55 49c-5 50 -8 149 -8 214c0 80 13 134 -12 149c-20 15 -60 15 -80 -5c-20 -15 -20 -19 -45 -89c-10 -35 -13 -112 -109 -199
c-10 -10 -29 56 50 204c45 89 84 124 134 129c30 5 35 20 10 25c-25 10 -40 10 -75 0c-30 -10 -94 -50 -119 -75zM53 619c-28 -35 -35 -49 -21 -63c7 -14 50 -21 85 -14c21 7 28 14 35 42c0 14 7 28 14 28s14 -7 21 -21c21 -35 56 -49 112 -49c42 0 71 14 99 49
c21 28 21 56 0 70c-35 7 -64 4 -78 -17s-28 -28 -39 -15c-10 21 -17 32 -24 39c-21 14 -81 36 -126 14c-35 -14 -57 -28 -78 -63z" />
    <glyph glyph-name="glyph155" 
d="M159 407c-30 -25 -124 -129 -134 -273c-3 -45 -2 -98 99 -119c55 -5 74 4 114 39c35 30 35 30 35 5c-5 -45 20 -59 85 -54c35 0 60 9 55 49c-5 50 -8 149 -8 214c0 80 13 134 -12 149c-20 15 -60 15 -80 -5c-20 -15 -20 -19 -45 -89c-10 -35 -13 -112 -109 -199
c-10 -10 -29 56 50 204c45 89 84 124 134 129c30 5 35 20 10 25c-25 10 -40 10 -75 0c-30 -10 -94 -50 -119 -75zM22 619c-12 -52 7 -70 59 -70c35 0 59 12 65 24c6 6 17 75 0 87s-66 18 -89 6c-23 -6 -29 -12 -35 -47zM240 612c0 -35 1 -41 18 -47c17 -12 94 -12 106 0
c6 6 31 53 -6 93c-12 6 -83 12 -100 0c-17 -6 -18 -17 -18 -46z" />
    <glyph glyph-name="glyph156" horiz-adv-x="417" 
d="M78 446c-27 -24 -105 -248 5 -363c32 -38 70 -49 140 -49c54 0 109 35 109 74c0 43 -29 19 -55 5c-29 -3 -46 -4 -63 23c-21 32 -33 72 -38 126c0 44 13 42 40 53c87 27 121 86 77 140c-21 27 -64 71 -172 17c-17 -5 -38 -21 -43 -26zM237 406c0 -27 -10 -42 -42 -59
c-11 -5 -25 -4 -30 1c-5 17 0 75 5 86c11 27 45 32 62 11c5 -5 5 -22 5 -39zM2 660c-6 -13 38 -57 89 -76c57 -31 126 -44 186 -46c57 0 67 4 81 34c2 20 -48 26 -98 33c-51 13 -86 24 -124 55c-13 13 -27 17 -58 20c-68 6 -76 -20 -76 -20z" />
    <glyph glyph-name="glyph157" horiz-adv-x="400" 
d="M78 446c-27 -24 -105 -248 5 -363c32 -38 70 -49 140 -49c54 0 109 35 109 74c0 43 -29 19 -55 5c-29 -3 -46 -4 -63 23c-21 32 -33 72 -38 126c0 44 13 42 40 53c87 27 121 86 77 140c-21 27 -64 71 -172 17c-17 -5 -38 -21 -43 -26zM237 406c0 -27 -10 -42 -42 -59
c-11 -5 -25 -4 -30 1c-5 17 0 75 5 86c11 27 45 32 62 11c5 -5 5 -22 5 -39zM74 604c-76 -19 -83 -44 -32 -63c45 -13 151 20 246 65c82 45 83 76 -6 76c-45 0 -68 -9 -119 -34c-25 -13 -70 -31 -89 -44z" />
    <glyph glyph-name="glyph158" horiz-adv-x="401" 
d="M78 446c-27 -24 -105 -248 5 -363c32 -38 70 -49 140 -49c54 0 109 35 109 74c0 43 -29 19 -55 5c-29 -3 -46 -4 -63 23c-21 32 -33 72 -38 126c0 44 13 42 40 53c87 27 121 86 77 140c-21 27 -64 71 -172 17c-17 -5 -38 -21 -43 -26zM237 406c0 -27 -10 -42 -42 -59
c-11 -5 -25 -4 -30 1c-5 17 0 75 5 86c11 27 45 32 62 11c5 -5 5 -22 5 -39zM40 617c-23 -33 -33 -55 -30 -62c0 -10 20 -16 49 -16c36 -3 49 4 62 26s47 78 54 81c0 0 26 -15 36 -25c32 -36 96 -81 118 -74c13 3 23 10 21 23c-5 35 -79 99 -89 112c-13 20 -18 18 -18 28
c3 13 0 31 -16 34c-13 10 -45 10 -61 7c-32 -13 -59 -38 -126 -134z" />
    <glyph glyph-name="glyph159" 
d="M78 446c-27 -24 -105 -248 5 -363c32 -38 70 -49 140 -49c54 0 109 35 109 74c0 43 -29 19 -55 5c-29 -3 -46 -4 -63 23c-21 32 -33 72 -38 126c0 44 13 42 40 53c87 27 121 86 77 140c-21 27 -64 71 -172 17c-17 -5 -38 -21 -43 -26zM237 406c0 -27 -10 -42 -42 -59
c-11 -5 -25 -4 -30 1c-5 17 0 75 5 86c11 27 45 32 62 11c5 -5 5 -22 5 -39zM-18 618c-12 -52 7 -70 59 -70c35 0 59 12 65 24c6 6 17 75 0 87s-66 18 -89 6c-23 -6 -29 -12 -35 -47zM200 611c0 -35 1 -41 18 -47c17 -12 94 -12 106 0c6 6 31 53 -6 93c-12 6 -83 12 -100 0
c-17 -6 -18 -17 -18 -46z" />
    <glyph glyph-name="glyph160" horiz-adv-x="449" 
d="M34 473c-5 -5 -7 -109 -9 -227c-5 -264 8 -231 60 -238c49 7 87 11 87 96c0 47 -1 85 4 94c5 14 71 123 90 142c9 14 12 7 7 -69c0 -43 -24 -169 -11 -186c14 -19 76 -28 104 -14c28 9 28 18 23 127c0 114 -9 152 -28 185c-24 28 -66 38 -104 19c-24 -9 -57 -38 -71 -66
c-9 -19 -9 -19 -14 14c-9 80 -19 123 -38 128c-19 9 -57 13 -81 4c-9 0 -19 -4 -19 -9zM43 617c-28 -35 -35 -49 -21 -63c7 -14 50 -21 85 -14c21 7 28 14 35 42c0 14 7 28 14 28s14 -7 21 -21c21 -35 56 -49 112 -49c42 0 71 14 99 49c21 28 21 56 0 70
c-35 7 -64 4 -78 -17s-28 -28 -39 -15c-10 21 -17 32 -24 39c-21 14 -81 36 -126 14c-35 -14 -57 -28 -78 -63z" />
    <glyph glyph-name="glyph161" horiz-adv-x="447" 
d="M62 365c-21 -46 -29 -75 -29 -129s21 -121 100 -157c37 -12 120 -12 157 0c91 33 138 96 129 187c-4 58 -45 116 -99 141c-21 9 -29 12 -58 8c-37 0 -38 1 -34 13c12 16 25 28 46 37c25 12 29 19 8 28c-16 4 -63 0 -79 -4c-54 -16 -112 -70 -141 -124zM274 204
c-4 -21 -17 -48 -54 -67c-10 -5 -34 29 -46 58c-9 29 -7 50 5 108c4 29 20 83 24 83c0 0 17 -13 29 -29c50 -50 63 -95 42 -153zM50 665c-6 -13 38 -57 89 -76c57 -31 126 -44 186 -46c57 0 67 4 81 34c2 20 -48 26 -98 33c-51 13 -86 24 -124 55c-13 13 -27 17 -58 20
c-68 6 -76 -20 -76 -20z" />
    <glyph glyph-name="glyph162" horiz-adv-x="447" 
d="M62 365c-21 -46 -29 -75 -29 -129s21 -121 100 -157c37 -12 120 -12 157 0c91 33 138 96 129 187c-4 58 -45 116 -99 141c-21 9 -29 12 -58 8c-37 0 -38 1 -34 13c12 16 25 28 46 37c25 12 29 19 8 28c-16 4 -63 0 -79 -4c-54 -16 -112 -70 -141 -124zM274 204
c-4 -21 -17 -48 -54 -67c-10 -5 -34 29 -46 58c-9 29 -7 50 5 108c4 29 20 83 24 83c0 0 17 -13 29 -29c50 -50 63 -95 42 -153zM122 609c-76 -19 -83 -44 -32 -63c45 -13 151 20 246 65c82 45 83 76 -6 76c-45 0 -68 -9 -119 -34c-25 -13 -70 -31 -89 -44z" />
    <glyph glyph-name="glyph163" horiz-adv-x="447" 
d="M62 365c-21 -46 -29 -75 -29 -129s21 -121 100 -157c37 -12 120 -12 157 0c91 33 138 96 129 187c-4 58 -45 116 -99 141c-21 9 -29 12 -58 8c-37 0 -38 1 -34 13c12 16 25 28 46 37c25 12 29 19 8 28c-16 4 -63 0 -79 -4c-54 -16 -112 -70 -141 -124zM274 204
c-4 -21 -17 -48 -54 -67c-10 -5 -34 29 -46 58c-9 29 -7 50 5 108c4 29 20 83 24 83c0 0 17 -13 29 -29c50 -50 63 -95 42 -153zM88 622c-23 -33 -33 -55 -30 -62c0 -10 20 -16 49 -16c36 -3 49 4 62 26s47 78 54 81c0 0 26 -15 36 -25c32 -36 96 -81 118 -74
c13 3 23 10 21 23c-5 35 -79 99 -89 112c-13 20 -18 18 -18 28c3 13 0 31 -16 34c-13 10 -45 10 -61 7c-32 -13 -59 -38 -126 -134z" />
    <glyph glyph-name="glyph164" horiz-adv-x="449" 
d="M62 365c-21 -46 -29 -75 -29 -129s21 -121 100 -157c37 -12 120 -12 157 0c91 33 138 96 129 187c-4 58 -45 116 -99 141c-21 9 -29 12 -58 8c-37 0 -38 1 -34 13c12 16 25 28 46 37c25 12 29 19 8 28c-16 4 -63 0 -79 -4c-54 -16 -112 -70 -141 -124zM274 204
c-4 -21 -17 -48 -54 -67c-10 -5 -34 29 -46 58c-9 29 -7 50 5 108c4 29 20 83 24 83c0 0 17 -13 29 -29c50 -50 63 -95 42 -153zM61 623c-28 -35 -35 -49 -21 -63c7 -14 50 -21 85 -14c21 7 28 14 35 42c0 14 7 28 14 28s14 -7 21 -21c21 -35 56 -49 112 -49
c42 0 71 14 99 49c21 28 21 56 0 70c-35 7 -64 4 -78 -17s-28 -28 -39 -15c-10 21 -17 32 -24 39c-21 14 -81 36 -126 14c-35 -14 -57 -28 -78 -63z" />
    <glyph glyph-name="glyph165" 
d="M62 365c-21 -46 -29 -75 -29 -129s21 -121 100 -157c37 -12 120 -12 157 0c91 33 138 96 129 187c-4 58 -45 116 -99 141c-21 9 -29 12 -58 8c-37 0 -38 1 -34 13c12 16 25 28 46 37c25 12 29 19 8 28c-16 4 -63 0 -79 -4c-54 -16 -112 -70 -141 -124zM274 204
c-4 -21 -17 -48 -54 -67c-10 -5 -34 29 -46 58c-9 29 -7 50 5 108c4 29 20 83 24 83c0 0 17 -13 29 -29c50 -50 63 -95 42 -153zM30 623c-12 -52 7 -70 59 -70c35 0 59 12 65 24c6 6 17 75 0 87s-66 18 -89 6c-23 -6 -29 -12 -35 -47zM248 616c0 -35 1 -41 18 -47
c17 -12 94 -12 106 0c6 6 31 53 -6 93c-12 6 -83 12 -100 0c-17 -6 -18 -17 -18 -46z" />
    <glyph glyph-name="glyph166" 
d="M251 443c-5 -33 -19 -108 -33 -188c-14 -56 -31 -126 -45 -145c-24 -5 -36 20 -41 39c-5 41 -7 38 -2 122c5 52 18 136 18 145c-5 37 -38 52 -71 33c-9 -9 -38 -33 -51 -208c-6 -75 10 -209 127 -201c70 -5 123 34 144 90c33 110 20 18 29 -29c9 -70 14 -80 28 -89
c33 -14 66 -5 71 18c0 5 0 29 -5 52c-19 94 -24 290 -19 351c5 28 0 42 -23 47c-23 9 -80 9 -99 0c-23 -5 -23 -9 -28 -37zM48 659c-6 -13 38 -57 89 -76c57 -31 126 -44 186 -46c57 0 67 4 81 34c2 20 -48 26 -98 33c-51 13 -86 24 -124 55c-13 13 -27 17 -58 20
c-68 6 -76 -20 -76 -20z" />
    <glyph glyph-name="glyph167" 
d="M251 443c-5 -33 -19 -108 -33 -188c-14 -56 -31 -126 -45 -145c-24 -5 -36 20 -41 39c-5 41 -7 38 -2 122c5 52 18 136 18 145c-5 37 -38 52 -71 33c-9 -9 -38 -33 -51 -208c-6 -75 10 -209 127 -201c70 -5 123 34 144 90c33 110 20 18 29 -29c9 -70 14 -80 28 -89
c33 -14 66 -5 71 18c0 5 0 29 -5 52c-19 94 -24 290 -19 351c5 28 0 42 -23 47c-23 9 -80 9 -99 0c-23 -5 -23 -9 -28 -37zM120 603c-76 -19 -83 -44 -32 -63c45 -13 151 20 246 65c82 45 83 76 -6 76c-45 0 -68 -9 -119 -34c-25 -13 -70 -31 -89 -44z" />
    <glyph glyph-name="glyph168" 
d="M251 443c-5 -33 -19 -108 -33 -188c-14 -56 -31 -126 -45 -145c-24 -5 -36 20 -41 39c-5 41 -7 38 -2 122c5 52 18 136 18 145c-5 37 -38 52 -71 33c-9 -9 -38 -33 -51 -208c-6 -75 10 -209 127 -201c70 -5 123 34 144 90c33 110 20 18 29 -29c9 -70 14 -80 28 -89
c33 -14 66 -5 71 18c0 5 0 29 -5 52c-19 94 -24 290 -19 351c5 28 0 42 -23 47c-23 9 -80 9 -99 0c-23 -5 -23 -9 -28 -37zM86 616c-23 -33 -33 -55 -30 -62c0 -10 20 -16 49 -16c36 -3 49 4 62 26s47 78 54 81c0 0 26 -15 36 -25c32 -36 96 -81 118 -74c13 3 23 10 21 23
c-5 35 -79 99 -89 112c-13 20 -18 18 -18 28c3 13 0 31 -16 34c-13 10 -45 10 -61 7c-32 -13 -59 -38 -126 -134z" />
    <glyph glyph-name="glyph169" 
d="M251 443c-5 -33 -19 -108 -33 -188c-14 -56 -31 -126 -45 -145c-24 -5 -36 20 -41 39c-5 41 -7 38 -2 122c5 52 18 136 18 145c-5 37 -38 52 -71 33c-9 -9 -38 -33 -51 -208c-6 -75 10 -209 127 -201c70 -5 123 34 144 90c33 110 20 18 29 -29c9 -70 14 -80 28 -89
c33 -14 66 -5 71 18c0 5 0 29 -5 52c-19 94 -24 290 -19 351c5 28 0 42 -23 47c-23 9 -80 9 -99 0c-23 -5 -23 -9 -28 -37zM28 617c-12 -52 7 -70 59 -70c35 0 59 12 65 24c6 6 17 75 0 87s-66 18 -89 6c-23 -6 -29 -12 -35 -47zM246 610c0 -35 1 -41 18 -47
c17 -12 94 -12 106 0c6 6 31 53 -6 93c-12 6 -83 12 -100 0c-17 -6 -18 -17 -18 -46z" />
    <glyph glyph-name="glyph170" horiz-adv-x="400" 
d="M247 404c-7 -59 -1 -90 -30 -112c-44 -44 -101 22 -94 103c7 44 -7 73 -29 73c-15 0 -37 -22 -44 -73c0 -51 3 -171 69 -192c22 -15 74 -15 103 0c22 7 17 47 17 -26c0 -152 -39 -271 -54 -308c-7 -7 -22 -29 -37 -44c-29 -22 -29 -21 -14 -36c44 -37 146 -7 190 44
c22 29 32 73 54 161c22 146 22 388 -7 461c-7 37 -51 51 -88 36c-29 -15 -36 -28 -36 -87zM89 613c-76 -19 -83 -44 -32 -63c45 -13 151 20 246 65c82 45 83 76 -6 76c-45 0 -68 -9 -119 -34c-25 -13 -70 -31 -89 -44z" />
    <glyph glyph-name="glyph171" 
d="M247 404c-7 -59 -1 -90 -30 -112c-44 -44 -101 22 -94 103c7 44 -7 73 -29 73c-15 0 -37 -22 -44 -73c0 -51 3 -171 69 -192c22 -15 74 -15 103 0c22 7 17 47 17 -26c0 -152 -39 -271 -54 -308c-7 -7 -22 -29 -37 -44c-29 -22 -29 -21 -14 -36c44 -37 146 -7 190 44
c22 29 32 73 54 161c22 146 22 388 -7 461c-7 37 -51 51 -88 36c-29 -15 -36 -28 -36 -87zM-3 627c-12 -52 7 -70 59 -70c35 0 59 12 65 24c6 6 17 75 0 87s-66 18 -89 6c-23 -6 -29 -12 -35 -47zM215 620c0 -35 1 -41 18 -47c17 -12 94 -12 106 0c6 6 31 53 -6 93
c-12 6 -83 12 -100 0c-17 -6 -18 -17 -18 -46z" />
    <glyph glyph-name="glyph172" horiz-adv-x="766" 
d="M282 471c17 -70 17 -70 17 -157s0 -88 -17 -140c-22 -61 -31 -83 -35 -87c-4 0 -55 47 -63 95c-21 115 -24 180 2 289c4 26 35 139 35 135c4 0 13 -18 22 -35c13 -22 26 -65 39 -100zM380 72c8 -20 43 -70 135 -71c74 -1 124 3 166 34c27 18 23 33 -1 50
c-10 6 -96 10 -112 10s-10 5 -17 41c-3 25 -21 143 -15 264c0 59 1 59 31 61c31 7 95 26 101 36c0 5 7 10 2 15c-4 15 -29 22 -78 21c-49 4 -48 5 -52 20c-5 55 -1 99 -1 104c5 0 46 1 90 -3c84 -3 103 0 105 20c1 15 -8 21 -67 26c-30 3 -78 7 -113 5
c-54 5 -149 -6 -170 -14c-10 -6 -17 -19 -23 -65c-37 57 -86 78 -153 67c-4 0 -13 -5 -22 -5c-17 -4 -48 -30 -65 -52c-26 -39 -53 -95 -66 -165c-35 -126 -34 -197 -8 -288c17 -57 31 -88 61 -118c39 -44 104 -65 174 -56c45 8 74 24 98 63z" />
    <glyph glyph-name="glyph173" horiz-adv-x="60" 
 />
    <glyph glyph-name="cedilla" unicode="&#x327;" horiz-adv-x="224" 
d="M42 25c0 -24 4 -29 37 -43c19 -9 23 -14 28 -23c5 -14 2 -35 -37 -42c-26 3 -34 -18 0 -38c38 -14 127 -24 136 71c0 33 -14 47 -47 61c-19 9 -24 9 -19 18c14 52 14 62 5 71c-14 9 -51 9 -70 0c-14 -9 -33 -51 -33 -75z" />
    <glyph glyph-name="cedilla" unicode="&#xb8;" horiz-adv-x="224" 
d="M42 25c0 -24 4 -29 37 -43c19 -9 23 -14 28 -23c5 -14 2 -35 -37 -42c-26 3 -34 -18 0 -38c38 -14 127 -24 136 71c0 33 -14 47 -47 61c-19 9 -24 9 -19 18c14 52 14 62 5 71c-14 9 -51 9 -70 0c-14 -9 -33 -51 -33 -75z" />
    <glyph glyph-name="Ydieresis" unicode="&#x178;" horiz-adv-x="451" 
d="M289 683c-8 -8 -22 -20 -42 -50c-27 -38 -78 -143 -121 -186c-39 -13 -16 130 -8 179c11 57 12 64 -15 72c-19 4 -41 -4 -49 -15c-15 -27 -57 -152 -23 -266c11 -27 75 -81 140 -8c27 27 57 65 95 133c4 -4 -4 -64 -15 -193c-8 -76 -15 -182 -19 -243
c-4 -53 0 -65 15 -76c38 -30 122 -19 137 15c0 4 11 197 19 262c8 137 8 190 0 266c-4 68 -15 114 -30 125c-11 8 -51 18 -84 -15zM37 826c-12 -52 7 -70 59 -70c35 0 59 12 65 24c6 6 17 75 0 87s-66 18 -89 6c-23 -6 -29 -12 -35 -47zM255 819c0 -35 1 -41 18 -47
c17 -12 94 -12 106 0c6 6 31 53 -6 93c-12 6 -83 12 -100 0c-17 -6 -18 -17 -18 -46z" />
    <glyph glyph-name="Agrave" unicode="&#xc0;" horiz-adv-x="483" 
d="M116 692c-4 -4 -33 -123 -43 -156c-29 -123 -66 -487 -62 -544c4 -43 29 -56 95 -52c57 4 66 24 80 161c4 47 10 103 14 127c4 33 5 33 29 43c14 4 23 5 23 5s5 11 49 -147c23 -82 31 -85 74 -85c29 0 53 4 53 14c0 4 -10 32 -20 61c-52 156 -60 175 -56 185
c0 4 5 9 19 19c29 14 16 41 -19 33c-10 0 -18 6 -18 10c0 0 -11 38 -25 85c-29 132 -37 170 -51 184c0 4 -6 19 -10 33c0 24 -1 30 -15 34c-19 10 -80 15 -99 5c-10 -4 -18 -11 -18 -15zM241 345c0 -5 0 -12 -12 -12c-17 -5 -22 -12 -22 0c0 23 -5 81 5 125
c0 0 29 -108 29 -113zM6 888c-6 -13 38 -57 89 -76c57 -31 126 -44 186 -46c57 0 67 4 81 34c2 20 -48 26 -98 33c-51 13 -86 24 -124 55c-13 13 -27 17 -58 20c-68 6 -76 -20 -76 -20z" />
    <glyph glyph-name="Aacute" unicode="&#xc1;" horiz-adv-x="477" 
d="M116 692c-4 -4 -33 -123 -43 -156c-29 -123 -66 -487 -62 -544c4 -43 29 -56 95 -52c57 4 66 24 80 161c4 47 10 103 14 127c4 33 5 33 29 43c14 4 23 5 23 5s5 11 49 -147c23 -82 31 -85 74 -85c29 0 53 4 53 14c0 4 -10 32 -20 61c-52 156 -60 175 -56 185
c0 4 5 9 19 19c29 14 16 41 -19 33c-10 0 -18 6 -18 10c0 0 -11 38 -25 85c-29 132 -37 170 -51 184c0 4 -6 19 -10 33c0 24 -1 30 -15 34c-19 10 -80 15 -99 5c-10 -4 -18 -11 -18 -15zM241 345c0 -5 0 -12 -12 -12c-17 -5 -22 -12 -22 0c0 23 -5 81 5 125
c0 0 29 -108 29 -113zM82 825c-76 -19 -83 -44 -32 -63c45 -13 151 20 246 65c82 45 83 76 -6 76c-45 0 -68 -9 -119 -34c-25 -13 -70 -31 -89 -44z" />
    <glyph glyph-name="Acircumflex" unicode="&#xc2;" horiz-adv-x="485" 
d="M116 692c-4 -4 -33 -123 -43 -156c-29 -123 -66 -487 -62 -544c4 -43 29 -56 95 -52c57 4 66 24 80 161c4 47 10 103 14 127c4 33 5 33 29 43c14 4 23 5 23 5s5 11 49 -147c23 -82 31 -85 74 -85c29 0 53 4 53 14c0 4 -10 32 -20 61c-52 156 -60 175 -56 185
c0 4 5 9 19 19c29 14 16 41 -19 33c-10 0 -18 6 -18 10c0 0 -11 38 -25 85c-29 132 -37 170 -51 184c0 4 -6 19 -10 33c0 24 -1 30 -15 34c-19 10 -80 15 -99 5c-10 -4 -18 -11 -18 -15zM241 345c0 -5 0 -12 -12 -12c-17 -5 -22 -12 -22 0c0 23 -5 81 5 125
c0 0 29 -108 29 -113zM34 825c-23 -33 -33 -55 -30 -62c0 -10 20 -16 49 -16c36 -3 49 4 62 26s47 78 54 81c0 0 26 -15 36 -25c32 -36 96 -81 118 -74c13 3 23 10 21 23c-5 35 -79 99 -89 112c-13 20 -18 18 -18 28c3 13 0 31 -16 34c-13 10 -45 10 -61 7
c-32 -13 -59 -38 -126 -134z" />
    <glyph glyph-name="Atilde" unicode="&#xc3;" horiz-adv-x="513" 
d="M116 692c-4 -4 -33 -123 -43 -156c-29 -123 -66 -487 -62 -544c4 -43 29 -56 95 -52c57 4 66 24 80 161c4 47 10 103 14 127c4 33 5 33 29 43c14 4 23 5 23 5s5 11 49 -147c23 -82 31 -85 74 -85c29 0 53 4 53 14c0 4 -10 32 -20 61c-52 156 -60 175 -56 185
c0 4 5 9 19 19c29 14 16 41 -19 33c-10 0 -18 6 -18 10c0 0 -11 38 -25 85c-29 132 -37 170 -51 184c0 4 -6 19 -10 33c0 24 -1 30 -15 34c-19 10 -80 15 -99 5c-10 -4 -18 -11 -18 -15zM241 345c0 -5 0 -12 -12 -12c-17 -5 -22 -12 -22 0c0 23 -5 81 5 125
c0 0 29 -108 29 -113zM3 843c-28 -35 -35 -49 -21 -63c7 -14 50 -21 85 -14c21 7 28 14 35 42c0 14 7 28 14 28s14 -7 21 -21c21 -35 56 -49 112 -49c42 0 71 14 99 49c21 28 21 56 0 70c-35 7 -64 4 -78 -17s-28 -28 -39 -15c-10 21 -17 32 -24 39c-21 14 -81 36 -126 14
c-35 -14 -57 -28 -78 -63z" />
    <glyph glyph-name="Adieresis" unicode="&#xc4;" horiz-adv-x="493" 
d="M116 692c-4 -4 -33 -123 -43 -156c-29 -123 -66 -487 -62 -544c4 -43 29 -56 95 -52c57 4 66 24 80 161c4 47 10 103 14 127c4 33 5 33 29 43c14 4 23 5 23 5s5 11 49 -147c23 -82 31 -85 74 -85c29 0 53 4 53 14c0 4 -10 32 -20 61c-52 156 -60 175 -56 185
c0 4 5 9 19 19c29 14 16 41 -19 33c-10 0 -18 6 -18 10c0 0 -11 38 -25 85c-29 132 -37 170 -51 184c0 4 -6 19 -10 33c0 24 -1 30 -15 34c-19 10 -80 15 -99 5c-10 -4 -18 -11 -18 -15zM241 345c0 -5 0 -12 -12 -12c-17 -5 -22 -12 -22 0c0 23 -5 81 5 125
c0 0 29 -108 29 -113zM-2 833c-12 -52 7 -70 59 -70c35 0 59 12 65 24c6 6 17 75 0 87s-66 18 -89 6c-23 -6 -29 -12 -35 -47zM216 826c0 -35 1 -41 18 -47c17 -12 94 -12 106 0c6 6 31 53 -6 93c-12 6 -83 12 -100 0c-17 -6 -18 -17 -18 -46z" />
    <glyph glyph-name="Ccedilla" unicode="&#xc7;" horiz-adv-x="475" 
d="M195 3c-14 -15 -28 -49 -28 -70c0 -24 4 -29 37 -43c19 -9 23 -14 28 -23c5 -14 2 -35 -37 -42c-26 3 -34 -18 0 -38c38 -14 127 -24 136 71c0 33 -14 47 -47 61c-19 9 -24 9 -19 18c11 42 13 57 9 65c2 1 3 1 5 1c95 21 168 81 166 107s-10 26 -37 22
c-26 -9 -35 -13 -59 -35c-16 -16 -43 -35 -77 -16c-27 28 -55 98 -63 190c-17 118 -18 216 6 307c11 52 24 63 48 57c10 -4 15 -7 26 -24c24 -38 40 -55 58 -52c23 3 26 18 20 59c-5 32 -45 93 -151 89c-23 -1 -49 -7 -54 -8c-60 -36 -95 -83 -118 -183
c-14 -63 -16 -119 -13 -201c11 -110 35 -213 64 -255c24 -33 60 -51 100 -57z" />
    <glyph glyph-name="Egrave" unicode="&#xc8;" horiz-adv-x="451" 
d="M70 695c-16 -9 -23 -38 -36 -185c-10 -108 -1 -272 2 -297c6 -45 15 -106 28 -132c4 -15 36 -75 137 -76c74 -1 124 3 166 34c27 18 23 33 -1 50c-10 6 -96 10 -112 10s-10 5 -17 41c-3 25 -21 143 -15 264c0 59 1 59 31 61c31 7 95 26 101 36c0 5 7 10 2 15
c-4 15 -29 22 -78 21c-49 4 -48 5 -52 20c-5 55 -1 99 -1 104c5 0 46 1 90 -3c84 -3 103 0 105 20c1 15 -8 21 -67 26c-30 3 -78 7 -113 5c-54 5 -149 -6 -170 -14zM48 882c-6 -13 38 -57 89 -76c57 -31 126 -44 186 -46c57 0 67 4 81 34c2 20 -48 26 -98 33
c-51 13 -86 24 -124 55c-13 13 -27 17 -58 20c-68 6 -76 -20 -76 -20z" />
    <glyph glyph-name="Eacute" unicode="&#xc9;" horiz-adv-x="451" 
d="M70 695c-16 -9 -23 -38 -36 -185c-10 -108 -1 -272 2 -297c6 -45 15 -106 28 -132c4 -15 36 -75 137 -76c74 -1 124 3 166 34c27 18 23 33 -1 50c-10 6 -96 10 -112 10s-10 5 -17 41c-3 25 -21 143 -15 264c0 59 1 59 31 61c31 7 95 26 101 36c0 5 7 10 2 15
c-4 15 -29 22 -78 21c-49 4 -48 5 -52 20c-5 55 -1 99 -1 104c5 0 46 1 90 -3c84 -3 103 0 105 20c1 15 -8 21 -67 26c-30 3 -78 7 -113 5c-54 5 -149 -6 -170 -14zM120 826c-76 -19 -83 -44 -32 -63c45 -13 151 20 246 65c82 45 83 76 -6 76c-45 0 -68 -9 -119 -34
c-25 -13 -70 -31 -89 -44z" />
    <glyph glyph-name="Ecircumflex" unicode="&#xca;" horiz-adv-x="451" 
d="M70 695c-16 -9 -23 -38 -36 -185c-10 -108 -1 -272 2 -297c6 -45 15 -106 28 -132c4 -15 36 -75 137 -76c74 -1 124 3 166 34c27 18 23 33 -1 50c-10 6 -96 10 -112 10s-10 5 -17 41c-3 25 -21 143 -15 264c0 59 1 59 31 61c31 7 95 26 101 36c0 5 7 10 2 15
c-4 15 -29 22 -78 21c-49 4 -48 5 -52 20c-5 55 -1 99 -1 104c5 0 46 1 90 -3c84 -3 103 0 105 20c1 15 -8 21 -67 26c-30 3 -78 7 -113 5c-54 5 -149 -6 -170 -14zM68 837c-23 -33 -33 -55 -30 -62c0 -10 20 -16 49 -16c36 -3 49 4 62 26s47 78 54 81c0 0 26 -15 36 -25
c32 -36 96 -81 118 -74c13 3 23 10 21 23c-5 35 -79 99 -89 112c-13 20 -18 18 -18 28c3 13 0 31 -16 34c-13 10 -45 10 -61 7c-32 -13 -59 -38 -126 -134z" />
    <glyph glyph-name="Edieresis" unicode="&#xcb;" horiz-adv-x="459" 
d="M70 695c-16 -9 -23 -38 -36 -185c-10 -108 -1 -272 2 -297c6 -45 15 -106 28 -132c4 -15 36 -75 137 -76c74 -1 124 3 166 34c27 18 23 33 -1 50c-10 6 -96 10 -112 10s-10 5 -17 41c-3 25 -21 143 -15 264c0 59 1 59 31 61c31 7 95 26 101 36c0 5 7 10 2 15
c-4 15 -29 22 -78 21c-49 4 -48 5 -52 20c-5 55 -1 99 -1 104c5 0 46 1 90 -3c84 -3 103 0 105 20c1 15 -8 21 -67 26c-30 3 -78 7 -113 5c-54 5 -149 -6 -170 -14zM24 834c-12 -52 7 -70 59 -70c35 0 59 12 65 24c6 6 17 75 0 87s-66 18 -89 6c-23 -6 -29 -12 -35 -47z
M242 827c0 -35 1 -41 18 -47c17 -12 94 -12 106 0c6 6 31 53 -6 93c-12 6 -83 12 -100 0c-17 -6 -18 -17 -18 -46z" />
    <glyph glyph-name="Igrave" unicode="&#xcc;" horiz-adv-x="417" 
d="M69 687c-31 -9 -49 -18 -49 -22c0 -13 18 -23 36 -27c22 -4 22 -5 18 -18c-4 -27 -9 -297 -9 -436c0 -130 4 -83 4 -137c0 -11 -25 -8 -25 -28c17 -19 127 -16 178 3c36 18 41 27 23 36c-13 4 -17 -3 -18 27s-10 130 -14 355c-4 63 -13 154 -22 202c-4 9 0 10 18 14
c27 4 36 9 36 22c0 22 -55 31 -113 18c-18 -4 -45 -9 -63 -9zM-39 874c-6 -13 38 -57 89 -76c57 -31 126 -44 186 -46c57 0 67 4 81 34c2 20 -48 26 -98 33c-51 13 -86 24 -124 55c-13 13 -27 17 -58 20c-68 6 -76 -20 -76 -20z" />
    <glyph glyph-name="Iacute" unicode="&#xcd;" horiz-adv-x="400" 
d="M69 687c-31 -9 -49 -18 -49 -22c0 -13 18 -23 36 -27c22 -4 22 -5 18 -18c-4 -27 -9 -297 -9 -436c0 -130 4 -83 4 -137c0 -11 -25 -8 -25 -28c17 -19 127 -16 178 3c36 18 41 27 23 36c-13 4 -17 -3 -18 27s-10 130 -14 355c-4 63 -13 154 -22 202c-4 9 0 10 18 14
c27 4 36 9 36 22c0 22 -55 31 -113 18c-18 -4 -45 -9 -63 -9zM33 818c-76 -19 -83 -44 -32 -63c45 -13 151 20 246 65c82 45 83 76 -6 76c-45 0 -68 -9 -119 -34c-25 -13 -70 -31 -89 -44z" />
    <glyph glyph-name="Icircumflex" unicode="&#xce;" horiz-adv-x="401" 
d="M69 687c-31 -9 -49 -18 -49 -22c0 -13 18 -23 36 -27c22 -4 22 -5 18 -18c-4 -27 -9 -297 -9 -436c0 -130 4 -83 4 -137c0 -11 -25 -8 -25 -28c17 -19 127 -16 178 3c36 18 41 27 23 36c-13 4 -17 -3 -18 27s-10 130 -14 355c-4 63 -13 154 -22 202c-4 9 0 10 18 14
c27 4 36 9 36 22c0 22 -55 31 -113 18c-18 -4 -45 -9 -63 -9zM-1 831c-23 -33 -33 -55 -30 -62c0 -10 20 -16 49 -16c36 -3 49 4 62 26s47 78 54 81c0 0 26 -15 36 -25c32 -36 96 -81 118 -74c13 3 23 10 21 23c-5 35 -79 99 -89 112c-13 20 -18 18 -18 28c3 13 0 31 -16 34
c-13 10 -45 10 -61 7c-32 -13 -59 -38 -126 -134z" />
    <glyph glyph-name="Idieresis" unicode="&#xcf;" horiz-adv-x="419" 
d="M69 687c-31 -9 -49 -18 -49 -22c0 -13 18 -23 36 -27c22 -4 22 -5 18 -18c-4 -27 -9 -297 -9 -436c0 -130 4 -83 4 -137c0 -11 -25 -8 -25 -28c17 -19 127 -16 178 3c36 18 41 27 23 36c-13 4 -17 -3 -18 27s-10 130 -14 355c-4 63 -13 154 -22 202c-4 9 0 10 18 14
c27 4 36 9 36 22c0 22 -55 31 -113 18c-18 -4 -45 -9 -63 -9zM-39 822c-12 -52 7 -70 59 -70c35 0 59 12 65 24c6 6 17 75 0 87s-66 18 -89 6c-23 -6 -29 -12 -35 -47zM179 815c0 -35 1 -41 18 -47c17 -12 94 -12 106 0c6 6 31 53 -6 93c-12 6 -83 12 -100 0
c-17 -6 -18 -17 -18 -46z" />
    <glyph glyph-name="Ntilde" unicode="&#xd1;" horiz-adv-x="527" 
d="M369 654c0 -37 -13 -356 -13 -388c-4 -61 -6 -59 -38 -8c-37 65 -51 101 -88 218c-18 61 -23 98 -23 112c-4 56 -15 76 -52 80c-47 10 -87 -14 -97 -56c-10 -32 -29 -271 -29 -378c0 -84 15 -176 29 -200c10 -14 81 -45 139 -6c18 18 20 15 10 127c-4 24 -5 59 -5 83
c-4 47 -4 46 14 14c14 -14 89 -125 107 -149c28 -32 75 -55 112 -55c32 0 57 8 61 22c0 4 0 38 -10 75c-4 56 -8 98 -8 322c-4 299 -1 280 -52 276h-33c-14 -4 -20 -24 -24 -89zM79 873c-28 -35 -35 -49 -21 -63c7 -14 50 -21 85 -14c21 7 28 14 35 42c0 14 7 28 14 28
s14 -7 21 -21c21 -35 56 -49 112 -49c42 0 71 14 99 49c21 28 21 56 0 70c-35 7 -64 4 -78 -17s-28 -28 -39 -15c-10 21 -17 32 -24 39c-21 14 -81 36 -126 14c-35 -14 -57 -28 -78 -63z" />
    <glyph glyph-name="Ograve" unicode="&#xd2;" horiz-adv-x="493" 
d="M186 688c-17 -4 -58 -33 -75 -55c-26 -39 -44 -53 -57 -123c-35 -126 -33 -236 -7 -327c17 -57 49 -211 235 -174c70 13 119 43 154 152c22 61 41 180 4 310c-44 174 -123 239 -232 222c-4 0 -13 -5 -22 -5zM290 500c17 -70 21 -79 21 -166s5 -183 -64 -247
c-42 4 -92 222 -61 384c4 26 13 112 55 118c13 -22 36 -54 49 -89zM67 868c-6 -13 38 -57 89 -76c57 -31 126 -44 186 -46c57 0 67 4 81 34c2 20 -48 26 -98 33c-51 13 -86 24 -124 55c-13 13 -27 17 -58 20c-68 6 -76 -20 -76 -20z" />
    <glyph glyph-name="Oacute" unicode="&#xd3;" horiz-adv-x="493" 
d="M186 688c-17 -4 -58 -33 -75 -55c-26 -39 -44 -53 -57 -123c-35 -126 -33 -236 -7 -327c17 -57 49 -211 235 -174c70 13 119 43 154 152c22 61 41 180 4 310c-44 174 -123 239 -232 222c-4 0 -13 -5 -22 -5zM290 500c17 -70 21 -79 21 -166s5 -183 -64 -247
c-42 4 -92 222 -61 384c4 26 13 112 55 118c13 -22 36 -54 49 -89zM139 812c-76 -19 -83 -44 -32 -63c45 -13 151 20 246 65c82 45 83 76 -6 76c-45 0 -68 -9 -119 -34c-25 -13 -70 -31 -89 -44z" />
    <glyph glyph-name="Ocircumflex" unicode="&#xd4;" horiz-adv-x="493" 
d="M186 688c-17 -4 -58 -33 -75 -55c-26 -39 -44 -53 -57 -123c-35 -126 -33 -236 -7 -327c17 -57 49 -211 235 -174c70 13 119 43 154 152c22 61 41 180 4 310c-44 174 -123 239 -232 222c-4 0 -13 -5 -22 -5zM290 500c17 -70 21 -79 21 -166s5 -183 -64 -247
c-42 4 -92 222 -61 384c4 26 13 112 55 118c13 -22 36 -54 49 -89zM81 823c-23 -33 -33 -55 -30 -62c0 -10 20 -16 49 -16c36 -3 49 4 62 26s47 78 54 81c0 0 26 -15 36 -25c32 -36 96 -81 118 -74c13 3 23 10 21 23c-5 35 -79 99 -89 112c-13 20 -18 18 -18 28
c3 13 0 31 -16 34c-13 10 -45 10 -61 7c-32 -13 -59 -38 -126 -134z" />
    <glyph glyph-name="Otilde" unicode="&#xd5;" horiz-adv-x="496" 
d="M186 688c-17 -4 -58 -33 -75 -55c-26 -39 -44 -53 -57 -123c-35 -126 -33 -236 -7 -327c17 -57 49 -211 235 -174c70 13 119 43 154 152c22 61 41 180 4 310c-44 174 -123 239 -232 222c-4 0 -13 -5 -22 -5zM290 500c17 -70 21 -79 21 -166s5 -183 -64 -247
c-42 4 -92 222 -61 384c4 26 13 112 55 118c13 -22 36 -54 49 -89zM53 827c-28 -35 -35 -49 -21 -63c7 -14 50 -21 85 -14c21 7 28 14 35 42c0 14 7 28 14 28s14 -7 21 -21c21 -35 56 -49 112 -49c42 0 71 14 99 49c21 28 21 56 0 70c-35 7 -64 4 -78 -17s-28 -28 -39 -15
c-10 21 -17 32 -24 39c-21 14 -81 36 -126 14c-35 -14 -57 -28 -78 -63z" />
    <glyph glyph-name="Odieresis" unicode="&#xd6;" horiz-adv-x="493" 
d="M186 688c-17 -4 -58 -33 -75 -55c-26 -39 -44 -53 -57 -123c-35 -126 -33 -236 -7 -327c17 -57 49 -211 235 -174c70 13 119 43 154 152c22 61 41 180 4 310c-44 174 -123 239 -232 222c-4 0 -13 -5 -22 -5zM290 500c17 -70 21 -79 21 -166s5 -183 -64 -247
c-42 4 -92 222 -61 384c4 26 13 112 55 118c13 -22 36 -54 49 -89zM67 816c-12 -52 7 -70 59 -70c35 0 59 12 65 24c6 6 17 75 0 87s-66 18 -89 6c-23 -6 -29 -12 -35 -47zM285 809c0 -35 1 -41 18 -47c17 -12 94 -12 106 0c6 6 31 53 -6 93c-12 6 -83 12 -100 0
c-17 -6 -18 -17 -18 -46z" />
    <glyph glyph-name="Ugrave" unicode="&#xd9;" horiz-adv-x="470" 
d="M330 557c0 -126 -1 -140 -14 -261c-13 -90 3 -168 -85 -215c-4 -4 -14 14 -18 45c-9 31 -14 126 -18 265c-4 166 -9 247 -18 265c-9 22 -31 27 -67 27c-36 4 -63 -9 -72 -27c-18 -31 -18 -490 0 -548c18 -63 40 -86 94 -99c45 -9 216 -32 270 92c34 69 35 88 31 353
c0 207 -5 234 -18 247c-9 4 -50 8 -63 4c-18 -9 -18 -27 -22 -148zM53 879c-6 -13 38 -57 89 -76c57 -31 126 -44 186 -46c57 0 67 4 81 34c2 20 -48 26 -98 33c-51 13 -86 24 -124 55c-13 13 -27 17 -58 20c-68 6 -76 -20 -76 -20z" />
    <glyph glyph-name="Uacute" unicode="&#xda;" horiz-adv-x="470" 
d="M330 557c0 -126 -1 -140 -14 -261c-13 -90 3 -168 -85 -215c-4 -4 -14 14 -18 45c-9 31 -14 126 -18 265c-4 166 -9 247 -18 265c-9 22 -31 27 -67 27c-36 4 -63 -9 -72 -27c-18 -31 -18 -490 0 -548c18 -63 40 -86 94 -99c45 -9 216 -32 270 92c34 69 35 88 31 353
c0 207 -5 234 -18 247c-9 4 -50 8 -63 4c-18 -9 -18 -27 -22 -148zM125 823c-76 -19 -83 -44 -32 -63c45 -13 151 20 246 65c82 45 83 76 -6 76c-45 0 -68 -9 -119 -34c-25 -13 -70 -31 -89 -44z" />
    <glyph glyph-name="Ucircumflex" unicode="&#xdb;" horiz-adv-x="470" 
d="M330 557c0 -126 -1 -140 -14 -261c-13 -90 3 -168 -85 -215c-4 -4 -14 14 -18 45c-9 31 -14 126 -18 265c-4 166 -9 247 -18 265c-9 22 -31 27 -67 27c-36 4 -63 -9 -72 -27c-18 -31 -18 -490 0 -548c18 -63 40 -86 94 -99c45 -9 216 -32 270 92c34 69 35 88 31 353
c0 207 -5 234 -18 247c-9 4 -50 8 -63 4c-18 -9 -18 -27 -22 -148zM91 836c-23 -33 -33 -55 -30 -62c0 -10 20 -16 49 -16c36 -3 49 4 62 26s47 78 54 81c0 0 26 -15 36 -25c32 -36 96 -81 118 -74c13 3 23 10 21 23c-5 35 -79 99 -89 112c-13 20 -18 18 -18 28
c3 13 0 31 -16 34c-13 10 -45 10 -61 7c-32 -13 -59 -38 -126 -134z" />
    <glyph glyph-name="Udieresis" unicode="&#xdc;" horiz-adv-x="470" 
d="M330 557c0 -126 -1 -140 -14 -261c-13 -90 3 -168 -85 -215c-4 -4 -14 14 -18 45c-9 31 -14 126 -18 265c-4 166 -9 247 -18 265c-9 22 -31 27 -67 27c-36 4 -63 -9 -72 -27c-18 -31 -18 -490 0 -548c18 -63 40 -86 94 -99c45 -9 216 -32 270 92c34 69 35 88 31 353
c0 207 -5 234 -18 247c-9 4 -50 8 -63 4c-18 -9 -18 -27 -22 -148zM53 827c-12 -52 7 -70 59 -70c35 0 59 12 65 24c6 6 17 75 0 87s-66 18 -89 6c-23 -6 -29 -12 -35 -47zM271 820c0 -35 1 -41 18 -47c17 -12 94 -12 106 0c6 6 31 53 -6 93c-12 6 -83 12 -100 0
c-17 -6 -18 -17 -18 -46z" />
    <glyph glyph-name="Yacute" unicode="&#xdd;" horiz-adv-x="451" 
d="M289 683c-8 -8 -22 -20 -42 -50c-27 -38 -78 -143 -121 -186c-39 -13 -16 130 -8 179c11 57 12 64 -15 72c-19 4 -41 -4 -49 -15c-15 -27 -57 -152 -23 -266c11 -27 75 -81 140 -8c27 27 57 65 95 133c4 -4 -4 -64 -15 -193c-8 -76 -15 -182 -19 -243
c-4 -53 0 -65 15 -76c38 -30 122 -19 137 15c0 4 11 197 19 262c8 137 8 190 0 266c-4 68 -15 114 -30 125c-11 8 -51 18 -84 -15zM109 822c-76 -19 -83 -44 -32 -63c45 -13 151 20 246 65c82 45 83 76 -6 76c-45 0 -68 -9 -119 -34c-25 -13 -70 -31 -89 -44z" />
    <glyph glyph-name="agrave" unicode="&#xe0;" horiz-adv-x="454" 
d="M159 407c-30 -25 -124 -129 -134 -273c-3 -45 -2 -98 99 -119c55 -5 74 4 114 39c35 30 35 30 35 5c-5 -45 20 -59 85 -54c35 0 60 9 55 49c-5 50 -8 149 -8 214c0 80 13 134 -12 149c-20 15 -60 15 -80 -5c-20 -15 -20 -19 -45 -89c-10 -35 -13 -112 -109 -199
c-10 -10 -29 56 50 204c45 89 84 124 134 129c30 5 35 20 10 25c-25 10 -40 10 -75 0c-30 -10 -94 -50 -119 -75zM62 668c-6 -13 38 -57 89 -76c57 -31 126 -44 186 -46c57 0 67 4 81 34c2 20 -48 26 -98 33c-51 13 -86 24 -124 55c-13 13 -27 17 -58 20
c-68 6 -76 -20 -76 -20z" />
    <glyph glyph-name="aacute" unicode="&#xe1;" horiz-adv-x="450" 
d="M159 407c-30 -25 -124 -129 -134 -273c-3 -45 -2 -98 99 -119c55 -5 74 4 114 39c35 30 35 30 35 5c-5 -45 20 -59 85 -54c35 0 60 9 55 49c-5 50 -8 149 -8 214c0 80 13 134 -12 149c-20 15 -60 15 -80 -5c-20 -15 -20 -19 -45 -89c-10 -35 -13 -112 -109 -199
c-10 -10 -29 56 50 204c45 89 84 124 134 129c30 5 35 20 10 25c-25 10 -40 10 -75 0c-30 -10 -94 -50 -119 -75zM139 605c-76 -19 -83 -44 -32 -63c45 -13 151 20 246 65c82 45 83 76 -6 76c-45 0 -68 -9 -119 -34c-25 -13 -70 -31 -89 -44z" />
    <glyph glyph-name="acircumflex" unicode="&#xe2;" horiz-adv-x="452" 
d="M159 407c-30 -25 -124 -129 -134 -273c-3 -45 -2 -98 99 -119c55 -5 74 4 114 39c35 30 35 30 35 5c-5 -45 20 -59 85 -54c35 0 60 9 55 49c-5 50 -8 149 -8 214c0 80 13 134 -12 149c-20 15 -60 15 -80 -5c-20 -15 -20 -19 -45 -89c-10 -35 -13 -112 -109 -199
c-10 -10 -29 56 50 204c45 89 84 124 134 129c30 5 35 20 10 25c-25 10 -40 10 -75 0c-30 -10 -94 -50 -119 -75zM106 625c-23 -33 -33 -55 -30 -62c0 -10 20 -16 49 -16c36 -3 49 4 62 26s47 78 54 81c0 0 26 -15 36 -25c32 -36 96 -81 118 -74c13 3 23 10 21 23
c-5 35 -79 99 -89 112c-13 20 -18 18 -18 28c3 13 0 31 -16 34c-13 10 -45 10 -61 7c-32 -13 -59 -38 -126 -134z" />
    <glyph glyph-name="atilde" unicode="&#xe3;" horiz-adv-x="473" 
d="M159 407c-30 -25 -124 -129 -134 -273c-3 -45 -2 -98 99 -119c55 -5 74 4 114 39c35 30 35 30 35 5c-5 -45 20 -59 85 -54c35 0 60 9 55 49c-5 50 -8 149 -8 214c0 80 13 134 -12 149c-20 15 -60 15 -80 -5c-20 -15 -20 -19 -45 -89c-10 -35 -13 -112 -109 -199
c-10 -10 -29 56 50 204c45 89 84 124 134 129c30 5 35 20 10 25c-25 10 -40 10 -75 0c-30 -10 -94 -50 -119 -75zM76 629c-28 -35 -35 -49 -21 -63c7 -14 50 -21 85 -14c21 7 28 14 35 42c0 14 7 28 14 28s14 -7 21 -21c21 -35 56 -49 112 -49c42 0 71 14 99 49
c21 28 21 56 0 70c-35 7 -64 4 -78 -17s-28 -28 -39 -15c-10 21 -17 32 -24 39c-21 14 -81 36 -126 14c-35 -14 -57 -28 -78 -63z" />
    <glyph glyph-name="adieresis" unicode="&#xe4;" horiz-adv-x="470" 
d="M159 407c-30 -25 -124 -129 -134 -273c-3 -45 -2 -98 99 -119c55 -5 74 4 114 39c35 30 35 30 35 5c-5 -45 20 -59 85 -54c35 0 60 9 55 49c-5 50 -8 149 -8 214c0 80 13 134 -12 149c-20 15 -60 15 -80 -5c-20 -15 -20 -19 -45 -89c-10 -35 -13 -112 -109 -199
c-10 -10 -29 56 50 204c45 89 84 124 134 129c30 5 35 20 10 25c-25 10 -40 10 -75 0c-30 -10 -94 -50 -119 -75zM78 616c-12 -52 7 -70 59 -70c35 0 59 12 65 24c6 6 17 75 0 87s-66 18 -89 6c-23 -6 -29 -12 -35 -47zM296 609c0 -35 1 -41 18 -47c17 -12 94 -12 106 0
c6 6 31 53 -6 93c-12 6 -83 12 -100 0c-17 -6 -18 -17 -18 -46z" />
    <glyph glyph-name="ccedilla" unicode="&#xe7;" horiz-adv-x="366" 
d="M152 21c-11 -16 -21 -44 -21 -62c0 -24 4 -29 37 -43c19 -9 23 -14 28 -23c5 -14 2 -35 -37 -42c-26 3 -34 -18 0 -38c38 -14 127 -24 136 71c0 33 -14 47 -47 61c-19 9 -24 9 -19 18c10 35 13 51 11 61c37 8 62 31 86 73c23 42 19 52 -13 64c-21 7 -40 -11 -68 -37
c-22 -20 -42 -12 -47 5c-16 39 -19 65 -16 140c4 107 12 132 40 163c17 10 35 7 46 -15c27 -12 59 -1 54 16c1 27 -70 65 -131 50c-38 -10 -78 -34 -106 -71c-18 -26 -29 -44 -42 -93c-14 -80 -11 -173 14 -228c21 -41 45 -64 95 -70z" />
    <glyph glyph-name="egrave" unicode="&#xe8;" horiz-adv-x="417" 
d="M78 446c-27 -24 -105 -248 5 -363c32 -38 70 -49 140 -49c54 0 109 35 109 74c0 43 -29 19 -55 5c-29 -3 -46 -4 -63 23c-21 32 -33 72 -38 126c0 44 13 42 40 53c87 27 121 86 77 140c-21 27 -64 71 -172 17c-17 -5 -38 -21 -43 -26zM237 406c0 -27 -10 -42 -42 -59
c-11 -5 -25 -4 -30 1c-5 17 0 75 5 86c11 27 45 32 62 11c5 -5 5 -22 5 -39zM22 664c-6 -13 38 -57 89 -76c57 -31 126 -44 186 -46c57 0 67 4 81 34c2 20 -48 26 -98 33c-51 13 -86 24 -124 55c-13 13 -27 17 -58 20c-68 6 -76 -20 -76 -20z" />
    <glyph glyph-name="eacute" unicode="&#xe9;" horiz-adv-x="400" 
d="M78 446c-27 -24 -105 -248 5 -363c32 -38 70 -49 140 -49c54 0 109 35 109 74c0 43 -29 19 -55 5c-29 -3 -46 -4 -63 23c-21 32 -33 72 -38 126c0 44 13 42 40 53c87 27 121 86 77 140c-21 27 -64 71 -172 17c-17 -5 -38 -21 -43 -26zM237 406c0 -27 -10 -42 -42 -59
c-11 -5 -25 -4 -30 1c-5 17 0 75 5 86c11 27 45 32 62 11c5 -5 5 -22 5 -39zM74 614c-76 -19 -83 -44 -32 -63c45 -13 151 20 246 65c82 45 83 76 -6 76c-45 0 -68 -9 -119 -34c-25 -13 -70 -31 -89 -44z" />
    <glyph glyph-name="ecircumflex" unicode="&#xea;" horiz-adv-x="401" 
d="M78 446c-27 -24 -105 -248 5 -363c32 -38 70 -49 140 -49c54 0 109 35 109 74c0 43 -29 19 -55 5c-29 -3 -46 -4 -63 23c-21 32 -33 72 -38 126c0 44 13 42 40 53c87 27 121 86 77 140c-21 27 -64 71 -172 17c-17 -5 -38 -21 -43 -26zM237 406c0 -27 -10 -42 -42 -59
c-11 -5 -25 -4 -30 1c-5 17 0 75 5 86c11 27 45 32 62 11c5 -5 5 -22 5 -39zM40 627c-23 -33 -33 -55 -30 -62c0 -10 20 -16 49 -16c36 -3 49 4 62 26s47 78 54 81c0 0 26 -15 36 -25c32 -36 96 -81 118 -74c13 3 23 10 21 23c-5 35 -79 99 -89 112c-13 20 -18 18 -18 28
c3 13 0 31 -16 34c-13 10 -45 10 -61 7c-32 -13 -59 -38 -126 -134z" />
    <glyph glyph-name="edieresis" unicode="&#xeb;" horiz-adv-x="419" 
d="M78 446c-27 -24 -105 -248 5 -363c32 -38 70 -49 140 -49c54 0 109 35 109 74c0 43 -29 19 -55 5c-29 -3 -46 -4 -63 23c-21 32 -33 72 -38 126c0 44 13 42 40 53c87 27 121 86 77 140c-21 27 -64 71 -172 17c-17 -5 -38 -21 -43 -26zM237 406c0 -27 -10 -42 -42 -59
c-11 -5 -25 -4 -30 1c-5 17 0 75 5 86c11 27 45 32 62 11c5 -5 5 -22 5 -39zM2 618c-12 -52 7 -70 59 -70c35 0 59 12 65 24c6 6 17 75 0 87s-66 18 -89 6c-23 -6 -29 -12 -35 -47zM220 611c0 -35 1 -41 18 -47c17 -12 94 -12 106 0c6 6 31 53 -6 93c-12 6 -83 12 -100 0
c-17 -6 -18 -17 -18 -46z" />
    <glyph glyph-name="ntilde" unicode="&#xf1;" horiz-adv-x="453" 
d="M34 473c-5 -5 -7 -109 -9 -227c-5 -264 8 -231 60 -238c49 7 87 11 87 96c0 47 -1 85 4 94c5 14 71 123 90 142c9 14 12 7 7 -69c0 -43 -24 -169 -11 -186c14 -19 76 -28 104 -14c28 9 28 18 23 127c0 114 -9 152 -28 185c-24 28 -66 38 -104 19c-24 -9 -57 -38 -71 -66
c-9 -19 -9 -19 -14 14c-9 80 -19 123 -38 128c-19 9 -57 13 -81 4c-9 0 -19 -4 -19 -9zM27 611c-28 -35 -35 -49 -21 -63c7 -14 50 -21 85 -14c21 7 28 14 35 42c0 14 7 28 14 28s14 -7 21 -21c21 -35 56 -49 112 -49c42 0 71 14 99 49c21 28 21 56 0 70
c-35 7 -64 4 -78 -17s-28 -28 -39 -15c-10 21 -17 32 -24 39c-21 14 -81 36 -126 14c-35 -14 -57 -28 -78 -63z" />
    <glyph glyph-name="ograve" unicode="&#xf2;" horiz-adv-x="447" 
d="M62 365c-21 -46 -29 -75 -29 -129s21 -121 100 -157c37 -12 120 -12 157 0c91 33 138 96 129 187c-4 58 -45 116 -99 141c-21 9 -29 12 -58 8c-37 0 -38 1 -34 13c12 16 25 28 46 37c25 12 29 19 8 28c-16 4 -63 0 -79 -4c-54 -16 -112 -70 -141 -124zM274 204
c-4 -21 -17 -48 -54 -67c-10 -5 -34 29 -46 58c-9 29 -7 50 5 108c4 29 20 83 24 83c0 0 17 -13 29 -29c50 -50 63 -95 42 -153zM50 665c-6 -13 38 -57 89 -76c57 -31 126 -44 186 -46c57 0 67 4 81 34c2 20 -48 26 -98 33c-51 13 -86 24 -124 55c-13 13 -27 17 -58 20
c-68 6 -76 -20 -76 -20z" />
    <glyph glyph-name="oacute" unicode="&#xf3;" horiz-adv-x="447" 
d="M62 365c-21 -46 -29 -75 -29 -129s21 -121 100 -157c37 -12 120 -12 157 0c91 33 138 96 129 187c-4 58 -45 116 -99 141c-21 9 -29 12 -58 8c-37 0 -38 1 -34 13c12 16 25 28 46 37c25 12 29 19 8 28c-16 4 -63 0 -79 -4c-54 -16 -112 -70 -141 -124zM274 204
c-4 -21 -17 -48 -54 -67c-10 -5 -34 29 -46 58c-9 29 -7 50 5 108c4 29 20 83 24 83c0 0 17 -13 29 -29c50 -50 63 -95 42 -153zM122 609c-76 -19 -83 -44 -32 -63c45 -13 151 20 246 65c82 45 83 76 -6 76c-45 0 -68 -9 -119 -34c-25 -13 -70 -31 -89 -44z" />
    <glyph glyph-name="ocircumflex" unicode="&#xf4;" horiz-adv-x="447" 
d="M62 365c-21 -46 -29 -75 -29 -129s21 -121 100 -157c37 -12 120 -12 157 0c91 33 138 96 129 187c-4 58 -45 116 -99 141c-21 9 -29 12 -58 8c-37 0 -38 1 -34 13c12 16 25 28 46 37c25 12 29 19 8 28c-16 4 -63 0 -79 -4c-54 -16 -112 -70 -141 -124zM274 204
c-4 -21 -17 -48 -54 -67c-10 -5 -34 29 -46 58c-9 29 -7 50 5 108c4 29 20 83 24 83c0 0 17 -13 29 -29c50 -50 63 -95 42 -153zM88 622c-23 -33 -33 -55 -30 -62c0 -10 20 -16 49 -16c36 -3 49 4 62 26s47 78 54 81c0 0 26 -15 36 -25c32 -36 96 -81 118 -74
c13 3 23 10 21 23c-5 35 -79 99 -89 112c-13 20 -18 18 -18 28c3 13 0 31 -16 34c-13 10 -45 10 -61 7c-32 -13 -59 -38 -126 -134z" />
    <glyph glyph-name="otilde" unicode="&#xf5;" horiz-adv-x="449" 
d="M62 365c-21 -46 -29 -75 -29 -129s21 -121 100 -157c37 -12 120 -12 157 0c91 33 138 96 129 187c-4 58 -45 116 -99 141c-21 9 -29 12 -58 8c-37 0 -38 1 -34 13c12 16 25 28 46 37c25 12 29 19 8 28c-16 4 -63 0 -79 -4c-54 -16 -112 -70 -141 -124zM274 204
c-4 -21 -17 -48 -54 -67c-10 -5 -34 29 -46 58c-9 29 -7 50 5 108c4 29 20 83 24 83c0 0 17 -13 29 -29c50 -50 63 -95 42 -153zM61 623c-28 -35 -35 -49 -21 -63c7 -14 50 -21 85 -14c21 7 28 14 35 42c0 14 7 28 14 28s14 -7 21 -21c21 -35 56 -49 112 -49
c42 0 71 14 99 49c21 28 21 56 0 70c-35 7 -64 4 -78 -17s-28 -28 -39 -15c-10 21 -17 32 -24 39c-21 14 -81 36 -126 14c-35 -14 -57 -28 -78 -63z" />
    <glyph glyph-name="odieresis" unicode="&#xf6;" horiz-adv-x="447" 
d="M62 365c-21 -46 -29 -75 -29 -129s21 -121 100 -157c37 -12 120 -12 157 0c91 33 138 96 129 187c-4 58 -45 116 -99 141c-21 9 -29 12 -58 8c-37 0 -38 1 -34 13c12 16 25 28 46 37c25 12 29 19 8 28c-16 4 -63 0 -79 -4c-54 -16 -112 -70 -141 -124zM274 204
c-4 -21 -17 -48 -54 -67c-10 -5 -34 29 -46 58c-9 29 -7 50 5 108c4 29 20 83 24 83c0 0 17 -13 29 -29c50 -50 63 -95 42 -153zM50 613c-12 -52 7 -70 59 -70c35 0 59 12 65 24c6 6 17 75 0 87s-66 18 -89 6c-23 -6 -29 -12 -35 -47zM268 606c0 -35 1 -41 18 -47
c17 -12 94 -12 106 0c6 6 31 53 -6 93c-12 6 -83 12 -100 0c-17 -6 -18 -17 -18 -46z" />
    <glyph glyph-name="ugrave" unicode="&#xf9;" 
d="M251 443c-5 -33 -19 -108 -33 -188c-14 -56 -31 -126 -45 -145c-24 -5 -36 20 -41 39c-5 41 -7 38 -2 122c5 52 18 136 18 145c-5 37 -38 52 -71 33c-9 -9 -38 -33 -51 -208c-6 -75 10 -209 127 -201c70 -5 123 34 144 90c33 110 20 18 29 -29c9 -70 14 -80 28 -89
c33 -14 66 -5 71 18c0 5 0 29 -5 52c-19 94 -24 290 -19 351c5 28 0 42 -23 47c-23 9 -80 9 -99 0c-23 -5 -23 -9 -28 -37zM48 659c-6 -13 38 -57 89 -76c57 -31 126 -44 186 -46c57 0 67 4 81 34c2 20 -48 26 -98 33c-51 13 -86 24 -124 55c-13 13 -27 17 -58 20
c-68 6 -76 -20 -76 -20z" />
    <glyph glyph-name="uacute" unicode="&#xfa;" 
d="M251 443c-5 -33 -19 -108 -33 -188c-14 -56 -31 -126 -45 -145c-24 -5 -36 20 -41 39c-5 41 -7 38 -2 122c5 52 18 136 18 145c-5 37 -38 52 -71 33c-9 -9 -38 -33 -51 -208c-6 -75 10 -209 127 -201c70 -5 123 34 144 90c33 110 20 18 29 -29c9 -70 14 -80 28 -89
c33 -14 66 -5 71 18c0 5 0 29 -5 52c-19 94 -24 290 -19 351c5 28 0 42 -23 47c-23 9 -80 9 -99 0c-23 -5 -23 -9 -28 -37zM120 603c-76 -19 -83 -44 -32 -63c45 -13 151 20 246 65c82 45 83 76 -6 76c-45 0 -68 -9 -119 -34c-25 -13 -70 -31 -89 -44z" />
    <glyph glyph-name="ucircumflex" unicode="&#xfb;" 
d="M251 443c-5 -33 -19 -108 -33 -188c-14 -56 -31 -126 -45 -145c-24 -5 -36 20 -41 39c-5 41 -7 38 -2 122c5 52 18 136 18 145c-5 37 -38 52 -71 33c-9 -9 -38 -33 -51 -208c-6 -75 10 -209 127 -201c70 -5 123 34 144 90c33 110 20 18 29 -29c9 -70 14 -80 28 -89
c33 -14 66 -5 71 18c0 5 0 29 -5 52c-19 94 -24 290 -19 351c5 28 0 42 -23 47c-23 9 -80 9 -99 0c-23 -5 -23 -9 -28 -37zM86 616c-23 -33 -33 -55 -30 -62c0 -10 20 -16 49 -16c36 -3 49 4 62 26s47 78 54 81c0 0 26 -15 36 -25c32 -36 96 -81 118 -74c13 3 23 10 21 23
c-5 35 -79 99 -89 112c-13 20 -18 18 -18 28c3 13 0 31 -16 34c-13 10 -45 10 -61 7c-32 -13 -59 -38 -126 -134z" />
    <glyph glyph-name="udieresis" unicode="&#xfc;" 
d="M251 443c-5 -33 -19 -108 -33 -188c-14 -56 -31 -126 -45 -145c-24 -5 -36 20 -41 39c-5 41 -7 38 -2 122c5 52 18 136 18 145c-5 37 -38 52 -71 33c-9 -9 -38 -33 -51 -208c-6 -75 10 -209 127 -201c70 -5 123 34 144 90c33 110 20 18 29 -29c9 -70 14 -80 28 -89
c33 -14 66 -5 71 18c0 5 0 29 -5 52c-19 94 -24 290 -19 351c5 28 0 42 -23 47c-23 9 -80 9 -99 0c-23 -5 -23 -9 -28 -37zM48 607c-12 -52 7 -70 59 -70c35 0 59 12 65 24c6 6 17 75 0 87s-66 18 -89 6c-23 -6 -29 -12 -35 -47zM266 600c0 -35 1 -41 18 -47
c17 -12 94 -12 106 0c6 6 31 53 -6 93c-12 6 -83 12 -100 0c-17 -6 -18 -17 -18 -46z" />
    <glyph glyph-name="yacute" unicode="&#xfd;" horiz-adv-x="404" 
d="M247 404c-7 -59 -1 -90 -30 -112c-44 -44 -101 22 -94 103c7 44 -7 73 -29 73c-15 0 -37 -22 -44 -73c0 -51 3 -171 69 -192c22 -15 74 -15 103 0c22 7 17 47 17 -26c0 -152 -39 -271 -54 -308c-7 -7 -22 -29 -37 -44c-29 -22 -29 -21 -14 -36c44 -37 146 -7 190 44
c22 29 32 73 54 161c22 146 22 388 -7 461c-7 37 -51 51 -88 36c-29 -15 -36 -28 -36 -87zM117 613c-76 -19 -83 -44 -32 -63c45 -13 151 20 246 65c82 45 83 76 -6 76c-45 0 -68 -9 -119 -34c-25 -13 -70 -31 -89 -44z" />
    <glyph glyph-name="Ydieresis" unicode="&#xff;" horiz-adv-x="422" 
d="M247 404c-7 -59 -1 -90 -30 -112c-44 -44 -101 22 -94 103c7 44 -7 73 -29 73c-15 0 -37 -22 -44 -73c0 -51 3 -171 69 -192c22 -15 74 -15 103 0c22 7 17 47 17 -26c0 -152 -39 -271 -54 -308c-7 -7 -22 -29 -37 -44c-29 -22 -29 -21 -14 -36c44 -37 146 -7 190 44
c22 29 32 73 54 161c22 146 22 388 -7 461c-7 37 -51 51 -88 36c-29 -15 -36 -28 -36 -87zM35 619c-12 -52 7 -70 59 -70c35 0 59 12 65 24c6 6 17 75 0 87s-66 18 -89 6c-23 -6 -29 -12 -35 -47zM253 612c0 -35 1 -41 18 -47c17 -12 94 -12 106 0c6 6 31 53 -6 93
c-12 6 -83 12 -100 0c-17 -6 -18 -17 -18 -46z" />
    <glyph glyph-name="Aring" unicode="&#xc5;" horiz-adv-x="477" 
d="M116 916c0 -7 -7 -21 -21 -35c-28 -28 -35 -70 -21 -91c14 -35 49 -43 112 -43c70 -7 106 15 127 64c28 56 13 98 -43 119c-28 14 -126 14 -140 0c-14 -7 -14 -14 -14 -14zM214 818c-7 -21 -28 -35 -42 -28c-7 7 -7 49 7 70s28 21 35 -7v-35zM140 695
c-4 -4 -33 -123 -43 -156c-29 -123 -66 -487 -62 -544c4 -43 29 -56 95 -52c57 4 66 24 80 161c4 47 10 103 14 127c4 33 5 33 29 43c14 4 23 5 23 5s5 11 49 -147c23 -82 31 -85 74 -85c29 0 53 4 53 14c0 4 -10 32 -20 61c-52 156 -60 175 -56 185c0 4 5 9 19 19
c29 14 16 41 -19 33c-10 0 -18 6 -18 10c0 0 -11 38 -25 85c-29 132 -37 170 -51 184c0 4 -6 19 -10 33c0 24 -1 30 -15 34c-19 10 -80 15 -99 5c-10 -4 -18 -11 -18 -15zM265 348c0 -5 0 -12 -12 -12c-17 -5 -22 -12 -22 0c0 23 -5 81 5 125c0 0 29 -108 29 -113z" />
    <glyph glyph-name="aring" unicode="&#xe5;" horiz-adv-x="450" 
d="M166 715c0 -7 -7 -21 -21 -35c-28 -28 -35 -70 -21 -91c14 -35 49 -43 112 -43c70 -7 106 15 127 64c28 56 13 98 -43 119c-28 14 -126 14 -140 0c-14 -7 -14 -14 -14 -14zM264 617c-7 -21 -28 -35 -42 -28c-7 7 -7 49 7 70s28 21 35 -7v-35zM159 407
c-30 -25 -124 -129 -134 -273c-3 -45 -2 -98 99 -119c55 -5 74 4 114 39c35 30 35 30 35 5c-5 -45 20 -59 85 -54c35 0 60 9 55 49c-5 50 -8 149 -8 214c0 80 13 134 -12 149c-20 15 -60 15 -80 -5c-20 -15 -20 -19 -45 -89c-10 -35 -13 -112 -109 -199
c-10 -10 -29 56 50 204c45 89 84 124 134 129c30 5 35 20 10 25c-25 10 -40 10 -75 0c-30 -10 -94 -50 -119 -75z" />
    <glyph glyph-name="ae" unicode="&#xe6;" horiz-adv-x="713" 
d="M410 101l18 -23c32 -38 70 -49 140 -49c54 0 109 35 109 74c0 43 -29 19 -55 5c-29 -3 -46 -4 -63 23c-21 32 -33 72 -38 126c0 44 13 42 40 53c87 27 121 86 77 140c-21 27 -64 71 -172 17c-17 -5 -42 -27 -73 -50c-20 15 -60 15 -80 -5c-20 -15 -20 -19 -45 -89
c-10 -35 -13 -112 -109 -199c-10 -10 -29 56 50 204c45 89 84 124 134 129c30 5 35 20 10 25c-25 10 -40 10 -75 0c-30 -10 -94 -50 -119 -75c-30 -25 -124 -129 -134 -273c-3 -45 -2 -98 99 -119c55 -5 74 4 114 39c35 30 35 30 35 5c-5 -45 20 -59 85 -54c35 0 60 9 55 49
c-1 13 -2 29 -3 47zM582 401c0 -27 -10 -42 -42 -59c-11 -5 -25 -4 -30 1c-5 17 0 75 5 86c11 27 45 32 62 11c5 -5 5 -22 5 -39z" />
    <glyph glyph-name="igrave" unicode="&#xec;" horiz-adv-x="238" 
d="M-29 380c-16 -164 -10 -297 8 -335c12 -33 37 -76 120 -32c9 13 9 17 6 110c-4 59 -5 122 -3 145c3 146 1 196 -26 216c-11 11 -52 10 -70 -4c-14 -7 -32 -12 -35 -100zM-124 676c-6 -13 38 -57 89 -76c57 -31 126 -44 186 -46c57 0 67 4 81 34c2 20 -48 26 -98 33
c-51 13 -86 24 -124 55c-13 13 -27 17 -58 20c-68 6 -76 -20 -76 -20z" />
    <glyph glyph-name="iacute" unicode="&#xed;" horiz-adv-x="226" 
d="M-42 380c-16 -164 -10 -297 8 -335c12 -33 37 -76 120 -32c9 13 9 17 6 110c-4 59 -5 122 -3 145c3 146 1 196 -26 216c-11 11 -52 10 -70 -4c-14 -7 -32 -12 -35 -100zM-78 587c-76 -19 -83 -44 -32 -63c45 -13 151 20 246 65c82 45 83 76 -6 76c-45 0 -68 -9 -119 -34
c-25 -13 -70 -31 -89 -44z" />
    <glyph glyph-name="icircumflex" unicode="&#xee;" horiz-adv-x="240" 
d="M-27 380c-16 -164 -10 -297 8 -335c12 -33 37 -76 120 -32c9 13 9 17 6 110c-4 59 -5 122 -3 145c3 146 1 196 -26 216c-11 11 -52 10 -70 -4c-14 -7 -32 -12 -35 -100zM-101 610c-23 -33 -33 -55 -30 -62c0 -10 20 -16 49 -16c36 -3 49 4 62 26s47 78 54 81
c0 0 26 -15 36 -25c32 -36 96 -81 118 -74c13 3 23 10 21 23c-5 35 -79 99 -89 112c-13 20 -18 18 -18 28c3 13 0 31 -16 34c-13 10 -45 10 -61 7c-32 -13 -59 -38 -126 -134z" />
    <glyph glyph-name="idieresis" unicode="&#xef;" horiz-adv-x="258" 
d="M-22 380c-16 -164 -10 -297 8 -335c12 -33 37 -76 120 -32c9 13 9 17 6 110c-4 59 -5 122 -3 145c3 146 1 196 -26 216c-11 11 -52 10 -70 -4c-14 -7 -32 -12 -35 -100zM-130 606c-12 -52 7 -70 59 -70c35 0 59 12 65 24c6 6 17 75 0 87s-66 18 -89 6
c-23 -6 -29 -12 -35 -47zM88 599c0 -35 1 -41 18 -47c17 -12 94 -12 106 0c6 6 31 53 -6 93c-12 6 -83 12 -100 0c-17 -6 -18 -17 -18 -46z" />
    <glyph glyph-name="AE" unicode="&#xc6;" horiz-adv-x="733" 
d="M265 348c0 -5 0 -12 -12 -12c-17 -5 -22 -12 -22 0c0 23 -5 81 5 125c0 0 29 -108 29 -113zM368 50c19 -22 56 -47 121 -48c74 -1 124 3 166 34c27 18 23 33 -1 50c-10 6 -96 10 -112 10s-10 5 -17 41c-3 25 -21 143 -15 264c0 59 1 59 31 61c31 7 95 26 101 36
c0 5 7 10 2 15c-4 15 -29 22 -78 21c-49 4 -48 5 -52 20c-5 55 -1 99 -1 104c5 0 46 1 90 -3c84 -3 103 0 105 20c1 15 -8 21 -67 26c-30 3 -78 7 -113 5c-54 5 -149 -6 -170 -14c-16 -9 -23 -38 -36 -185v-2c-20 92 -28 121 -40 133c0 4 -6 19 -10 33c0 24 -1 30 -15 34
c-19 10 -80 15 -99 5c-10 -4 -18 -11 -18 -15c-4 -4 -33 -123 -43 -156c-29 -123 -66 -487 -62 -544c4 -43 29 -56 95 -52c57 4 66 24 80 161c4 47 10 103 14 127c4 33 5 33 29 43c14 4 23 5 23 5s5 11 49 -147c16 -57 25 -76 43 -82z" />
    <glyph glyph-name="OE" unicode="&#x152;" horiz-adv-x="801" 
d="M392 597c-45 79 -107 108 -184 96c-4 0 -13 -5 -22 -5c-17 -4 -58 -33 -75 -55c-26 -39 -44 -53 -57 -123c-35 -126 -33 -236 -7 -327c17 -57 49 -211 235 -174c52 10 93 29 125 83c2 -6 4 -11 6 -16c4 -15 36 -75 137 -76c74 -1 124 3 166 34c27 18 23 33 -1 50
c-10 6 -96 10 -112 10s-10 5 -17 41c-3 25 -21 143 -15 264c0 59 1 59 31 61c31 7 95 26 101 36c0 5 7 10 2 15c-4 15 -29 22 -78 21c-49 4 -48 5 -52 20c-5 55 -1 99 -1 104c5 0 46 1 90 -3c84 -3 103 0 105 20c1 15 -8 21 -67 26c-30 3 -78 7 -113 5
c-54 5 -149 -6 -170 -14c-12 -6 -19 -24 -27 -93zM290 500c17 -70 21 -79 21 -166s5 -183 -64 -247c-42 4 -92 222 -61 384c4 26 13 112 55 118c13 -22 36 -54 49 -89z" />
    <glyph glyph-name="oe" unicode="&#x153;" horiz-adv-x="653" 
d="M531 423c0 -27 -10 -42 -42 -59c-11 -5 -25 -4 -30 1c-5 17 0 75 5 86c11 27 45 32 62 11c5 -5 5 -22 5 -39zM341 396c-7 4 -14 8 -21 11c-21 9 -29 12 -58 8c-37 0 -38 1 -34 13c12 16 25 28 46 37c25 12 29 19 8 28c-16 4 -63 0 -79 -4c-54 -16 -112 -70 -141 -124
c-21 -46 -29 -75 -29 -129s21 -121 100 -157c37 -12 120 -12 157 0c28 10 52 24 72 40c5 -6 10 -13 15 -19c32 -38 70 -49 140 -49c54 0 109 35 109 74c0 43 -29 19 -55 5c-29 -3 -46 -4 -63 23c-21 32 -33 72 -38 126c0 44 13 42 40 53c87 27 121 86 77 140
c-21 27 -64 71 -172 17c-17 -5 -38 -21 -43 -26c-8 -7 -21 -32 -31 -67zM274 204c-4 -21 -17 -48 -54 -67c-10 -5 -34 29 -46 58c-9 29 -7 50 5 108c4 29 20 83 24 83c0 0 17 -13 29 -29c50 -50 63 -95 42 -153z" />
    <glyph glyph-name="endash" unicode="&#x2013;" horiz-adv-x="438" 
d="M150 270c-88 -9 -112 -13 -118 -22c-10 -9 -7 -22 9 -31c26 -9 124 -9 191 0c36 5 77 9 98 9c77 0 103 35 36 49c-21 5 -128 9 -134 4c0 0 -36 -4 -82 -9z" />
    <glyph glyph-name="emdash" unicode="&#x2014;" horiz-adv-x="512" 
d="M186 274c-105 -10 -133 -14 -141 -24c-12 -10 -9 -24 11 -34c31 -10 148 -10 228 0c43 5 91 10 116 10c92 0 124 39 44 54c-25 5 -152 9 -160 4c0 0 -43 -5 -98 -10z" />
    <glyph glyph-name="oslash" unicode="&#xf8;" horiz-adv-x="500" 
d="M315 447c-7 -11 -8 -11 -30 -4c-26 7 -93 7 -119 0c-52 -19 -136 -50 -142 -238c7 -41 19 -71 41 -101c5 -36 -39 -63 -41 -78c-3 -19 49 -26 75 -15c7 0 19 11 30 22c19 19 19 18 41 11c30 -7 108 -7 138 0c45 11 150 29 156 179c1 34 -1 81 -74 153
c-19 22 -19 22 -8 41c7 11 31 41 19 67c-4 9 -34 7 -45 0c-11 -4 -34 -22 -41 -37zM222 298c-11 -19 -38 -68 -56 -92c-11 -19 -12 1 -16 31c0 41 8 102 83 165c4 3 8 -7 15 -11c19 -15 19 -18 -26 -93zM323 223c0 -41 -12 -63 -34 -89c-15 -19 -45 -34 -52 -38
c-4 0 -12 8 -19 15c-15 15 -15 15 11 56c34 52 49 75 64 101c7 7 11 15 11 15s4 -4 11 -15c4 -11 8 -23 8 -45z" />
    <glyph glyph-name="Oslash" unicode="&#xd8;" horiz-adv-x="566" 
d="M94 529c-40 -131 -46 -234 -23 -319c6 -23 11 -45 11 -51s-57 -86 -62 -125c-2 -17 6 -22 40 -22c23 6 44 20 62 45c6 6 11 6 34 -11c34 -28 74 -46 136 -40c91 0 126 28 171 159c17 45 23 239 6 307c-23 68 -23 68 5 108c40 57 57 91 51 102c-11 17 -33 22 -56 11
c-17 0 -33 -18 -52 -51c-11 -6 -11 -6 -34 17c-34 40 -51 52 -113 46c-28 0 -57 0 -63 -6c-40 -11 -85 -85 -113 -170zM304 523c11 -34 33 -12 -46 -114c-51 -80 -51 -79 -51 -45c-6 28 6 80 23 165c11 45 28 96 28 90c0 0 11 -11 17 -34c11 -17 23 -45 29 -62zM287 97
c-6 -17 -6 -17 -23 6c-6 11 -22 39 -28 56c-11 34 -11 35 17 86c17 23 45 62 56 79c11 23 23 34 29 34v-28c0 -74 -17 -176 -51 -233z" />
    <glyph glyph-name="heart1" unicode="&#xe014;" horiz-adv-x="545" 
d="M41 532c-7 -36 -7 -64 4 -104c11 -54 33 -105 102 -247c25 -50 25 -50 43 -57c11 -7 25 -14 29 -18c7 -7 65 -26 98 29c15 18 156 192 174 228c30 35 90 202 -47 210c-21 1 -65 -11 -94 -26c-21 -7 -22 -7 -33 4c-25 40 -65 121 -192 87c-44 -12 -69 -45 -84 -106z
M263 507c15 -29 15 -29 36 -29c18 0 21 4 39 15c29 21 73 36 98 29c11 -4 23 -22 19 -40c0 -25 -23 -93 -44 -126c-7 -11 -91 -125 -109 -146s-18 -21 -58 62c-25 47 -78 160 -86 243c-3 33 10 79 21 79c0 0 8 -3 15 -7c21 -11 54 -47 69 -80z" />
    <glyph glyph-name="heart2" unicode="&#xe015;" horiz-adv-x="569" 
d="M260 604c-5 -8 -8 -12 -13 -12c0 0 -9 3 -22 16c-33 30 -97 43 -135 26c-38 -21 -59 -80 -46 -140c13 -101 45 -199 105 -305c17 -33 68 -101 85 -118c25 -30 59 -39 80 -26c13 8 13 22 -4 55c-8 17 -12 29 -12 34c0 0 8 0 16 5c21 5 39 16 77 59
c101 123 131 177 156 275c13 63 4 154 -21 187c-21 25 -61 61 -148 33c-38 -13 -88 -51 -118 -89zM403 502c-5 -33 -24 -174 -136 -265c-13 -21 -21 -27 -29 -14c-17 17 -59 64 -114 241c-13 60 -4 114 21 119c13 5 33 0 50 -13c25 -17 31 -21 26 -38c-5 -8 -8 -20 -8 -33
c-5 -17 0 -18 8 -26c13 -8 59 -8 72 0c5 5 16 16 21 29c21 38 51 81 72 102c17 13 17 13 22 0c0 -8 0 -89 -5 -102z" />
    <glyph glyph-name="star1" unicode="&#xe016;" horiz-adv-x="665" 
d="M244 590c-8 -22 -19 -66 -27 -106c-5 -49 -3 -48 -21 -53s-116 -37 -129 -45c-5 0 -9 -3 -9 -8c-13 -26 53 -93 115 -115c13 -5 13 -8 13 -13c-8 -22 -31 -111 -39 -142c-5 -49 -5 -49 39 -54c31 -5 71 0 173 102c13 13 13 13 44 0c89 -36 151 -44 204 -26
c13 5 15 22 5 57c-19 78 -63 147 -63 147c0 5 90 101 98 123c8 13 13 14 0 27c-18 13 -35 27 -53 22c-13 0 -102 -13 -133 -18c-8 -5 -14 0 -22 18c-13 31 -58 106 -80 137c-8 13 -13 31 -13 36c0 26 -31 35 -53 17c-18 -13 -31 -48 -49 -106zM390 449c13 -8 53 -13 97 -5
c71 18 81 16 76 8c-36 -44 -94 -94 -98 -132c-1 -13 19 -70 32 -106c8 -26 8 -30 -5 -22c-31 13 -84 26 -110 31c-40 0 -47 9 -48 -18c0 -7 -7 -21 -15 -26s-39 -23 -62 -37c-3 19 5 14 9 45c5 75 10 67 -83 151c-22 18 -22 19 0 27c13 5 118 39 123 44s9 14 9 40
c0 36 12 102 17 97c0 0 15 -18 23 -44c13 -22 30 -48 35 -53z" />
    <glyph glyph-name="star2" unicode="&#xe017;" horiz-adv-x="657" 
d="M200 466c0 -5 -148 -19 -167 -24c-9 -5 -13 -23 -4 -38s114 -100 119 -105c9 -15 8 -14 -20 -147c-5 -28 -9 -62 -9 -71c0 -15 19 -24 52 -24c33 -5 73 30 97 63c19 28 50 60 55 60c0 -5 19 -8 34 -23c76 -47 132 -66 170 -57c24 9 33 19 24 28c-17 44 -18 57 -37 95
c-47 95 -48 81 9 124c81 57 104 95 109 100c9 9 11 15 -4 24s-25 9 -120 9c-99 0 -99 0 -104 19c-9 28 -62 105 -62 110c-15 38 -48 51 -67 32c-15 -19 -66 -132 -75 -175z" />
    <glyph glyph-name="aster2" unicode="&#xe018;" horiz-adv-x="429" 
d="M101 500c-7 -11 4 -62 25 -127l14 -50c0 -4 -54 -14 -68 -18c-33 -7 -40 -11 -40 -22c4 -7 4 -10 18 -14s33 -16 102 0c11 4 9 3 -5 -15c-4 -7 -73 -74 -82 -116c-2 -7 -1 -14 3 -14c14 -7 44 -7 58 0s56 58 72 68c6 -15 11 -22 22 -43c29 -58 36 -61 83 -65
c44 0 62 15 58 36c-11 52 -69 167 -69 167c0 4 7 7 18 7c84 7 98 11 98 25c4 7 0 11 -11 15c-11 7 -18 7 -65 3c-58 -4 -58 -7 -18 58c18 33 36 69 36 83c0 7 0 11 -11 15c-29 7 -54 -15 -83 -66c-4 -11 -11 -17 -11 -21c-4 0 -28 88 -54 105c-18 7 -53 30 -90 -11z" />
    <glyph glyph-name="wh1" unicode="&#xe00b;" horiz-adv-x="360" 
d="M94 489c8 -4 128 -56 156 -68c77 -36 128 -41 104 -9c-12 16 -44 37 -112 73c-101 48 -132 56 -168 44c-28 -8 -20 -28 20 -40zM33 332c0 -20 28 -24 169 -16c77 4 100 12 104 24c8 20 -25 28 -117 24c-36 0 -84 0 -100 -4c-40 -4 -60 -16 -56 -28zM178 228
c-4 -4 -105 -45 -113 -53c-16 -12 -12 -23 4 -31c28 -12 77 -9 129 11c97 40 116 48 136 64c36 36 -31 52 -108 24c-20 -8 -40 -15 -48 -15z" />
    <glyph glyph-name="fl1" unicode="&#xe0121;" horiz-adv-x="782" 
d="M54 219c7 -115 85 -180 177 -168c91 11 267 129 359 155c33 4 94 9 110 -36c-4 -41 20 -61 53 -61c20 0 53 50 4 93c-45 41 -130 65 -191 49c-37 -8 -94 -32 -147 -65c-118 -69 -143 -66 -171 -70c-33 -4 -112 37 -93 139c8 16 33 -3 53 -36c12 -24 21 -29 45 -29
c73 0 32 88 -5 117c-56 46 -199 41 -194 -88z" />
    <glyph glyph-name="fl1" unicode="&#xe021;" horiz-adv-x="782" 
d="M54 219c7 -115 85 -180 177 -168c91 11 267 129 359 155c33 4 94 9 110 -36c-4 -41 20 -61 53 -61c20 0 53 50 4 93c-45 41 -130 65 -191 49c-37 -8 -94 -32 -147 -65c-118 -69 -143 -66 -171 -70c-33 -4 -112 37 -93 139c8 16 33 -3 53 -36c12 -24 21 -29 45 -29
c73 0 32 88 -5 117c-56 46 -199 41 -194 -88z" />
    <glyph glyph-name="fl1" unicode="&#xe00c;" horiz-adv-x="782" 
d="M54 219c7 -115 85 -180 177 -168c91 11 267 129 359 155c33 4 94 9 110 -36c-4 -41 20 -61 53 -61c20 0 53 50 4 93c-45 41 -130 65 -191 49c-37 -8 -94 -32 -147 -65c-118 -69 -143 -66 -171 -70c-33 -4 -112 37 -93 139c8 16 33 -3 53 -36c12 -24 21 -29 45 -29
c73 0 32 88 -5 117c-56 46 -199 41 -194 -88z" />
    <glyph glyph-name="fl2" unicode="&#xe022;" horiz-adv-x="797" 
d="M546 224c-6 -24 15 -36 52 -32c20 0 33 8 45 32c8 20 29 41 37 41s12 -3 12 -36c0 -28 -3 -163 -163 -98c-8 4 -165 86 -179 98c-49 43 -229 71 -284 -53c-8 -24 -8 -49 4 -57c33 -28 81 8 77 53c0 20 0 20 12 28c12 4 85 36 171 -24c94 -65 150 -94 199 -110
c28 -4 113 -31 167 8c45 20 126 104 81 203c-29 60 -198 89 -231 -53z" />
    <glyph glyph-name="fl2" unicode="&#xe00d;" horiz-adv-x="797" 
d="M546 224c-6 -24 15 -36 52 -32c20 0 33 8 45 32c8 20 29 41 37 41s12 -3 12 -36c0 -28 -3 -163 -163 -98c-8 4 -165 86 -179 98c-49 43 -229 71 -284 -53c-8 -24 -8 -49 4 -57c33 -28 81 8 77 53c0 20 0 20 12 28c12 4 85 36 171 -24c94 -65 150 -94 199 -110
c28 -4 113 -31 167 8c45 20 126 104 81 203c-29 60 -198 89 -231 -53z" />
    <glyph glyph-name="sw1" unicode="&#xe023;" horiz-adv-x="605" 
d="M413 202c-21 -32 -18 -56 8 -71c15 -7 33 -7 48 0c15 4 22 21 26 52c4 11 4 12 15 -3s11 -22 11 -41c0 -26 -36 -67 -97 -52c-35 9 -141 109 -205 126c-22 11 -93 11 -123 0c-45 -19 -87 -72 -37 -156c37 -30 134 -22 160 15c4 7 17 30 4 63c-11 4 -18 4 -33 4
c-37 0 -42 -4 -38 -34c4 -26 0 -34 -11 -30c-11 0 -53 35 -18 94c11 11 63 37 227 -97c78 -37 179 -30 224 15c26 26 25 85 3 119c-19 26 -110 79 -164 -4z" />
    <glyph glyph-name="sw1" unicode="&#xe00e;" horiz-adv-x="605" 
d="M413 202c-21 -32 -18 -56 8 -71c15 -7 33 -7 48 0c15 4 22 21 26 52c4 11 4 12 15 -3s11 -22 11 -41c0 -26 -36 -67 -97 -52c-35 9 -141 109 -205 126c-22 11 -93 11 -123 0c-45 -19 -87 -72 -37 -156c37 -30 134 -22 160 15c4 7 17 30 4 63c-11 4 -18 4 -33 4
c-37 0 -42 -4 -38 -34c4 -26 0 -34 -11 -30c-11 0 -53 35 -18 94c11 11 63 37 227 -97c78 -37 179 -30 224 15c26 26 25 85 3 119c-19 26 -110 79 -164 -4z" />
    <glyph glyph-name="sw2" unicode="&#xe024;" horiz-adv-x="605" 
d="M53 204c-15 -19 -31 -125 67 -149c26 -7 111 -45 242 67c48 34 86 59 97 63c26 7 53 -11 64 -37c7 -15 12 -67 -34 -75c-11 -2 -11 5 -7 27c0 37 -4 41 -38 41s-37 -4 -37 -34c-4 -26 11 -71 97 -67c34 2 94 18 89 101c5 63 -77 154 -208 59c-22 -15 -100 -96 -205 -119
c-41 -4 -96 39 -56 104c5 8 7 7 11 0c4 -4 7 -37 7 -41c7 -15 45 -22 71 -11c30 11 26 56 -11 90c-11 11 -84 51 -149 -19z" />
    <glyph glyph-name="sw2" unicode="&#xe00f;" horiz-adv-x="605" 
d="M53 204c-15 -19 -31 -125 67 -149c26 -7 111 -45 242 67c48 34 86 59 97 63c26 7 53 -11 64 -37c7 -15 12 -67 -34 -75c-11 -2 -11 5 -7 27c0 37 -4 41 -38 41s-37 -4 -37 -34c-4 -26 11 -71 97 -67c34 2 94 18 89 101c5 63 -77 154 -208 59c-22 -15 -100 -96 -205 -119
c-41 -4 -96 39 -56 104c5 8 7 7 11 0c4 -4 7 -37 7 -41c7 -15 45 -22 71 -11c30 11 26 56 -11 90c-11 11 -84 51 -149 -19z" />
    <glyph glyph-name="wh2" unicode="&#xe00a;" horiz-adv-x="387" 
d="M178 482c-77 -40 -100 -52 -116 -68c-44 -40 8 -43 88 -7c12 4 153 68 165 72c16 4 32 19 32 27c0 12 -40 25 -72 17c-16 -4 -57 -21 -97 -41zM114 318c12 -8 133 -16 201 -16c57 0 80 20 44 40c-28 12 -194 20 -238 8c-28 -4 -35 -24 -7 -32zM66 222
c8 -16 31 -33 88 -57c80 -32 109 -36 141 -40c60 0 72 29 28 53c-24 12 -105 43 -145 55c-52 16 -96 21 -112 9c-8 -8 -8 -12 0 -20z" />
    <glyph glyph-name="caron" unicode="&#x30c;" horiz-adv-x="357" 
d="M316 639c23 33 33 55 30 62c0 10 -20 16 -49 16c-36 3 -49 -4 -62 -26s-47 -78 -54 -81c0 0 -26 15 -36 25c-32 36 -96 81 -118 74c-13 -3 -23 -10 -21 -23c5 -35 79 -99 89 -112c13 -20 18 -18 18 -28c-3 -13 0 -31 16 -34c13 -10 45 -10 61 -7c32 13 59 38 126 134z
" />
    <glyph glyph-name="caron" unicode="&#x2c7;" horiz-adv-x="357" 
d="M316 639c23 33 33 55 30 62c0 10 -20 16 -49 16c-36 3 -49 -4 -62 -26s-47 -78 -54 -81c0 0 -26 15 -36 25c-32 36 -96 81 -118 74c-13 -3 -23 -10 -21 -23c5 -35 79 -99 89 -112c13 -20 18 -18 18 -28c-3 -13 0 -31 16 -34c13 -10 45 -10 61 -7c32 13 59 38 126 134z
" />
    <glyph glyph-name="horncmb" unicode="&#x31b;" horiz-adv-x="168" 
d="M11 670c-9 -36 -5 -62 13 -70c-1 -11 31 -6 31 -11c0 -17 -14 -51 -35 -79c-8 -17 0 -24 30 -24s109 23 104 139c-2 43 -3 36 -22 61c-42 23 -82 36 -121 -16z" />
    <glyph glyph-name="uni0326" unicode="&#x326;" horiz-adv-x="169" 
d="M9 -115c-9 -36 -5 -62 13 -70c-1 -11 31 -6 31 -11c0 -17 -14 -51 -35 -79c-8 -17 0 -24 30 -24s109 23 104 139c-2 43 -3 36 -22 61c-42 23 -82 36 -121 -16z" />
    <glyph glyph-name="uni0326" horiz-adv-x="169" 
d="M9 -115c-9 -36 -5 -62 13 -70c-1 -11 31 -6 31 -11c0 -17 -14 -51 -35 -79c-8 -17 0 -24 30 -24s109 23 104 139c-2 43 -3 36 -22 61c-42 23 -82 36 -121 -16z" />
    <glyph glyph-name="firsttonechinese" unicode="&#x304;" horiz-adv-x="324" 
d="M22 644c-13 -6 -15 -43 4 -56s32 -12 140 -12c114 0 123 1 142 14s20 43 -5 56c-19 6 -224 18 -256 5c-13 0 -25 -7 -25 -7z" />
    <glyph glyph-name="firsttonechinese" unicode="&#x2c9;" horiz-adv-x="324" 
d="M22 644c-13 -6 -15 -43 4 -56s32 -12 140 -12c114 0 123 1 142 14s20 43 -5 56c-19 6 -224 18 -256 5c-13 0 -25 -7 -25 -7z" />
    <glyph glyph-name="dotlessi" unicode="&#x131;" horiz-adv-x="177" 
d="M27 380c-16 -164 -10 -297 8 -335c12 -33 37 -76 120 -32c9 13 9 17 6 110c-4 59 -5 122 -3 145c3 146 1 196 -26 216c-11 11 -52 10 -70 -4c-14 -7 -32 -12 -35 -100z" />
    <glyph glyph-name="dotaccent" unicode="&#x307;" horiz-adv-x="163" 
d="M21 637c-12 -52 7 -70 59 -70c35 0 59 12 65 24c6 6 17 75 0 87s-66 18 -89 6c-23 -6 -29 -12 -35 -47z" />
    <glyph glyph-name="dotaccent" unicode="&#x2d9;" horiz-adv-x="163" 
d="M21 637c-12 -52 7 -70 59 -70c35 0 59 12 65 24c6 6 17 75 0 87s-66 18 -89 6c-23 -6 -29 -12 -35 -47z" />
    <glyph glyph-name="ring" unicode="&#x30a;" horiz-adv-x="283" 
d="M81 668c0 -7 -7 -21 -21 -35c-28 -28 -35 -70 -21 -91c14 -35 49 -43 112 -43c70 -7 106 15 127 64c28 56 13 98 -43 119c-28 14 -126 14 -140 0c-14 -7 -14 -14 -14 -14zM179 570c-7 -21 -28 -35 -42 -28c-7 7 -7 49 7 70s28 21 35 -7v-35z" />
    <glyph glyph-name="ring" unicode="&#x2da;" horiz-adv-x="283" 
d="M81 668c0 -7 -7 -21 -21 -35c-28 -28 -35 -70 -21 -91c14 -35 49 -43 112 -43c70 -7 106 15 127 64c28 56 13 98 -43 119c-28 14 -126 14 -140 0c-14 -7 -14 -14 -14 -14zM179 570c-7 -21 -28 -35 -42 -28c-7 7 -7 49 7 70s28 21 35 -7v-35z" />
    <glyph glyph-name="breve" unicode="&#x306;" horiz-adv-x="333" 
d="M85 517c34 -16 124 -18 170 2c42 20 62 48 60 110c2 59 -64 62 -82 10c-15 -29 -28 -51 -90 -49c-40 1 -55 27 -69 47c-18 41 -74 58 -62 -23c8 -32 32 -81 73 -97z" />
    <glyph glyph-name="breve" unicode="&#x2d8;" horiz-adv-x="333" 
d="M85 517c34 -16 124 -18 170 2c42 20 62 48 60 110c2 59 -64 62 -82 10c-15 -29 -28 -51 -90 -49c-40 1 -55 27 -69 47c-18 41 -74 58 -62 -23c8 -32 32 -81 73 -97z" />
    <glyph glyph-name="breveinvertedcmb" unicode="&#x311;" horiz-adv-x="328" 
d="M236 694c-34 16 -124 18 -170 -2c-42 -20 -62 -48 -60 -110c-2 -59 64 -62 82 -10c15 29 28 51 90 49c40 -1 55 -27 69 -47c18 -41 74 -58 62 23c-8 32 -32 81 -73 97z" />
    <glyph glyph-name="ogonek" unicode="&#x328;" horiz-adv-x="236" 
d="M10 -143c4 -63 11 -112 70 -148c35 -21 85 -9 131 21c46 25 19 76 -29 66c-29 -2 -67 3 -81 38c-17 31 -2 62 7 82c23 32 11 83 -45 37c-20 -20 -54 -70 -53 -96z" />
    <glyph glyph-name="ogonek" unicode="&#x2db;" horiz-adv-x="236" 
d="M10 -143c4 -63 11 -112 70 -148c35 -21 85 -9 131 21c46 25 19 76 -29 66c-29 -2 -67 3 -81 38c-17 31 -2 62 7 82c23 32 11 83 -45 37c-20 -20 -54 -70 -53 -96z" />
    <glyph glyph-name="hungarumlaut" unicode="&#x30b;" horiz-adv-x="605" 
d="M70 579c-72 -32 -74 -57 -21 -67c47 -5 146 45 232 105c73 58 69 89 -19 74c-44 -8 -65 -21 -111 -54c-22 -17 -64 -42 -81 -58zM298 582c-72 -32 -74 -58 -21 -68c47 -5 146 46 232 106c73 58 69 89 -19 74c-44 -8 -66 -21 -112 -54c-22 -17 -63 -42 -80 -58z" />
    <glyph glyph-name="hungarumlaut" unicode="&#x2dd;" horiz-adv-x="605" 
d="M70 579c-72 -32 -74 -57 -21 -67c47 -5 146 45 232 105c73 58 69 89 -19 74c-44 -8 -65 -21 -111 -54c-22 -17 -64 -42 -81 -58zM298 582c-72 -32 -74 -58 -21 -68c47 -5 146 46 232 106c73 58 69 89 -19 74c-44 -8 -66 -21 -112 -54c-22 -17 -63 -42 -80 -58z" />
    <glyph glyph-name="dblgravecmb" unicode="&#x30f;" horiz-adv-x="605" 
d="M9 693c-9 -11 24 -64 69 -94c48 -43 113 -72 171 -88c56 -13 67 -11 87 15c7 19 -41 36 -88 54c-47 24 -78 43 -108 82c-10 16 -22 23 -52 33c-65 21 -79 -2 -79 -2zM251 688c-9 -11 24 -64 69 -94c48 -43 113 -71 171 -87c56 -13 66 -11 86 15c7 19 -41 36 -88 54
c-47 24 -78 43 -108 82c-10 16 -22 22 -52 32c-65 21 -78 -2 -78 -2z" />
    <glyph glyph-name="Thorn" unicode="&#xde;" horiz-adv-x="426" 
d="M77 756c-49 -9 -67 -27 -36 -45c9 -4 97 -13 97 -17s0 -31 -4 -62c-18 -154 -12 -538 10 -578c13 -22 80 -31 133 -18c22 9 26 23 22 89c-13 132 -15 242 -15 388c0 88 -4 168 -4 181c0 18 0 17 22 13c31 -4 85 -2 97 27c5 11 -14 21 -49 30s-163 9 -207 0
c-22 -4 -48 -8 -66 -8zM144 1005c-9 -36 -5 -62 13 -70c-1 -11 31 -6 31 -11c0 -17 -14 -51 -35 -79c-8 -17 0 -24 30 -24s109 23 104 139c-2 43 -3 36 -22 61c-42 23 -82 36 -121 -16z" />
    <glyph glyph-name="thorn" unicode="&#xfe;" horiz-adv-x="397" 
d="M134 653c-7 -14 -21 -108 -28 -165c-7 -36 -7 -36 -29 -36c-29 0 -50 -15 -57 -29c0 -14 28 -28 50 -28s21 0 28 -151c14 -172 22 -207 51 -229c36 -36 122 -51 172 -29c36 14 29 28 -7 50c-14 7 -29 22 -36 29c-7 22 -15 151 -22 280c-7 79 -7 79 58 86c43 0 64 7 71 14
c22 22 1 29 -71 36c-57 0 -58 0 -58 79c0 72 0 93 -7 100c-14 7 -71 14 -93 7c-7 -7 -22 -14 -22 -14zM137 904c-9 -36 -5 -62 13 -70c-1 -11 31 -6 31 -11c0 -17 -14 -51 -35 -79c-8 -17 0 -24 30 -24s109 23 104 139c-2 43 -3 36 -22 61c-42 23 -82 36 -121 -16z" />
    <glyph glyph-name="Amacron" unicode="&#x100;" horiz-adv-x="469" 
d="M116 692c-4 -4 -33 -123 -43 -156c-29 -123 -66 -487 -62 -544c4 -43 29 -56 95 -52c57 4 66 24 80 161c4 47 10 103 14 127c4 33 5 33 29 43c14 4 23 5 23 5s5 11 49 -147c23 -82 31 -85 74 -85c29 0 53 4 53 14c0 4 -10 32 -20 61c-52 156 -60 175 -56 185
c0 4 5 9 19 19c29 14 16 41 -19 33c-10 0 -18 6 -18 10c0 0 -11 38 -25 85c-29 132 -37 170 -51 184c0 4 -6 19 -10 33c0 24 -1 30 -15 34c-19 10 -80 15 -99 5c-10 -4 -18 -11 -18 -15zM241 345c0 -5 0 -12 -12 -12c-17 -5 -22 -12 -22 0c0 23 -5 81 5 125
c0 0 29 -108 29 -113zM37 831c-13 -6 -15 -43 4 -56s32 -12 140 -12c114 0 123 1 142 14s20 43 -5 56c-19 6 -224 18 -256 5c-13 0 -25 -7 -25 -7z" />
    <glyph glyph-name="amacron" unicode="&#x101;" horiz-adv-x="442" 
d="M159 407c-30 -25 -124 -129 -134 -273c-3 -45 -2 -98 99 -119c55 -5 74 4 114 39c35 30 35 30 35 5c-5 -45 20 -59 85 -54c35 0 60 9 55 49c-5 50 -8 149 -8 214c0 80 13 134 -12 149c-20 15 -60 15 -80 -5c-20 -15 -20 -19 -45 -89c-10 -35 -13 -112 -109 -199
c-10 -10 -29 56 50 204c45 89 84 124 134 129c30 5 35 20 10 25c-25 10 -40 10 -75 0c-30 -10 -94 -50 -119 -75zM134 615c-13 -6 -15 -43 4 -56s32 -12 140 -12c114 0 123 1 142 14s20 43 -5 56c-19 6 -224 18 -256 5c-13 0 -25 -7 -25 -7z" />
    <glyph glyph-name="Abreve" unicode="&#x102;" horiz-adv-x="469" 
d="M116 692c-4 -4 -33 -123 -43 -156c-29 -123 -66 -487 -62 -544c4 -43 29 -56 95 -52c57 4 66 24 80 161c4 47 10 103 14 127c4 33 5 33 29 43c14 4 23 5 23 5s5 11 49 -147c23 -82 31 -85 74 -85c29 0 53 4 53 14c0 4 -10 32 -20 61c-52 156 -60 175 -56 185
c0 4 5 9 19 19c29 14 16 41 -19 33c-10 0 -18 6 -18 10c0 0 -11 38 -25 85c-29 132 -37 170 -51 184c0 4 -6 19 -10 33c0 24 -1 30 -15 34c-19 10 -80 15 -99 5c-10 -4 -18 -11 -18 -15zM241 345c0 -5 0 -12 -12 -12c-17 -5 -22 -12 -22 0c0 23 -5 81 5 125
c0 0 29 -108 29 -113zM100 777c34 -16 124 -18 170 2c42 20 62 48 60 110c2 59 -64 62 -82 10c-15 -29 -28 -51 -90 -49c-40 1 -55 27 -69 47c-18 41 -74 58 -62 -23c8 -32 32 -81 73 -97z" />
    <glyph glyph-name="abreve" unicode="&#x103;" horiz-adv-x="442" 
d="M159 407c-30 -25 -124 -129 -134 -273c-3 -45 -2 -98 99 -119c55 -5 74 4 114 39c35 30 35 30 35 5c-5 -45 20 -59 85 -54c35 0 60 9 55 49c-5 50 -8 149 -8 214c0 80 13 134 -12 149c-20 15 -60 15 -80 -5c-20 -15 -20 -19 -45 -89c-10 -35 -13 -112 -109 -199
c-10 -10 -29 56 50 204c45 89 84 124 134 129c30 5 35 20 10 25c-25 10 -40 10 -75 0c-30 -10 -94 -50 -119 -75zM198 557c34 -16 124 -18 170 2c42 20 62 48 60 110c2 59 -64 62 -82 10c-15 -29 -28 -51 -90 -49c-40 1 -55 27 -69 47c-18 41 -74 58 -62 -23
c8 -32 32 -81 73 -97z" />
    <glyph glyph-name="Aogonek" unicode="&#x104;" horiz-adv-x="469" 
d="M116 692c-4 -4 -33 -123 -43 -156c-29 -123 -66 -487 -62 -544c4 -43 29 -56 95 -52c57 4 66 24 80 161c4 47 10 103 14 127c4 33 5 33 29 43c14 4 23 5 23 5s5 11 49 -147c23 -82 31 -85 74 -85c29 0 53 4 53 14c0 4 -10 32 -20 61c-52 156 -60 175 -56 185
c0 4 5 9 19 19c29 14 16 41 -19 33c-10 0 -18 6 -18 10c0 0 -11 38 -25 85c-29 132 -37 170 -51 184c0 4 -6 19 -10 33c0 24 -1 30 -15 34c-19 10 -80 15 -99 5c-10 -4 -18 -11 -18 -15zM241 345c0 -5 0 -12 -12 -12c-17 -5 -22 -12 -22 0c0 23 -5 81 5 125
c0 0 29 -108 29 -113zM282 -74c4 -63 11 -112 70 -148c35 -21 85 -9 131 21c46 25 19 76 -29 66c-29 -2 -67 3 -81 38c-17 31 -2 62 7 82c23 32 11 83 -45 37c-20 -20 -54 -70 -53 -96z" />
    <glyph glyph-name="aogonek" unicode="&#x105;" horiz-adv-x="442" 
d="M159 407c-30 -25 -124 -129 -134 -273c-3 -45 -2 -98 99 -119c55 -5 74 4 114 39c35 30 35 30 35 5c-5 -45 20 -59 85 -54c35 0 60 9 55 49c-5 50 -8 149 -8 214c0 80 13 134 -12 149c-20 15 -60 15 -80 -5c-20 -15 -20 -19 -45 -89c-10 -35 -13 -112 -109 -199
c-10 -10 -29 56 50 204c45 89 84 124 134 129c30 5 35 20 10 25c-25 10 -40 10 -75 0c-30 -10 -94 -50 -119 -75zM207 -107c4 -63 11 -112 70 -148c35 -21 85 -9 131 21c46 25 19 76 -29 66c-29 -2 -67 3 -81 38c-17 31 -2 62 7 82c23 32 11 83 -45 37
c-20 -20 -54 -70 -53 -96z" />
    <glyph glyph-name="Cacute" unicode="&#x106;" horiz-adv-x="467" 
d="M44 516c-14 -63 -16 -119 -13 -201c11 -110 35 -213 64 -255c40 -55 113 -68 184 -57c95 21 168 81 166 107s-10 26 -37 22c-26 -9 -35 -13 -59 -35c-16 -16 -43 -35 -77 -16c-27 28 -55 98 -63 190c-17 118 -18 216 6 307c11 52 24 63 48 57c10 -4 15 -7 26 -24
c24 -38 40 -55 58 -52c23 3 26 18 20 59c-5 32 -45 93 -151 89c-23 -1 -49 -7 -54 -8c-60 -36 -95 -83 -118 -183zM133 823c-76 -19 -83 -44 -32 -63c45 -13 151 20 246 65c82 45 83 76 -6 76c-45 0 -68 -9 -119 -34c-25 -13 -70 -31 -89 -44z" />
    <glyph glyph-name="cacute" unicode="&#x107;" horiz-adv-x="358" 
d="M68 412c-18 -26 -29 -44 -42 -93c-14 -80 -11 -173 14 -228c25 -50 56 -74 131 -71c70 -3 104 18 138 77c23 42 19 52 -13 64c-21 7 -40 -11 -68 -37c-22 -20 -42 -12 -47 5c-16 39 -19 65 -16 140c4 107 12 132 40 163c17 10 35 7 46 -15c27 -12 59 -1 54 16
c1 27 -70 65 -131 50c-38 -10 -78 -34 -106 -71zM66 602c-76 -19 -83 -44 -32 -63c45 -13 151 20 246 65c82 45 83 76 -6 76c-45 0 -68 -9 -119 -34c-25 -13 -70 -31 -89 -44z" />
    <glyph glyph-name="Ccircumflex" unicode="&#x108;" horiz-adv-x="467" 
d="M44 516c-14 -63 -16 -119 -13 -201c11 -110 35 -213 64 -255c40 -55 113 -68 184 -57c95 21 168 81 166 107s-10 26 -37 22c-26 -9 -35 -13 -59 -35c-16 -16 -43 -35 -77 -16c-27 28 -55 98 -63 190c-17 118 -18 216 6 307c11 52 24 63 48 57c10 -4 15 -7 26 -24
c24 -38 40 -55 58 -52c23 3 26 18 20 59c-5 32 -45 93 -151 89c-23 -1 -49 -7 -54 -8c-60 -36 -95 -83 -118 -183zM99 836c-23 -33 -33 -55 -30 -62c0 -10 20 -16 49 -16c36 -3 49 4 62 26s47 78 54 81c0 0 26 -15 36 -25c32 -36 96 -81 118 -74c13 3 23 10 21 23
c-5 35 -79 99 -89 112c-13 20 -18 18 -18 28c3 13 0 31 -16 34c-13 10 -45 10 -61 7c-32 -13 -59 -38 -126 -134z" />
    <glyph glyph-name="ccircumflex" unicode="&#x109;" horiz-adv-x="358" 
d="M68 412c-18 -26 -29 -44 -42 -93c-14 -80 -11 -173 14 -228c25 -50 56 -74 131 -71c70 -3 104 18 138 77c23 42 19 52 -13 64c-21 7 -40 -11 -68 -37c-22 -20 -42 -12 -47 5c-16 39 -19 65 -16 140c4 107 12 132 40 163c17 10 35 7 46 -15c27 -12 59 -1 54 16
c1 27 -70 65 -131 50c-38 -10 -78 -34 -106 -71zM32 615c-23 -33 -33 -55 -30 -62c0 -10 20 -16 49 -16c36 -3 49 4 62 26s47 78 54 81c0 0 26 -15 36 -25c32 -36 96 -81 118 -74c13 3 23 10 21 23c-5 35 -79 99 -89 112c-13 20 -18 18 -18 28c3 13 0 31 -16 34
c-13 10 -45 10 -61 7c-32 -13 -59 -38 -126 -134z" />
    <glyph glyph-name="Ccaron" unicode="&#x10c;" horiz-adv-x="467" 
d="M44 516c-14 -63 -16 -119 -13 -201c11 -110 35 -213 64 -255c40 -55 113 -68 184 -57c95 21 168 81 166 107s-10 26 -37 22c-26 -9 -35 -13 -59 -35c-16 -16 -43 -35 -77 -16c-27 28 -55 98 -63 190c-17 118 -18 216 6 307c11 52 24 63 48 57c10 -4 15 -7 26 -24
c24 -38 40 -55 58 -52c23 3 26 18 20 59c-5 32 -45 93 -151 89c-23 -1 -49 -7 -54 -8c-60 -36 -95 -83 -118 -183zM378 893c23 33 33 55 30 62c0 10 -20 16 -49 16c-36 3 -49 -4 -62 -26s-47 -78 -54 -81c0 0 -26 15 -36 25c-32 36 -96 81 -118 74c-13 -3 -23 -10 -21 -23
c5 -35 79 -99 89 -112c13 -20 18 -18 18 -28c-3 -13 0 -31 16 -34c13 -10 45 -10 61 -7c32 13 59 38 126 134z" />
    <glyph glyph-name="ccaron" unicode="&#x10d;" horiz-adv-x="358" 
d="M68 412c-18 -26 -29 -44 -42 -93c-14 -80 -11 -173 14 -228c25 -50 56 -74 131 -71c70 -3 104 18 138 77c23 42 19 52 -13 64c-21 7 -40 -11 -68 -37c-22 -20 -42 -12 -47 5c-16 39 -19 65 -16 140c4 107 12 132 40 163c17 10 35 7 46 -15c27 -12 59 -1 54 16
c1 27 -70 65 -131 50c-38 -10 -78 -34 -106 -71zM311 672c23 33 33 55 30 62c0 10 -20 16 -49 16c-36 3 -49 -4 -62 -26s-47 -78 -54 -81c0 0 -26 15 -36 25c-32 36 -96 81 -118 74c-13 -3 -23 -10 -21 -23c5 -35 79 -99 89 -112c13 -20 18 -18 18 -28c-3 -13 0 -31 16 -34
c13 -10 45 -10 61 -7c32 13 59 38 126 134z" />
    <glyph glyph-name="Dcaron" unicode="&#x10e;" horiz-adv-x="516" 
d="M30 674c-5 -27 -10 -276 -5 -381c0 -101 10 -201 19 -233c5 -23 22 -46 36 -51c18 -9 83 -9 97 0c18 9 27 23 32 32c0 14 4 14 36 19c41 9 189 60 234 224c9 37 30 213 -78 303c-55 55 -124 77 -197 77c-27 0 -27 5 -32 14c-9 23 -32 32 -69 32c-18 0 -36 1 -45 -4
c-18 -5 -23 -14 -28 -32zM355 536c23 -32 32 -188 14 -252c-9 -46 -66 -130 -165 -169c-25 124 -23 357 -23 412c0 105 1 106 28 101c23 0 41 -5 59 -14c27 -14 73 -55 87 -78zM395 896c23 33 33 55 30 62c0 10 -20 16 -49 16c-36 3 -49 -4 -62 -26s-47 -78 -54 -81
c0 0 -26 15 -36 25c-32 36 -96 81 -118 74c-13 -3 -23 -10 -21 -23c5 -35 79 -99 89 -112c13 -20 18 -18 18 -28c-3 -13 0 -31 16 -34c13 -10 45 -10 61 -7c32 13 59 38 126 134z" />
    <glyph glyph-name="dcaron" unicode="&#x10f;" horiz-adv-x="475" 
d="M233 551c0 -130 0 -130 -18 -136c-47 0 -135 -54 -165 -107c-18 -30 -30 -95 -24 -136c6 -24 36 -135 154 -100c23 3 53 12 71 53c18 30 18 29 24 -12c12 -59 23 -77 41 -89c41 -24 106 -18 130 12c6 12 -7 16 -31 152c-24 124 -23 310 -41 541c-6 53 -12 59 -71 59
c-36 0 -47 -6 -59 -12c-12 -12 -11 -89 -11 -225zM228 296c-6 -71 -60 -177 -72 -171c-6 0 -37 37 -35 89c3 65 29 124 88 165c24 12 30 12 24 -6c0 -12 1 -53 -5 -77zM376 974c23 33 33 55 30 62c0 10 -20 16 -49 16c-36 3 -49 -4 -62 -26s-47 -78 -54 -81
c0 0 -26 15 -36 25c-32 36 -96 81 -118 74c-13 -3 -23 -10 -21 -23c5 -35 79 -99 89 -112c13 -20 18 -18 18 -28c-3 -13 0 -31 16 -34c13 -10 45 -10 61 -7c32 13 59 38 126 134z" />
    <glyph glyph-name="Emacron" unicode="&#x112;" horiz-adv-x="443" 
d="M70 695c-16 -9 -23 -38 -36 -185c-10 -108 -1 -272 2 -297c6 -45 15 -106 28 -132c4 -15 36 -75 137 -76c74 -1 124 3 166 34c27 18 23 33 -1 50c-10 6 -96 10 -112 10s-10 5 -17 41c-3 25 -21 143 -15 264c0 59 1 59 31 61c31 7 95 26 101 36c0 5 7 10 2 15
c-4 15 -29 22 -78 21c-49 4 -48 5 -52 20c-5 55 -1 99 -1 104c5 0 46 1 90 -3c84 -3 103 0 105 20c1 15 -8 21 -67 26c-30 3 -78 7 -113 5c-54 5 -149 -6 -170 -14zM82 861c-13 -6 -15 -43 4 -56s32 -12 140 -12c114 0 123 1 142 14s20 43 -5 56c-19 6 -224 18 -256 5
c-13 0 -25 -7 -25 -7z" />
    <glyph glyph-name="emacron" unicode="&#x113;" horiz-adv-x="358" 
d="M78 446c-27 -24 -105 -248 5 -363c32 -38 70 -49 140 -49c54 0 109 35 109 74c0 43 -29 19 -55 5c-29 -3 -46 -4 -63 23c-21 32 -33 72 -38 126c0 44 13 42 40 53c87 27 121 86 77 140c-21 27 -64 71 -172 17c-17 -5 -38 -21 -43 -26zM237 406c0 -27 -10 -42 -42 -59
c-11 -5 -25 -4 -30 1c-5 17 0 75 5 86c11 27 45 32 62 11c5 -5 5 -22 5 -39zM41 640c-13 -6 -15 -43 4 -56s32 -12 140 -12c114 0 123 1 142 14s20 43 -5 56c-19 6 -224 18 -256 5c-13 0 -25 -7 -25 -7z" />
    <glyph glyph-name="Ebreve" unicode="&#x114;" horiz-adv-x="443" 
d="M70 695c-16 -9 -23 -38 -36 -185c-10 -108 -1 -272 2 -297c6 -45 15 -106 28 -132c4 -15 36 -75 137 -76c74 -1 124 3 166 34c27 18 23 33 -1 50c-10 6 -96 10 -112 10s-10 5 -17 41c-3 25 -21 143 -15 264c0 59 1 59 31 61c31 7 95 26 101 36c0 5 7 10 2 15
c-4 15 -29 22 -78 21c-49 4 -48 5 -52 20c-5 55 -1 99 -1 104c5 0 46 1 90 -3c84 -3 103 0 105 20c1 15 -8 21 -67 26c-30 3 -78 7 -113 5c-54 5 -149 -6 -170 -14zM148 773c34 -16 124 -18 170 2c42 20 62 48 60 110c2 59 -64 62 -82 10c-15 -29 -28 -51 -90 -49
c-40 1 -55 27 -69 47c-18 41 -74 58 -62 -23c8 -32 32 -81 73 -97z" />
    <glyph glyph-name="ebreve" unicode="&#x115;" horiz-adv-x="358" 
d="M78 446c-27 -24 -105 -248 5 -363c32 -38 70 -49 140 -49c54 0 109 35 109 74c0 43 -29 19 -55 5c-29 -3 -46 -4 -63 23c-21 32 -33 72 -38 126c0 44 13 42 40 53c87 27 121 86 77 140c-21 27 -64 71 -172 17c-17 -5 -38 -21 -43 -26zM237 406c0 -27 -10 -42 -42 -59
c-11 -5 -25 -4 -30 1c-5 17 0 75 5 86c11 27 45 32 62 11c5 -5 5 -22 5 -39zM102 561c34 -16 124 -18 170 2c42 20 62 48 60 110c2 59 -64 62 -82 10c-15 -29 -28 -51 -90 -49c-40 1 -55 27 -69 47c-18 41 -74 58 -62 -23c8 -32 32 -81 73 -97z" />
    <glyph glyph-name="Eogonek" unicode="&#x118;" horiz-adv-x="443" 
d="M70 695c-16 -9 -23 -38 -36 -185c-10 -108 -1 -272 2 -297c6 -45 15 -106 28 -132c4 -15 36 -75 137 -76c74 -1 124 3 166 34c27 18 23 33 -1 50c-10 6 -96 10 -112 10s-10 5 -17 41c-3 25 -21 143 -15 264c0 59 1 59 31 61c31 7 95 26 101 36c0 5 7 10 2 15
c-4 15 -29 22 -78 21c-49 4 -48 5 -52 20c-5 55 -1 99 -1 104c5 0 46 1 90 -3c84 -3 103 0 105 20c1 15 -8 21 -67 26c-30 3 -78 7 -113 5c-54 5 -149 -6 -170 -14zM174 -110c4 -63 11 -112 70 -148c35 -21 85 -9 131 21c46 25 19 76 -29 66c-29 -2 -67 3 -81 38
c-17 31 -2 62 7 82c23 32 11 83 -45 37c-20 -20 -54 -70 -53 -96z" />
    <glyph glyph-name="eogonek" unicode="&#x119;" horiz-adv-x="358" 
d="M78 446c-27 -24 -105 -248 5 -363c32 -38 70 -49 140 -49c54 0 109 35 109 74c0 43 -29 19 -55 5c-29 -3 -46 -4 -63 23c-21 32 -33 72 -38 126c0 44 13 42 40 53c87 27 121 86 77 140c-21 27 -64 71 -172 17c-17 -5 -38 -21 -43 -26zM237 406c0 -27 -10 -42 -42 -59
c-11 -5 -25 -4 -30 1c-5 17 0 75 5 86c11 27 45 32 62 11c5 -5 5 -22 5 -39zM161 -79c4 -63 11 -112 70 -148c35 -21 85 -9 131 21c46 25 19 76 -29 66c-29 -2 -67 3 -81 38c-17 31 -2 62 7 82c23 32 11 83 -45 37c-20 -20 -54 -70 -53 -96z" />
    <glyph glyph-name="Ecaron" unicode="&#x11a;" horiz-adv-x="443" 
d="M70 695c-16 -9 -23 -38 -36 -185c-10 -108 -1 -272 2 -297c6 -45 15 -106 28 -132c4 -15 36 -75 137 -76c74 -1 124 3 166 34c27 18 23 33 -1 50c-10 6 -96 10 -112 10s-10 5 -17 41c-3 25 -21 143 -15 264c0 59 1 59 31 61c31 7 95 26 101 36c0 5 7 10 2 15
c-4 15 -29 22 -78 21c-49 4 -48 5 -52 20c-5 55 -1 99 -1 104c5 0 46 1 90 -3c84 -3 103 0 105 20c1 15 -8 21 -67 26c-30 3 -78 7 -113 5c-54 5 -149 -6 -170 -14zM365 896c23 33 33 55 30 62c0 10 -20 16 -49 16c-36 3 -49 -4 -62 -26s-47 -78 -54 -81c0 0 -26 15 -36 25
c-32 36 -96 81 -118 74c-13 -3 -23 -10 -21 -23c5 -35 79 -99 89 -112c13 -20 18 -18 18 -28c-3 -13 0 -31 16 -34c13 -10 45 -10 61 -7c32 13 59 38 126 134z" />
    <glyph glyph-name="ecaron" unicode="&#x11b;" horiz-adv-x="358" 
d="M61 446c-27 -24 -105 -248 5 -363c32 -38 70 -49 140 -49c54 0 109 35 109 74c0 43 -29 19 -55 5c-29 -3 -46 -4 -63 23c-21 32 -33 72 -38 126c0 44 13 42 40 53c87 27 121 86 77 140c-21 27 -64 71 -172 17c-17 -5 -38 -21 -43 -26zM220 406c0 -27 -10 -42 -42 -59
c-11 -5 -25 -4 -30 1c-5 17 0 75 5 86c11 27 45 32 62 11c5 -5 5 -22 5 -39zM302 684c23 33 33 55 30 62c0 10 -20 16 -49 16c-36 3 -49 -4 -62 -26s-47 -78 -54 -81c0 0 -26 15 -36 25c-32 36 -96 81 -118 74c-13 -3 -23 -10 -21 -23c5 -35 79 -99 89 -112
c13 -20 18 -18 18 -28c-3 -13 0 -31 16 -34c13 -10 45 -10 61 -7c32 13 59 38 126 134z" />
    <glyph glyph-name="Gcircumflex" unicode="&#x11c;" horiz-adv-x="518" 
d="M110 586c-31 -71 -98 -224 -31 -477c18 -68 165 -156 339 -54c31 13 133 81 85 232c-13 45 -49 58 -125 58c-40 0 -89 -9 -107 -22c-27 -18 0 -45 54 -45c36 -4 35 -4 44 -22c29 -35 18 -94 14 -107c-9 -31 -74 -89 -139 -5c-31 49 -35 76 -31 161c0 85 15 197 98 353
c22 22 23 22 45 18c54 -4 58 -5 58 4c4 22 18 29 -58 47c-45 13 -80 7 -107 -2c-63 -27 -112 -76 -139 -139zM144 864c-23 -33 -33 -55 -30 -62c0 -10 20 -16 49 -16c36 -3 49 4 62 26s47 78 54 81c0 0 26 -15 36 -25c32 -36 96 -81 118 -74c13 3 23 10 21 23
c-5 35 -79 99 -89 112c-13 20 -18 18 -18 28c3 13 0 31 -16 34c-13 10 -45 10 -61 7c-32 -13 -59 -38 -126 -134z" />
    <glyph glyph-name="gcircumflex" unicode="&#x11d;" horiz-adv-x="450" 
d="M98 387c-47 -58 -60 -89 -67 -150s13 -188 170 -183c41 1 39 0 26 -102c-7 -48 -13 -82 -26 -109c-27 -54 -53 -58 -80 -24c-13 20 -30 36 -38 73c-3 42 -13 61 -48 47c-13 0 -26 -29 9 -103c44 -90 156 -128 252 -54c34 20 114 74 123 558c1 34 -22 54 -76 54
s-68 -14 -81 -48c-20 -81 -62 -191 -75 -198s-22 30 -27 83c-4 49 8 175 164 227c20 7 34 6 34 13c0 20 -83 24 -131 11c-34 -13 -82 -37 -129 -95zM81 619c-23 -33 -33 -55 -30 -62c0 -10 20 -16 49 -16c36 -3 49 4 62 26s47 78 54 81c0 0 26 -15 36 -25
c32 -36 96 -81 118 -74c13 3 23 10 21 23c-5 35 -79 99 -89 112c-13 20 -18 18 -18 28c3 13 0 31 -16 34c-13 10 -45 10 -61 7c-32 -13 -59 -38 -126 -134z" />
    <glyph glyph-name="Gbreve" unicode="&#x11e;" horiz-adv-x="518" 
d="M110 586c-31 -71 -98 -224 -31 -477c18 -68 165 -156 339 -54c31 13 133 81 85 232c-13 45 -49 58 -125 58c-40 0 -89 -9 -107 -22c-27 -18 0 -45 54 -45c36 -4 35 -4 44 -22c29 -35 18 -94 14 -107c-9 -31 -74 -89 -139 -5c-31 49 -35 76 -31 161c0 85 15 197 98 353
c22 22 23 22 45 18c54 -4 58 -5 58 4c4 22 18 29 -58 47c-45 13 -80 7 -107 -2c-63 -27 -112 -76 -139 -139zM206 798c34 -16 124 -18 170 2c42 20 62 48 60 110c2 59 -64 62 -82 10c-15 -29 -28 -51 -90 -49c-40 1 -55 27 -69 47c-18 41 -74 58 -62 -23
c8 -32 32 -81 73 -97z" />
    <glyph glyph-name="gbreve" unicode="&#x11f;" horiz-adv-x="450" 
d="M98 387c-47 -58 -60 -89 -67 -150s13 -188 170 -183c41 1 39 0 26 -102c-7 -48 -13 -82 -26 -109c-27 -54 -53 -58 -80 -24c-13 20 -30 36 -38 73c-3 42 -13 61 -48 47c-13 0 -26 -29 9 -103c44 -90 156 -128 252 -54c34 20 114 74 123 558c1 34 -22 54 -76 54
s-68 -14 -81 -48c-20 -81 -62 -191 -75 -198s-22 30 -27 83c-4 49 8 175 164 227c20 7 34 6 34 13c0 20 -83 24 -131 11c-34 -13 -82 -37 -129 -95zM143 553c34 -16 124 -18 170 2c42 20 62 48 60 110c2 59 -64 62 -82 10c-15 -29 -28 -51 -90 -49c-40 1 -55 27 -69 47
c-18 41 -74 58 -62 -23c8 -32 32 -81 73 -97z" />
    <glyph glyph-name="Gcedilla" unicode="&#x122;" horiz-adv-x="518" 
d="M110 586c-31 -71 -98 -224 -31 -477c18 -68 165 -156 339 -54c31 13 133 81 85 232c-13 45 -49 58 -125 58c-40 0 -89 -9 -107 -22c-27 -18 0 -45 54 -45c36 -4 35 -4 44 -22c29 -35 18 -94 14 -107c-9 -31 -74 -89 -139 -5c-31 49 -35 76 -31 161c0 85 15 197 98 353
c22 22 23 22 45 18c54 -4 58 -5 58 4c4 22 18 29 -58 47c-45 13 -80 7 -107 -2c-63 -27 -112 -76 -139 -139zM199 -75c0 -24 4 -29 37 -43c19 -9 23 -14 28 -23c5 -14 2 -35 -37 -42c-26 3 -34 -18 0 -38c38 -14 127 -24 136 71c0 33 -14 47 -47 61c-19 9 -24 9 -19 18
c14 52 14 62 5 71c-14 9 -51 9 -70 0c-14 -9 -33 -51 -33 -75z" />
    <glyph glyph-name="gcedilla" unicode="&#x123;" horiz-adv-x="450" 
d="M98 387c-47 -58 -60 -89 -67 -150s13 -188 170 -183c41 1 39 0 26 -102c-7 -48 -13 -82 -26 -109c-27 -54 -53 -58 -80 -24c-13 20 -30 36 -38 73c-3 42 -13 61 -48 47c-13 0 -26 -29 9 -103c44 -90 156 -128 252 -54c34 20 114 74 123 558c1 34 -22 54 -76 54
s-68 -14 -81 -48c-20 -81 -62 -191 -75 -198s-22 30 -27 83c-4 49 8 175 164 227c20 7 34 6 34 13c0 20 -83 24 -131 11c-34 -13 -82 -37 -129 -95zM129 -340c0 -24 4 -29 37 -43c19 -9 23 -14 28 -23c5 -14 2 -35 -37 -42c-26 3 -34 -18 0 -38c38 -14 127 -24 136 71
c0 33 -14 47 -47 61c-19 9 -24 9 -19 18c14 52 14 62 5 71c-14 9 -51 9 -70 0c-14 -9 -33 -51 -33 -75z" />
    <glyph glyph-name="Hcircumflex" unicode="&#x124;" horiz-adv-x="520" 
d="M397 673c-10 -9 -10 -9 -20 -116c-10 -112 -10 -102 -36 -103c-14 1 -108 -10 -108 -5c0 0 -1 31 -3 69c4 103 5 105 -36 119c-45 19 -96 14 -122 -13c-16 -18 -15 -17 -16 -80c-8 -185 -9 -312 6 -402c2 -34 2 -132 27 -154c40 -36 122 -35 139 -7c6 10 7 18 8 33
c-7 26 -9 118 -11 250c2 126 3 137 12 131c5 -5 81 -3 108 0c14 4 13 3 14 -46c-2 -73 -2 -213 5 -239c2 -34 24 -95 32 -106c9 -6 54 -33 67 15c7 18 9 42 34 318c14 214 24 311 20 321c-7 20 -45 28 -96 28c-5 0 -15 -9 -24 -13zM145 815c-23 -33 -33 -55 -30 -62
c0 -10 20 -16 49 -16c36 -3 49 4 62 26s47 78 54 81c0 0 26 -15 36 -25c32 -36 96 -81 118 -74c13 3 23 10 21 23c-5 35 -79 99 -89 112c-13 20 -18 18 -18 28c3 13 0 31 -16 34c-13 10 -45 10 -61 7c-32 -13 -59 -38 -126 -134z" />
    <glyph glyph-name="hcircumflex" unicode="&#x125;" horiz-adv-x="449" 
d="M37 440c-4 -394 -5 -403 24 -427c14 -10 50 -14 79 -10s54 33 78 82c10 24 28 73 38 97c29 73 59 123 63 113c0 0 11 17 0 -161c-11 -185 1 -174 59 -174s54 -10 54 160c-4 218 -16 262 -74 272c-63 10 -112 -34 -146 -127c-4 -20 -14 -34 -14 -34c0 -4 0 25 0 64
c4 87 -4 320 -14 359c-4 20 -12 40 -16 44c-20 24 -68 33 -97 19s-30 0 -34 -277zM94 853c-23 -33 -33 -55 -30 -62c0 -10 20 -16 49 -16c36 -3 49 4 62 26s47 78 54 81c0 0 26 -15 36 -25c32 -36 96 -81 118 -74c13 3 23 10 21 23c-5 35 -79 99 -89 112
c-13 20 -18 18 -18 28c3 13 0 31 -16 34c-13 10 -45 10 -61 7c-32 -13 -59 -38 -126 -134z" />
    <glyph glyph-name="Itilde" unicode="&#x128;" horiz-adv-x="287" 
d="M-7 687c-31 -9 -49 -18 -49 -22c0 -13 18 -23 36 -27c22 -4 22 -5 18 -18c-4 -27 -9 -297 -9 -436c0 -130 4 -83 4 -137c0 -11 -25 -8 -25 -28c17 -19 127 -16 178 3c36 18 41 27 23 36c-13 4 -17 -3 -18 27s-10 130 -14 355c-4 63 -13 154 -22 202c-4 9 0 10 18 14
c27 4 36 9 36 22c0 22 -55 31 -113 18c-18 -4 -45 -9 -63 -9zM-104 832c-28 -35 -35 -49 -21 -63c7 -14 50 -21 85 -14c21 7 28 14 35 42c0 14 7 28 14 28s14 -7 21 -21c21 -35 56 -49 112 -49c42 0 71 14 99 49c21 28 21 56 0 70c-35 7 -64 4 -78 -17s-28 -28 -39 -15
c-10 21 -17 32 -24 39c-21 14 -81 36 -126 14c-35 -14 -57 -28 -78 -63z" />
    <glyph glyph-name="itilde" unicode="&#x129;" horiz-adv-x="177" 
d="M-95 380c-16 -164 -10 -297 8 -335c12 -33 37 -76 120 -32c9 13 9 17 6 110c-4 59 -5 122 -3 145c3 146 1 196 -26 216c-11 11 -52 10 -70 -4c-14 -7 -32 -12 -35 -100zM-198 621c-28 -35 -35 -49 -21 -63c7 -14 50 -21 85 -14c21 7 28 14 35 42c0 14 7 28 14 28
s14 -7 21 -21c21 -35 56 -49 112 -49c42 0 71 14 99 49c21 28 21 56 0 70c-35 7 -64 4 -78 -17s-28 -28 -39 -15c-10 21 -17 32 -24 39c-21 14 -81 36 -126 14c-35 -14 -57 -28 -78 -63z" />
    <glyph glyph-name="Imacron" unicode="&#x12a;" horiz-adv-x="287" 
d="M32 687c-31 -9 -49 -18 -49 -22c0 -13 18 -23 36 -27c22 -4 22 -5 18 -18c-4 -27 -9 -297 -9 -436c0 -130 4 -83 4 -137c0 -11 -25 -8 -25 -28c17 -19 127 -16 178 3c36 18 41 27 23 36c-13 4 -17 -3 -18 27s-10 130 -14 355c-4 63 -13 154 -22 202c-4 9 0 10 18 14
c27 4 36 9 36 22c0 22 -55 31 -113 18c-18 -4 -45 -9 -63 -9zM-44 820c-13 -6 -15 -43 4 -56s32 -12 140 -12c114 0 123 1 142 14s20 43 -5 56c-19 6 -224 18 -256 5c-13 0 -25 -7 -25 -7z" />
    <glyph glyph-name="imacron" unicode="&#x12b;" horiz-adv-x="177" 
d="M-56 380c-16 -164 -10 -297 8 -335c12 -33 37 -76 120 -32c9 13 9 17 6 110c-4 59 -5 122 -3 145c3 146 1 196 -26 216c-11 11 -52 10 -70 -4c-14 -7 -32 -12 -35 -100zM-138 609c-13 -6 -15 -43 4 -56s32 -12 140 -12c114 0 123 1 142 14s20 43 -5 56
c-19 6 -224 18 -256 5c-13 0 -25 -7 -25 -7z" />
    <glyph glyph-name="Ibreve" unicode="&#x12c;" horiz-adv-x="287" 
d="M35 687c-31 -9 -49 -18 -49 -22c0 -13 18 -23 36 -27c22 -4 22 -5 18 -18c-4 -27 -9 -297 -9 -436c0 -130 4 -83 4 -137c0 -11 -25 -8 -25 -28c17 -19 127 -16 178 3c36 18 41 27 23 36c-13 4 -17 -3 -18 27s-10 130 -14 355c-4 63 -13 154 -22 202c-4 9 0 10 18 14
c27 4 36 9 36 22c0 22 -55 31 -113 18c-18 -4 -45 -9 -63 -9zM27 765c34 -16 124 -18 170 2c42 20 62 48 60 110c2 59 -64 62 -82 10c-15 -29 -28 -51 -90 -49c-40 1 -55 27 -69 47c-18 41 -74 58 -62 -23c8 -32 32 -81 73 -97z" />
    <glyph glyph-name="ibreve" unicode="&#x12d;" horiz-adv-x="177" 
d="M-53 380c-16 -164 -10 -297 8 -335c12 -33 37 -76 120 -32c9 13 9 17 6 110c-4 59 -5 122 -3 145c3 146 1 196 -26 216c-11 11 -52 10 -70 -4c-14 -7 -32 -12 -35 -100zM-67 554c34 -16 124 -18 170 2c42 20 62 48 60 110c2 59 -64 62 -82 10c-15 -29 -28 -51 -90 -49
c-40 1 -55 27 -69 47c-18 41 -74 58 -62 -23c8 -32 32 -81 73 -97z" />
    <glyph glyph-name="Iogonek" unicode="&#x12e;" horiz-adv-x="287" 
d="M69 687c-31 -9 -49 -18 -49 -22c0 -13 18 -23 36 -27c22 -4 22 -5 18 -18c-4 -27 -9 -297 -9 -436c0 -130 4 -83 4 -137c0 -11 -25 -8 -25 -28c17 -19 127 -16 178 3c36 18 41 27 23 36c-13 4 -17 -3 -18 27s-10 130 -14 355c-4 63 -13 154 -22 202c-4 9 0 10 18 14
c27 4 36 9 36 22c0 22 -55 31 -113 18c-18 -4 -45 -9 -63 -9zM116 -99c4 -63 11 -112 70 -148c35 -21 85 -9 131 21c46 25 19 76 -29 66c-29 -2 -67 3 -81 38c-17 31 -2 62 7 82c23 32 11 83 -45 37c-20 -20 -54 -70 -53 -96z" />
    <glyph glyph-name="iogonek" unicode="&#x12f;" horiz-adv-x="177" 
d="M27 380c-16 -164 -10 -297 8 -335c12 -33 37 -76 120 -32c9 13 9 17 6 110c-4 59 -5 122 -3 145c3 146 1 196 -26 216c-11 11 -52 10 -70 -4c-14 -7 -32 -12 -35 -100zM38 -116c4 -63 11 -112 70 -148c35 -21 85 -9 131 21c46 25 19 76 -29 66c-29 -2 -67 3 -81 38
c-17 31 -2 62 7 82c23 32 11 83 -45 37c-20 -20 -54 -70 -53 -96zM30 607c-3 -17 -3 -33 7 -37c27 -20 80 -13 103 7c13 19 14 57 3 73c-11 11 -16 8 -45 6c-24 -2 -63 -3 -68 -49z" />
    <glyph glyph-name="Jcircumflex" unicode="&#x134;" horiz-adv-x="272" 
d="M-50 581c0 -31 18 -218 22 -262c18 -146 22 -295 13 -322c-4 -31 -27 -53 -58 -71c-27 -18 -31 -27 -27 -36c9 -18 31 -22 80 -22c40 0 141 4 186 107c9 27 11 202 -7 353c-27 240 -49 328 -80 341c-22 9 -89 9 -107 0c-22 -18 -26 -21 -22 -88zM-103 805
c-23 -33 -33 -55 -30 -62c0 -10 20 -16 49 -16c36 -3 49 4 62 26s47 78 54 81c0 0 26 -15 36 -25c32 -36 96 -81 118 -74c13 3 23 10 21 23c-5 35 -79 99 -89 112c-13 20 -18 18 -18 28c3 13 0 31 -16 34c-13 10 -45 10 -61 7c-32 -13 -59 -38 -126 -134z" />
    <glyph glyph-name="jcircumflex" unicode="&#x135;" horiz-adv-x="211" 
d="M-77 578c16 -17 80 -18 105 -8c16 10 16 77 0 87c-25 17 -80 17 -105 0c-16 -10 -16 -62 0 -79zM-77 429c0 -183 -7 -410 -16 -489c-16 -122 -41 -183 -89 -218c-41 -35 -48 -54 -7 -71c64 -17 160 33 201 112c48 79 66 257 57 475c-9 157 -24 209 -49 236
c-16 17 -65 17 -81 0c-9 -10 -16 -28 -16 -45zM-168 799c-23 -33 -33 -55 -30 -62c0 -10 20 -16 49 -16c36 -3 49 4 62 26s47 78 54 81c0 0 26 -15 36 -25c32 -36 96 -81 118 -74c13 3 23 10 21 23c-5 35 -79 99 -89 112c-13 20 -18 18 -18 28c3 13 0 31 -16 34
c-13 10 -45 10 -61 7c-32 -13 -59 -38 -126 -134z" />
    <glyph glyph-name="Kcedilla" unicode="&#x136;" horiz-adv-x="463" 
d="M51 643c0 -21 -14 -493 -14 -591c0 -21 5 -26 31 -38c38 -17 106 -9 132 12c12 9 13 44 13 211c4 163 4 161 13 127c4 -17 100 -224 112 -250c9 -17 26 -33 49 -33c64 0 73 13 47 73c-43 90 -85 147 -102 211c-12 43 -38 98 -55 128c-12 17 -12 18 35 69
c55 55 85 85 81 89c0 17 -30 26 -64 22c-21 -4 -26 -4 -73 -51c-34 -38 -51 -47 -51 -43c0 21 -9 86 -13 98c0 4 -9 13 -13 17c-17 9 -56 13 -86 9s-38 -17 -42 -60zM60 -78c0 -24 4 -29 37 -43c19 -9 23 -14 28 -23c5 -14 2 -35 -37 -42c-26 3 -34 -18 0 -38
c38 -14 127 -24 136 71c0 33 -14 47 -47 61c-19 9 -24 9 -19 18c14 52 14 62 5 71c-14 9 -51 9 -70 0c-14 -9 -33 -51 -33 -75z" />
    <glyph glyph-name="kcedilla" unicode="&#x137;" horiz-adv-x="422" 
d="M26 543c10 -235 21 -422 21 -459c-5 -63 16 -84 73 -84c37 0 88 0 83 120c-3 78 1 79 11 63c37 -47 83 -78 130 -78c63 0 63 15 16 67c-21 21 -59 57 -99 115c-10 16 -11 21 10 47c37 37 63 73 73 94c5 26 1 37 -41 37c-37 5 -47 -5 -68 -47c-10 -16 -27 -37 -32 -42
c-10 -16 -10 -15 -15 89c0 99 -10 188 -26 214c0 5 -22 42 -105 21c-37 -10 -36 -6 -31 -157zM79 -83c0 -24 4 -29 37 -43c19 -9 23 -14 28 -23c5 -14 2 -35 -37 -42c-26 3 -34 -18 0 -38c38 -14 127 -24 136 71c0 33 -14 47 -47 61c-19 9 -24 9 -19 18c14 52 14 62 5 71
c-14 9 -51 9 -70 0c-14 -9 -33 -51 -33 -75z" />
    <glyph glyph-name="Lacute" unicode="&#x139;" horiz-adv-x="361" 
d="M30 670c-13 -36 -26 -335 -22 -500c0 -94 11 -144 67 -152c58 -18 142 -4 196 27c36 18 41 23 45 36c0 18 -22 26 -71 22c-27 0 -49 -4 -58 -4c-13 -4 -13 -5 -9 254c0 237 0 264 -9 295c-9 40 -9 40 -27 49c-27 13 -72 13 -94 0c-9 -4 -14 -18 -18 -27zM56 823
c-76 -19 -83 -44 -32 -63c45 -13 151 20 246 65c82 45 83 76 -6 76c-45 0 -68 -9 -119 -34c-25 -13 -70 -31 -89 -44z" />
    <glyph glyph-name="lacute" unicode="&#x13a;" horiz-adv-x="237" 
d="M-22 685c-6 -6 -13 -193 -13 -392c0 -193 7 -225 38 -262c19 -19 93 -50 143 -6c6 12 6 18 -6 68c-6 50 -13 81 -13 299s0 243 -12 268c-6 19 -19 32 -31 38c-19 12 -68 12 -87 6c-6 -6 -19 -13 -19 -19zM-48 824c-76 -19 -83 -44 -32 -63c45 -13 151 20 246 65
c82 45 83 76 -6 76c-45 0 -68 -9 -119 -34c-25 -13 -70 -31 -89 -44z" />
    <glyph glyph-name="Lcedilla" unicode="&#x13b;" horiz-adv-x="361" 
d="M46 670c-13 -36 -26 -335 -22 -500c0 -94 11 -144 67 -152c58 -18 142 -4 196 27c36 18 41 23 45 36c0 18 -22 26 -71 22c-27 0 -49 -4 -58 -4c-13 -4 -13 -5 -9 254c0 237 0 264 -9 295c-9 40 -9 40 -27 49c-27 13 -72 13 -94 0c-9 -4 -14 -18 -18 -27zM60 -73
c0 -24 4 -29 37 -43c19 -9 23 -14 28 -23c5 -14 2 -35 -37 -42c-26 3 -34 -18 0 -38c38 -14 127 -24 136 71c0 33 -14 47 -47 61c-19 9 -24 9 -19 18c14 52 14 62 5 71c-14 9 -51 9 -70 0c-14 -9 -33 -51 -33 -75z" />
    <glyph glyph-name="lcedilla" unicode="&#x13c;" horiz-adv-x="237" 
d="M56 685c-6 -6 -13 -193 -13 -392c0 -193 7 -225 38 -262c19 -19 93 -50 143 -6c6 12 6 18 -6 68c-6 50 -13 81 -13 299s0 243 -12 268c-6 19 -19 32 -31 38c-19 12 -68 12 -87 6c-6 -6 -19 -13 -19 -19zM75 -80c0 -24 4 -29 37 -43c19 -9 23 -14 28 -23
c5 -14 2 -35 -37 -42c-26 3 -34 -18 0 -38c38 -14 127 -24 136 71c0 33 -14 47 -47 61c-19 9 -24 9 -19 18c14 52 14 62 5 71c-14 9 -51 9 -70 0c-14 -9 -33 -51 -33 -75z" />
    <glyph glyph-name="Lcaron" unicode="&#x13d;" horiz-adv-x="361" 
d="M30 670c-13 -36 -26 -335 -22 -500c0 -94 11 -144 67 -152c58 -18 142 -4 196 27c36 18 41 23 45 36c0 18 -22 26 -71 22c-27 0 -49 -4 -58 -4c-13 -4 -13 -5 -9 254c0 237 0 264 -9 295c-9 40 -9 40 -27 49c-27 13 -72 13 -94 0c-9 -4 -14 -18 -18 -27zM301 893
c23 33 33 55 30 62c0 10 -20 16 -49 16c-36 3 -49 -4 -62 -26s-47 -78 -54 -81c0 0 -26 15 -36 25c-32 36 -96 81 -118 74c-13 -3 -23 -10 -21 -23c5 -35 79 -99 89 -112c13 -20 18 -18 18 -28c-3 -13 0 -31 16 -34c13 -10 45 -10 61 -7c32 13 59 38 126 134z" />
    <glyph glyph-name="lcaron" unicode="&#x13e;" horiz-adv-x="237" 
d="M-22 685c-6 -6 -13 -193 -13 -392c0 -193 7 -225 38 -262c19 -19 93 -50 143 -6c6 12 6 18 -6 68c-6 50 -13 81 -13 299s0 243 -12 268c-6 19 -19 32 -31 38c-19 12 -68 12 -87 6c-6 -6 -19 -13 -19 -19zM197 894c23 33 33 55 30 62c0 10 -20 16 -49 16
c-36 3 -49 -4 -62 -26s-47 -78 -54 -81c0 0 -26 15 -36 25c-32 36 -96 81 -118 74c-13 -3 -23 -10 -21 -23c5 -35 79 -99 89 -112c13 -20 18 -18 18 -28c-3 -13 0 -31 16 -34c13 -10 45 -10 61 -7c32 13 59 38 126 134z" />
    <glyph glyph-name="Nacute" unicode="&#x143;" horiz-adv-x="519" 
d="M369 654c0 -37 -13 -356 -13 -388c-4 -61 -6 -59 -38 -8c-37 65 -51 101 -88 218c-18 61 -23 98 -23 112c-4 56 -15 76 -52 80c-47 10 -87 -14 -97 -56c-10 -32 -29 -271 -29 -378c0 -84 15 -176 29 -200c10 -14 81 -45 139 -6c18 18 20 15 10 127c-4 24 -5 59 -5 83
c-4 47 -4 46 14 14c14 -14 89 -125 107 -149c28 -32 75 -55 112 -55c32 0 57 8 61 22c0 4 0 38 -10 75c-4 56 -8 98 -8 322c-4 299 -1 280 -52 276h-33c-14 -4 -20 -24 -24 -89zM158 861c-76 -19 -83 -44 -32 -63c45 -13 151 20 246 65c82 45 83 76 -6 76
c-45 0 -68 -9 -119 -34c-25 -13 -70 -31 -89 -44z" />
    <glyph glyph-name="nacute" unicode="&#x144;" horiz-adv-x="419" 
d="M34 473c-5 -5 -7 -109 -9 -227c-5 -264 8 -231 60 -238c49 7 87 11 87 96c0 47 -1 85 4 94c5 14 71 123 90 142c9 14 12 7 7 -69c0 -43 -24 -169 -11 -186c14 -19 76 -28 104 -14c28 9 28 18 23 127c0 114 -9 152 -28 185c-24 28 -66 38 -104 19c-24 -9 -57 -38 -71 -66
c-9 -19 -9 -19 -14 14c-9 80 -19 123 -38 128c-19 9 -57 13 -81 4c-9 0 -19 -4 -19 -9zM104 603c-76 -19 -83 -44 -32 -63c45 -13 151 20 246 65c82 45 83 76 -6 76c-45 0 -68 -9 -119 -34c-25 -13 -70 -31 -89 -44z" />
    <glyph glyph-name="Ncedilla" unicode="&#x145;" horiz-adv-x="519" 
d="M369 654c0 -37 -13 -356 -13 -388c-4 -61 -6 -59 -38 -8c-37 65 -51 101 -88 218c-18 61 -23 98 -23 112c-4 56 -15 76 -52 80c-47 10 -87 -14 -97 -56c-10 -32 -29 -271 -29 -378c0 -84 15 -176 29 -200c10 -14 81 -45 139 -6c18 18 20 15 10 127c-4 24 -5 59 -5 83
c-4 47 -4 46 14 14c14 -14 89 -125 107 -149c28 -32 75 -55 112 -55c32 0 57 8 61 22c0 4 0 38 -10 75c-4 56 -8 98 -8 322c-4 299 -1 280 -52 276h-33c-14 -4 -20 -24 -24 -89zM101 -71c0 -24 4 -29 37 -43c19 -9 23 -14 28 -23c5 -14 2 -35 -37 -42c-26 3 -34 -18 0 -38
c38 -14 127 -24 136 71c0 33 -14 47 -47 61c-19 9 -24 9 -19 18c14 52 14 62 5 71c-14 9 -51 9 -70 0c-14 -9 -33 -51 -33 -75z" />
    <glyph glyph-name="ncedilla" unicode="&#x146;" horiz-adv-x="419" 
d="M34 473c-5 -5 -7 -109 -9 -227c-5 -264 8 -231 60 -238c49 7 87 11 87 96c0 47 -1 85 4 94c5 14 71 123 90 142c9 14 12 7 7 -69c0 -43 -24 -169 -11 -186c14 -19 76 -28 104 -14c28 9 28 18 23 127c0 114 -9 152 -28 185c-24 28 -66 38 -104 19c-24 -9 -57 -38 -71 -66
c-9 -19 -9 -19 -14 14c-9 80 -19 123 -38 128c-19 9 -57 13 -81 4c-9 0 -19 -4 -19 -9zM56 -68c0 -24 4 -29 37 -43c19 -9 23 -14 28 -23c5 -14 2 -35 -37 -42c-26 3 -34 -18 0 -38c38 -14 127 -24 136 71c0 33 -14 47 -47 61c-19 9 -24 9 -19 18c14 52 14 62 5 71
c-14 9 -51 9 -70 0c-14 -9 -33 -51 -33 -75z" />
    <glyph glyph-name="Ncaron" unicode="&#x147;" horiz-adv-x="519" 
d="M369 654c0 -37 -13 -356 -13 -388c-4 -61 -6 -59 -38 -8c-37 65 -51 101 -88 218c-18 61 -23 98 -23 112c-4 56 -15 76 -52 80c-47 10 -87 -14 -97 -56c-10 -32 -29 -271 -29 -378c0 -84 15 -176 29 -200c10 -14 81 -45 139 -6c18 18 20 15 10 127c-4 24 -5 59 -5 83
c-4 47 -4 46 14 14c14 -14 89 -125 107 -149c28 -32 75 -55 112 -55c32 0 57 8 61 22c0 4 0 38 -10 75c-4 56 -8 98 -8 322c-4 299 -1 280 -52 276h-33c-14 -4 -20 -24 -24 -89zM403 931c23 33 33 55 30 62c0 10 -20 16 -49 16c-36 3 -49 -4 -62 -26s-47 -78 -54 -81
c0 0 -26 15 -36 25c-32 36 -96 81 -118 74c-13 -3 -23 -10 -21 -23c5 -35 79 -99 89 -112c13 -20 18 -18 18 -28c-3 -13 0 -31 16 -34c13 -10 45 -10 61 -7c32 13 59 38 126 134z" />
    <glyph glyph-name="ncaron" unicode="&#x148;" horiz-adv-x="419" 
d="M34 473c-5 -5 -7 -109 -9 -227c-5 -264 8 -231 60 -238c49 7 87 11 87 96c0 47 -1 85 4 94c5 14 71 123 90 142c9 14 12 7 7 -69c0 -43 -24 -169 -11 -186c14 -19 76 -28 104 -14c28 9 28 18 23 127c0 114 -9 152 -28 185c-24 28 -66 38 -104 19c-24 -9 -57 -38 -71 -66
c-9 -19 -9 -19 -14 14c-9 80 -19 123 -38 128c-19 9 -57 13 -81 4c-9 0 -19 -4 -19 -9zM349 673c23 33 33 55 30 62c0 10 -20 16 -49 16c-36 3 -49 -4 -62 -26s-47 -78 -54 -81c0 0 -26 15 -36 25c-32 36 -96 81 -118 74c-13 -3 -23 -10 -21 -23c5 -35 79 -99 89 -112
c13 -20 18 -18 18 -28c-3 -13 0 -31 16 -34c13 -10 45 -10 61 -7c32 13 59 38 126 134z" />
    <glyph glyph-name="Omacron" unicode="&#x14c;" horiz-adv-x="485" 
d="M186 688c-17 -4 -58 -33 -75 -55c-26 -39 -44 -53 -57 -123c-35 -126 -33 -236 -7 -327c17 -57 49 -211 235 -174c70 13 119 43 154 152c22 61 41 180 4 310c-44 174 -123 239 -232 222c-4 0 -13 -5 -22 -5zM290 500c17 -70 21 -79 21 -166s5 -183 -64 -247
c-42 4 -92 222 -61 384c4 26 13 112 55 118c13 -22 36 -54 49 -89zM99 814c-13 -6 -15 -43 4 -56s32 -12 140 -12c114 0 123 1 142 14s20 43 -5 56c-19 6 -224 18 -256 5c-13 0 -25 -7 -25 -7z" />
    <glyph glyph-name="omacron" unicode="&#x14d;" horiz-adv-x="439" 
d="M62 365c-21 -46 -29 -75 -29 -129s21 -121 100 -157c37 -12 120 -12 157 0c91 33 138 96 129 187c-4 58 -45 116 -99 141c-21 9 -29 12 -58 8c-37 0 -38 1 -34 13c12 16 25 28 46 37c25 12 29 19 8 28c-16 4 -63 0 -79 -4c-54 -16 -112 -70 -141 -124zM274 204
c-4 -21 -17 -48 -54 -67c-10 -5 -34 29 -46 58c-9 29 -7 50 5 108c4 29 20 83 24 83c0 0 17 -13 29 -29c50 -50 63 -95 42 -153zM82 611c-13 -6 -15 -43 4 -56s32 -12 140 -12c114 0 123 1 142 14s20 43 -5 56c-19 6 -224 18 -256 5c-13 0 -25 -7 -25 -7z" />
    <glyph glyph-name="Obreve" unicode="&#x14e;" horiz-adv-x="485" 
d="M186 688c-17 -4 -58 -33 -75 -55c-26 -39 -44 -53 -57 -123c-35 -126 -33 -236 -7 -327c17 -57 49 -211 235 -174c70 13 119 43 154 152c22 61 41 180 4 310c-44 174 -123 239 -232 222c-4 0 -13 -5 -22 -5zM290 500c17 -70 21 -79 21 -166s5 -183 -64 -247
c-42 4 -92 222 -61 384c4 26 13 112 55 118c13 -22 36 -54 49 -89zM167 759c34 -16 124 -18 170 2c42 20 62 48 60 110c2 59 -64 62 -82 10c-15 -29 -28 -51 -90 -49c-40 1 -55 27 -69 47c-18 41 -74 58 -62 -23c8 -32 32 -81 73 -97z" />
    <glyph glyph-name="obreve" unicode="&#x14f;" horiz-adv-x="439" 
d="M62 365c-21 -46 -29 -75 -29 -129s21 -121 100 -157c37 -12 120 -12 157 0c91 33 138 96 129 187c-4 58 -45 116 -99 141c-21 9 -29 12 -58 8c-37 0 -38 1 -34 13c12 16 25 28 46 37c25 12 29 19 8 28c-16 4 -63 0 -79 -4c-54 -16 -112 -70 -141 -124zM274 204
c-4 -21 -17 -48 -54 -67c-10 -5 -34 29 -46 58c-9 29 -7 50 5 108c4 29 20 83 24 83c0 0 17 -13 29 -29c50 -50 63 -95 42 -153zM150 556c34 -16 124 -18 170 2c42 20 62 48 60 110c2 59 -64 62 -82 10c-15 -29 -28 -51 -90 -49c-40 1 -55 27 -69 47c-18 41 -74 58 -62 -23
c8 -32 32 -81 73 -97z" />
    <glyph glyph-name="Odblacute" unicode="&#x150;" horiz-adv-x="485" 
d="M128 688c-17 -4 -58 -33 -75 -55c-26 -39 -44 -53 -57 -123c-35 -126 -33 -236 -7 -327c17 -57 49 -211 235 -174c70 13 119 43 154 152c22 61 41 180 4 310c-44 174 -123 239 -232 222c-4 0 -13 -5 -22 -5zM232 500c17 -70 21 -79 21 -166s5 -183 -64 -247
c-42 4 -92 222 -61 384c4 26 13 112 55 118c13 -22 36 -54 49 -89zM-30 813c-72 -32 -74 -57 -21 -67c47 -5 146 45 232 105c73 58 69 89 -19 74c-44 -8 -65 -21 -111 -54c-22 -17 -64 -42 -81 -58zM198 816c-72 -32 -74 -58 -21 -68c47 -5 146 46 232 106
c73 58 69 89 -19 74c-44 -8 -66 -21 -112 -54c-22 -17 -63 -42 -80 -58z" />
    <glyph glyph-name="odblacute" unicode="&#x151;" horiz-adv-x="439" 
d="M-18 365c-21 -46 -29 -75 -29 -129s21 -121 100 -157c37 -12 120 -12 157 0c91 33 138 96 129 187c-4 58 -45 116 -99 141c-21 9 -29 12 -58 8c-37 0 -38 1 -34 13c12 16 25 28 46 37c25 12 29 19 8 28c-16 4 -63 0 -79 -4c-54 -16 -112 -70 -141 -124zM194 204
c-4 -21 -17 -48 -54 -67c-10 -5 -34 29 -46 58c-9 29 -7 50 5 108c4 29 20 83 24 83c0 0 17 -13 29 -29c50 -50 63 -95 42 -153zM-69 610c-72 -32 -74 -57 -21 -67c47 -5 146 45 232 105c73 58 69 89 -19 74c-44 -8 -65 -21 -111 -54c-22 -17 -64 -42 -81 -58zM159 613
c-72 -32 -74 -58 -21 -68c47 -5 146 46 232 106c73 58 69 89 -19 74c-44 -8 -66 -21 -112 -54c-22 -17 -63 -42 -80 -58z" />
    <glyph glyph-name="Racute" unicode="&#x154;" horiz-adv-x="492" 
d="M40 683c-8 -21 -12 -149 -16 -421c-4 -223 -4 -223 25 -235c25 -8 90 -8 111 0c12 8 21 13 21 17c4 0 4 82 8 177c0 169 0 169 29 107c83 -165 140 -256 169 -264c17 -8 49 -8 66 0c12 8 13 21 -4 46c-8 12 -74 132 -95 165c-17 33 -62 119 -70 136c-17 33 -46 74 -54 74
s0 9 17 17c66 33 153 103 161 132c12 33 -12 58 -66 70c-29 8 -96 8 -141 0c-37 -4 -37 -4 -45 4c-4 4 -17 13 -21 17c-12 4 -50 4 -62 -4c-12 -4 -29 -21 -33 -38zM201 539c-17 -12 -16 -13 -20 8c0 12 -4 41 -4 62c0 45 0 46 12 50c21 8 82 16 99 16c8 0 21 -4 25 -8
c29 -17 4 -45 -112 -128zM137 844c-76 -19 -83 -44 -32 -63c45 -13 151 20 246 65c82 45 83 76 -6 76c-45 0 -68 -9 -119 -34c-25 -13 -70 -31 -89 -44z" />
    <glyph glyph-name="racute" unicode="&#x155;" horiz-adv-x="401" 
d="M41 495c-13 -8 -13 -8 0 -74c8 -35 12 -188 12 -288c0 -61 0 -61 18 -74c13 -8 85 -15 117 0c18 13 18 13 13 74c0 43 0 65 5 78c43 117 46 169 153 209c22 13 25 17 17 30c-13 13 -52 34 -106 11c-47 -21 -55 -58 -73 -80c-5 -13 -4 -12 -9 18c-5 13 -4 67 -43 100
c-18 8 -61 14 -79 9c-8 -5 -20 -8 -25 -13zM100 626c-76 -19 -83 -44 -32 -63c45 -13 151 20 246 65c82 45 83 76 -6 76c-45 0 -68 -9 -119 -34c-25 -13 -70 -31 -89 -44z" />
    <glyph glyph-name="Rcedilla" unicode="&#x156;" horiz-adv-x="492" 
d="M40 683c-8 -21 -12 -149 -16 -421c-4 -223 -4 -223 25 -235c25 -8 90 -8 111 0c12 8 21 13 21 17c4 0 4 82 8 177c0 169 0 169 29 107c83 -165 140 -256 169 -264c17 -8 49 -8 66 0c12 8 13 21 -4 46c-8 12 -74 132 -95 165c-17 33 -62 119 -70 136c-17 33 -46 74 -54 74
s0 9 17 17c66 33 153 103 161 132c12 33 -12 58 -66 70c-29 8 -96 8 -141 0c-37 -4 -37 -4 -45 4c-4 4 -17 13 -21 17c-12 4 -50 4 -62 -4c-12 -4 -29 -21 -33 -38zM201 539c-17 -12 -16 -13 -20 8c0 12 -4 41 -4 62c0 45 0 46 12 50c21 8 82 16 99 16c8 0 21 -4 25 -8
c29 -17 4 -45 -112 -128zM39 -62c0 -24 4 -29 37 -43c19 -9 23 -14 28 -23c5 -14 2 -35 -37 -42c-26 3 -34 -18 0 -38c38 -14 127 -24 136 71c0 33 -14 47 -47 61c-19 9 -24 9 -19 18c14 52 14 62 5 71c-14 9 -51 9 -70 0c-14 -9 -33 -51 -33 -75z" />
    <glyph glyph-name="rcedilla" unicode="&#x157;" horiz-adv-x="401" 
d="M41 495c-13 -8 -13 -8 0 -74c8 -35 12 -188 12 -288c0 -61 0 -61 18 -74c13 -8 85 -15 117 0c18 13 18 13 13 74c0 43 0 65 5 78c43 117 46 169 153 209c22 13 25 17 17 30c-13 13 -52 34 -106 11c-47 -21 -55 -58 -73 -80c-5 -13 -4 -12 -9 18c-5 13 -4 67 -43 100
c-18 8 -61 14 -79 9c-8 -5 -20 -8 -25 -13zM66 -33c0 -24 4 -29 37 -43c19 -9 23 -14 28 -23c5 -14 2 -35 -37 -42c-26 3 -34 -18 0 -38c38 -14 127 -24 136 71c0 33 -14 47 -47 61c-19 9 -24 9 -19 18c14 52 14 62 5 71c-14 9 -51 9 -70 0c-14 -9 -33 -51 -33 -75z" />
    <glyph glyph-name="Rcaron" unicode="&#x158;" horiz-adv-x="492" 
d="M40 683c-8 -21 -12 -149 -16 -421c-4 -223 -4 -223 25 -235c25 -8 90 -8 111 0c12 8 21 13 21 17c4 0 4 82 8 177c0 169 0 169 29 107c83 -165 140 -256 169 -264c17 -8 49 -8 66 0c12 8 13 21 -4 46c-8 12 -74 132 -95 165c-17 33 -62 119 -70 136c-17 33 -46 74 -54 74
s0 9 17 17c66 33 153 103 161 132c12 33 -12 58 -66 70c-29 8 -96 8 -141 0c-37 -4 -37 -4 -45 4c-4 4 -17 13 -21 17c-12 4 -50 4 -62 -4c-12 -4 -29 -21 -33 -38zM201 539c-17 -12 -16 -13 -20 8c0 12 -4 41 -4 62c0 45 0 46 12 50c21 8 82 16 99 16c8 0 21 -4 25 -8
c29 -17 4 -45 -112 -128zM382 914c23 33 33 55 30 62c0 10 -20 16 -49 16c-36 3 -49 -4 -62 -26s-47 -78 -54 -81c0 0 -26 15 -36 25c-32 36 -96 81 -118 74c-13 -3 -23 -10 -21 -23c5 -35 79 -99 89 -112c13 -20 18 -18 18 -28c-3 -13 0 -31 16 -34c13 -10 45 -10 61 -7
c32 13 59 38 126 134z" />
    <glyph glyph-name="rcaron" unicode="&#x159;" horiz-adv-x="401" 
d="M41 495c-13 -8 -13 -8 0 -74c8 -35 12 -188 12 -288c0 -61 0 -61 18 -74c13 -8 85 -15 117 0c18 13 18 13 13 74c0 43 0 65 5 78c43 117 46 169 153 209c22 13 25 17 17 30c-13 13 -52 34 -106 11c-47 -21 -55 -58 -73 -80c-5 -13 -4 -12 -9 18c-5 13 -4 67 -43 100
c-18 8 -61 14 -79 9c-8 -5 -20 -8 -25 -13zM345 696c23 33 33 55 30 62c0 10 -20 16 -49 16c-36 3 -49 -4 -62 -26s-47 -78 -54 -81c0 0 -26 15 -36 25c-32 36 -96 81 -118 74c-13 -3 -23 -10 -21 -23c5 -35 79 -99 89 -112c13 -20 18 -18 18 -28c-3 -13 0 -31 16 -34
c13 -10 45 -10 61 -7c32 13 59 38 126 134z" />
    <glyph glyph-name="Sacute" unicode="&#x15a;" horiz-adv-x="416" 
d="M82 652c-29 -29 -67 -100 4 -272c15 -37 75 -141 79 -149c21 -29 45 -82 45 -103c4 -29 -4 -54 -8 -54s-21 17 -42 46c-12 21 -40 54 -57 62c-17 12 -59 7 -71 -5c-8 -8 -12 -12 -12 -33s16 -73 62 -115c33 -21 118 -52 202 -17c29 8 42 21 75 50c41 41 32 95 -38 206
c-29 45 -107 194 -115 227c-4 8 -30 75 33 149c8 8 12 8 16 4c8 -8 17 -33 21 -66c4 -25 35 -72 95 -12c8 17 8 49 0 66c-8 25 -34 78 -136 74c-33 -1 -54 0 -66 -4c-33 -8 -70 -33 -87 -54zM97 826c-76 -19 -83 -44 -32 -63c45 -13 151 20 246 65c82 45 83 76 -6 76
c-45 0 -68 -9 -119 -34c-25 -13 -70 -31 -89 -44z" />
    <glyph glyph-name="sacute" unicode="&#x15b;" horiz-adv-x="323" 
d="M-2 421c-9 -35 -11 -30 -11 -81c0 -57 6 -79 51 -148c45 -86 63 -126 63 -161c0 -23 10 -65 -69 -68c-40 -2 -63 -7 -63 -24c-6 -12 1 -16 18 -22c29 -12 131 -12 166 -6c63 17 103 63 97 120c0 35 -18 75 -69 161c-57 98 -69 120 -63 171c0 29 4 66 69 69
c45 2 57 5 51 22c-6 12 -34 24 -91 24s-103 -1 -149 -57zM4 594c-76 -19 -83 -44 -32 -63c45 -13 151 20 246 65c82 45 83 76 -6 76c-45 0 -68 -9 -119 -34c-25 -13 -70 -31 -89 -44z" />
    <glyph glyph-name="Scircumflex" unicode="&#x15c;" horiz-adv-x="416" 
d="M82 652c-29 -29 -67 -100 4 -272c15 -37 75 -141 79 -149c21 -29 45 -82 45 -103c4 -29 -4 -54 -8 -54s-21 17 -42 46c-12 21 -40 54 -57 62c-17 12 -59 7 -71 -5c-8 -8 -12 -12 -12 -33s16 -73 62 -115c33 -21 118 -52 202 -17c29 8 42 21 75 50c41 41 32 95 -38 206
c-29 45 -107 194 -115 227c-4 8 -30 75 33 149c8 8 12 8 16 4c8 -8 17 -33 21 -66c4 -25 35 -72 95 -12c8 17 8 49 0 66c-8 25 -34 78 -136 74c-33 -1 -54 0 -66 -4c-33 -8 -70 -33 -87 -54zM63 839c-23 -33 -33 -55 -30 -62c0 -10 20 -16 49 -16c36 -3 49 4 62 26
s47 78 54 81c0 0 26 -15 36 -25c32 -36 96 -81 118 -74c13 3 23 10 21 23c-5 35 -79 99 -89 112c-13 20 -18 18 -18 28c3 13 0 31 -16 34c-13 10 -45 10 -61 7c-32 -13 -59 -38 -126 -134z" />
    <glyph glyph-name="scircumflex" unicode="&#x15d;" horiz-adv-x="323" 
d="M-2 421c-9 -35 -11 -30 -11 -81c0 -57 6 -79 51 -148c45 -86 63 -126 63 -161c0 -23 10 -65 -69 -68c-40 -2 -63 -7 -63 -24c-6 -12 1 -16 18 -22c29 -12 131 -12 166 -6c63 17 103 63 97 120c0 35 -18 75 -69 161c-57 98 -69 120 -63 171c0 29 4 66 69 69
c45 2 57 5 51 22c-6 12 -34 24 -91 24s-103 -1 -149 -57zM-30 607c-23 -33 -33 -55 -30 -62c0 -10 20 -16 49 -16c36 -3 49 4 62 26s47 78 54 81c0 0 26 -15 36 -25c32 -36 96 -81 118 -74c13 3 23 10 21 23c-5 35 -79 99 -89 112c-13 20 -18 18 -18 28c3 13 0 31 -16 34
c-13 10 -45 10 -61 7c-32 -13 -59 -38 -126 -134z" />
    <glyph glyph-name="Scedilla" unicode="&#x15e;" horiz-adv-x="416" 
d="M82 652c-29 -29 -67 -100 4 -272c15 -37 75 -141 79 -149c21 -29 45 -82 45 -103c4 -29 -4 -54 -8 -54s-21 17 -42 46c-12 21 -40 54 -57 62c-17 12 -59 7 -71 -5c-8 -8 -12 -12 -12 -33s16 -73 62 -115c33 -21 118 -52 202 -17c29 8 42 21 75 50c41 41 32 95 -38 206
c-29 45 -107 194 -115 227c-4 8 -30 75 33 149c8 8 12 8 16 4c8 -8 17 -33 21 -66c4 -25 35 -72 95 -12c8 17 8 49 0 66c-8 25 -34 78 -136 74c-33 -1 -54 0 -66 -4c-33 -8 -70 -33 -87 -54zM139 -87c0 -24 4 -29 37 -43c19 -9 23 -14 28 -23c5 -14 2 -35 -37 -42
c-26 3 -34 -18 0 -38c38 -14 127 -24 136 71c0 33 -14 47 -47 61c-19 9 -24 9 -19 18c14 52 14 62 5 71c-14 9 -51 9 -70 0c-14 -9 -33 -51 -33 -75z" />
    <glyph glyph-name="scedilla" unicode="&#x15f;" horiz-adv-x="323" 
d="M26 421c-9 -35 -11 -30 -11 -81c0 -57 6 -79 51 -148c45 -86 63 -126 63 -161c0 -23 10 -65 -69 -68c-40 -2 -63 -7 -63 -24c-6 -12 1 -16 18 -22c29 -12 131 -12 166 -6c63 17 103 63 97 120c0 35 -18 75 -69 161c-57 98 -69 120 -63 171c0 29 4 66 69 69
c45 2 57 5 51 22c-6 12 -34 24 -91 24s-103 -1 -149 -57zM68 -176c0 -24 4 -29 37 -43c19 -9 23 -14 28 -23c5 -14 2 -35 -37 -42c-26 3 -34 -18 0 -38c38 -14 127 -24 136 71c0 33 -14 47 -47 61c-19 9 -24 9 -19 18c14 52 14 62 5 71c-14 9 -51 9 -70 0
c-14 -9 -33 -51 -33 -75z" />
    <glyph glyph-name="Scaron" unicode="&#x160;" horiz-adv-x="416" 
d="M82 652c-29 -29 -67 -100 4 -272c15 -37 75 -141 79 -149c21 -29 45 -82 45 -103c4 -29 -4 -54 -8 -54s-21 17 -42 46c-12 21 -40 54 -57 62c-17 12 -59 7 -71 -5c-8 -8 -12 -12 -12 -33s16 -73 62 -115c33 -21 118 -52 202 -17c29 8 42 21 75 50c41 41 32 95 -38 206
c-29 45 -107 194 -115 227c-4 8 -30 75 33 149c8 8 12 8 16 4c8 -8 17 -33 21 -66c4 -25 35 -72 95 -12c8 17 8 49 0 66c-8 25 -34 78 -136 74c-33 -1 -54 0 -66 -4c-33 -8 -70 -33 -87 -54zM342 896c23 33 33 55 30 62c0 10 -20 16 -49 16c-36 3 -49 -4 -62 -26
s-47 -78 -54 -81c0 0 -26 15 -36 25c-32 36 -96 81 -118 74c-13 -3 -23 -10 -21 -23c5 -35 79 -99 89 -112c13 -20 18 -18 18 -28c-3 -13 0 -31 16 -34c13 -10 45 -10 61 -7c32 13 59 38 126 134z" />
    <glyph glyph-name="scaron" unicode="&#x161;" horiz-adv-x="323" 
d="M-2 421c-9 -35 -11 -30 -11 -81c0 -57 6 -79 51 -148c45 -86 63 -126 63 -161c0 -23 10 -65 -69 -68c-40 -2 -63 -7 -63 -24c-6 -12 1 -16 18 -22c29 -12 131 -12 166 -6c63 17 103 63 97 120c0 35 -18 75 -69 161c-57 98 -69 120 -63 171c0 29 4 66 69 69
c45 2 57 5 51 22c-6 12 -34 24 -91 24s-103 -1 -149 -57zM249 664c23 33 33 55 30 62c0 10 -20 16 -49 16c-36 3 -49 -4 -62 -26s-47 -78 -54 -81c0 0 -26 15 -36 25c-32 36 -96 81 -118 74c-13 -3 -23 -10 -21 -23c5 -35 79 -99 89 -112c13 -20 18 -18 18 -28
c-3 -13 0 -31 16 -34c13 -10 45 -10 61 -7c32 13 59 38 126 134z" />
    <glyph glyph-name="Tcedilla" unicode="&#x162;" horiz-adv-x="426" 
d="M77 756c-49 -9 -67 -27 -36 -45c9 -4 97 -13 97 -17s0 -31 -4 -62c-18 -154 -12 -538 10 -578c13 -22 80 -31 133 -18c22 9 26 23 22 89c-13 132 -15 242 -15 388c0 88 -4 168 -4 181c0 18 0 17 22 13c31 -4 85 -2 97 27c5 11 -14 21 -49 30s-163 9 -207 0
c-22 -4 -48 -8 -66 -8zM156 -52c0 -24 4 -29 37 -43c19 -9 23 -14 28 -23c5 -14 2 -35 -37 -42c-26 3 -34 -18 0 -38c38 -14 127 -24 136 71c0 33 -14 47 -47 61c-19 9 -24 9 -19 18c14 52 14 62 5 71c-14 9 -51 9 -70 0c-14 -9 -33 -51 -33 -75z" />
    <glyph glyph-name="tcedilla" unicode="&#x163;" horiz-adv-x="397" 
d="M134 653c-7 -14 -21 -108 -28 -165c-7 -36 -7 -36 -29 -36c-29 0 -50 -15 -57 -29c0 -14 28 -28 50 -28s21 0 28 -151c14 -172 22 -207 51 -229c36 -36 122 -51 172 -29c36 14 29 28 -7 50c-14 7 -29 22 -36 29c-7 22 -15 151 -22 280c-7 79 -7 79 58 86c43 0 64 7 71 14
c22 22 1 29 -71 36c-57 0 -58 0 -58 79c0 72 0 93 -7 100c-14 7 -71 14 -93 7c-7 -7 -22 -14 -22 -14zM165 -105c0 -24 4 -29 37 -43c19 -9 23 -14 28 -23c5 -14 2 -35 -37 -42c-26 3 -34 -18 0 -38c38 -14 127 -24 136 71c0 33 -14 47 -47 61c-19 9 -24 9 -19 18
c14 52 14 62 5 71c-14 9 -51 9 -70 0c-14 -9 -33 -51 -33 -75z" />
    <glyph glyph-name="Tcaron" unicode="&#x164;" horiz-adv-x="426" 
d="M77 756c-49 -9 -67 -27 -36 -45c9 -4 97 -13 97 -17s0 -31 -4 -62c-18 -154 -12 -538 10 -578c13 -22 80 -31 133 -18c22 9 26 23 22 89c-13 132 -15 242 -15 388c0 88 -4 168 -4 181c0 18 0 17 22 13c31 -4 85 -2 97 27c5 11 -14 21 -49 30s-163 9 -207 0
c-22 -4 -48 -8 -66 -8zM353 957c23 33 33 55 30 62c0 10 -20 16 -49 16c-36 3 -49 -4 -62 -26s-47 -78 -54 -81c0 0 -26 15 -36 25c-32 36 -96 81 -118 74c-13 -3 -23 -10 -21 -23c5 -35 79 -99 89 -112c13 -20 18 -18 18 -28c-3 -13 0 -31 16 -34c13 -10 45 -10 61 -7
c32 13 59 38 126 134z" />
    <glyph glyph-name="tcaron" unicode="&#x165;" horiz-adv-x="397" 
d="M134 653c-7 -14 -21 -108 -28 -165c-7 -36 -7 -36 -29 -36c-29 0 -50 -15 -57 -29c0 -14 28 -28 50 -28s21 0 28 -151c14 -172 22 -207 51 -229c36 -36 122 -51 172 -29c36 14 29 28 -7 50c-14 7 -29 22 -36 29c-7 22 -15 151 -22 280c-7 79 -7 79 58 86c43 0 64 7 71 14
c22 22 1 29 -71 36c-57 0 -58 0 -58 79c0 72 0 93 -7 100c-14 7 -71 14 -93 7c-7 -7 -22 -14 -22 -14zM346 856c23 33 33 55 30 62c0 10 -20 16 -49 16c-36 3 -49 -4 -62 -26s-47 -78 -54 -81c0 0 -26 15 -36 25c-32 36 -96 81 -118 74c-13 -3 -23 -10 -21 -23
c5 -35 79 -99 89 -112c13 -20 18 -18 18 -28c-3 -13 0 -31 16 -34c13 -10 45 -10 61 -7c32 13 59 38 126 134z" />
    <glyph glyph-name="Utilde" unicode="&#x168;" horiz-adv-x="462" 
d="M330 557c0 -126 -1 -140 -14 -261c-13 -90 3 -168 -85 -215c-4 -4 -14 14 -18 45c-9 31 -14 126 -18 265c-4 166 -9 247 -18 265c-9 22 -31 27 -67 27c-36 4 -63 -9 -72 -27c-18 -31 -18 -490 0 -548c18 -63 40 -86 94 -99c45 -9 216 -32 270 92c34 69 35 88 31 353
c0 207 -5 234 -18 247c-9 4 -50 8 -63 4c-18 -9 -18 -27 -22 -148zM64 837c-28 -35 -35 -49 -21 -63c7 -14 50 -21 85 -14c21 7 28 14 35 42c0 14 7 28 14 28s14 -7 21 -21c21 -35 56 -49 112 -49c42 0 71 14 99 49c21 28 21 56 0 70c-35 7 -64 4 -78 -17s-28 -28 -39 -15
c-10 21 -17 32 -24 39c-21 14 -81 36 -126 14c-35 -14 -57 -28 -78 -63z" />
    <glyph glyph-name="utilde" unicode="&#x169;" horiz-adv-x="452" 
d="M251 443c-5 -33 -19 -108 -33 -188c-14 -56 -31 -126 -45 -145c-24 -5 -36 20 -41 39c-5 41 -7 38 -2 122c5 52 18 136 18 145c-5 37 -38 52 -71 33c-9 -9 -38 -33 -51 -208c-6 -75 10 -209 127 -201c70 -5 123 34 144 90c33 110 20 18 29 -29c9 -70 14 -80 28 -89
c33 -14 66 -5 71 18c0 5 0 29 -5 52c-19 94 -24 290 -19 351c5 28 0 42 -23 47c-23 9 -80 9 -99 0c-23 -5 -23 -9 -28 -37zM59 617c-28 -35 -35 -49 -21 -63c7 -14 50 -21 85 -14c21 7 28 14 35 42c0 14 7 28 14 28s14 -7 21 -21c21 -35 56 -49 112 -49c42 0 71 14 99 49
c21 28 21 56 0 70c-35 7 -64 4 -78 -17s-28 -28 -39 -15c-10 21 -17 32 -24 39c-21 14 -81 36 -126 14c-35 -14 -57 -28 -78 -63z" />
    <glyph glyph-name="Umacron" unicode="&#x16a;" horiz-adv-x="462" 
d="M330 557c0 -126 -1 -140 -14 -261c-13 -90 3 -168 -85 -215c-4 -4 -14 14 -18 45c-9 31 -14 126 -18 265c-4 166 -9 247 -18 265c-9 22 -31 27 -67 27c-36 4 -63 -9 -72 -27c-18 -31 -18 -490 0 -548c18 -63 40 -86 94 -99c45 -9 216 -32 270 92c34 69 35 88 31 353
c0 207 -5 234 -18 247c-9 4 -50 8 -63 4c-18 -9 -18 -27 -22 -148zM91 852c-13 -6 -15 -43 4 -56s32 -12 140 -12c114 0 123 1 142 14s20 43 -5 56c-19 6 -224 18 -256 5c-13 0 -25 -7 -25 -7z" />
    <glyph glyph-name="umacron" unicode="&#x16b;" horiz-adv-x="452" 
d="M251 443c-5 -33 -19 -108 -33 -188c-14 -56 -31 -126 -45 -145c-24 -5 -36 20 -41 39c-5 41 -7 38 -2 122c5 52 18 136 18 145c-5 37 -38 52 -71 33c-9 -9 -38 -33 -51 -208c-6 -75 10 -209 127 -201c70 -5 123 34 144 90c33 110 20 18 29 -29c9 -70 14 -80 28 -89
c33 -14 66 -5 71 18c0 5 0 29 -5 52c-19 94 -24 290 -19 351c5 28 0 42 -23 47c-23 9 -80 9 -99 0c-23 -5 -23 -9 -28 -37zM84 634c-13 -6 -15 -43 4 -56s32 -12 140 -12c114 0 123 1 142 14s20 43 -5 56c-19 6 -224 18 -256 5c-13 0 -25 -7 -25 -7z" />
    <glyph glyph-name="Ubreve" unicode="&#x16c;" horiz-adv-x="462" 
d="M330 557c0 -126 -1 -140 -14 -261c-13 -90 3 -168 -85 -215c-4 -4 -14 14 -18 45c-9 31 -14 126 -18 265c-4 166 -9 247 -18 265c-9 22 -31 27 -67 27c-36 4 -63 -9 -72 -27c-18 -31 -18 -490 0 -548c18 -63 40 -86 94 -99c45 -9 216 -32 270 92c34 69 35 88 31 353
c0 207 -5 234 -18 247c-9 4 -50 8 -63 4c-18 -9 -18 -27 -22 -148zM153 770c34 -16 124 -18 170 2c42 20 62 48 60 110c2 59 -64 62 -82 10c-15 -29 -28 -51 -90 -49c-40 1 -55 27 -69 47c-18 41 -74 58 -62 -23c8 -32 32 -81 73 -97z" />
    <glyph glyph-name="ubreve" unicode="&#x16d;" horiz-adv-x="452" 
d="M251 443c-5 -33 -19 -108 -33 -188c-14 -56 -31 -126 -45 -145c-24 -5 -36 20 -41 39c-5 41 -7 38 -2 122c5 52 18 136 18 145c-5 37 -38 52 -71 33c-9 -9 -38 -33 -51 -208c-6 -75 10 -209 127 -201c70 -5 123 34 144 90c33 110 20 18 29 -29c9 -70 14 -80 28 -89
c33 -14 66 -5 71 18c0 5 0 29 -5 52c-19 94 -24 290 -19 351c5 28 0 42 -23 47c-23 9 -80 9 -99 0c-23 -5 -23 -9 -28 -37zM148 550c34 -16 124 -18 170 2c42 20 62 48 60 110c2 59 -64 62 -82 10c-15 -29 -28 -51 -90 -49c-40 1 -55 27 -69 47c-18 41 -74 58 -62 -23
c8 -32 32 -81 73 -97z" />
    <glyph glyph-name="Uring" unicode="&#x16e;" horiz-adv-x="462" 
d="M330 557c0 -126 -1 -140 -14 -261c-13 -90 3 -168 -85 -215c-4 -4 -14 14 -18 45c-9 31 -14 126 -18 265c-4 166 -9 247 -18 265c-9 22 -31 27 -67 27c-36 4 -63 -9 -72 -27c-18 -31 -18 -490 0 -548c18 -63 40 -86 94 -99c45 -9 216 -32 270 92c34 69 35 88 31 353
c0 207 -5 234 -18 247c-9 4 -50 8 -63 4c-18 -9 -18 -27 -22 -148zM149 927c0 -7 -7 -21 -21 -35c-28 -28 -35 -70 -21 -91c14 -35 49 -43 112 -43c70 -7 106 15 127 64c28 56 13 98 -43 119c-28 14 -126 14 -140 0c-14 -7 -14 -14 -14 -14zM247 829c-7 -21 -28 -35 -42 -28
c-7 7 -7 49 7 70s28 21 35 -7v-35z" />
    <glyph glyph-name="uring" unicode="&#x16f;" horiz-adv-x="452" 
d="M251 443c-5 -33 -19 -108 -33 -188c-14 -56 -31 -126 -45 -145c-24 -5 -36 20 -41 39c-5 41 -7 38 -2 122c5 52 18 136 18 145c-5 37 -38 52 -71 33c-9 -9 -38 -33 -51 -208c-6 -75 10 -209 127 -201c70 -5 123 34 144 90c33 110 20 18 29 -29c9 -70 14 -80 28 -89
c33 -14 66 -5 71 18c0 5 0 29 -5 52c-19 94 -24 290 -19 351c5 28 0 42 -23 47c-23 9 -80 9 -99 0c-23 -5 -23 -9 -28 -37zM144 707c0 -7 -7 -21 -21 -35c-28 -28 -35 -70 -21 -91c14 -35 49 -43 112 -43c70 -7 106 15 127 64c28 56 13 98 -43 119c-28 14 -126 14 -140 0
c-14 -7 -14 -14 -14 -14zM242 609c-7 -21 -28 -35 -42 -28c-7 7 -7 49 7 70s28 21 35 -7v-35z" />
    <glyph glyph-name="Udblacute" unicode="&#x170;" horiz-adv-x="462" 
d="M261 557c0 -126 -1 -140 -14 -261c-13 -90 3 -168 -85 -215c-4 -4 -14 14 -18 45c-9 31 -14 126 -18 265c-4 166 -9 247 -18 265c-9 22 -31 27 -67 27c-36 4 -63 -9 -72 -27c-18 -31 -18 -490 0 -548c18 -63 40 -86 94 -99c45 -9 216 -32 270 92c34 69 35 88 31 353
c0 207 -5 234 -18 247c-9 4 -50 8 -63 4c-18 -9 -18 -27 -22 -148zM-55 824c-72 -32 -74 -57 -21 -67c47 -5 146 45 232 105c73 58 69 89 -19 74c-44 -8 -65 -21 -111 -54c-22 -17 -64 -42 -81 -58zM173 827c-72 -32 -74 -58 -21 -68c47 -5 146 46 232 106
c73 58 69 89 -19 74c-44 -8 -66 -21 -112 -54c-22 -17 -63 -42 -80 -58z" />
    <glyph glyph-name="udblacute" unicode="&#x171;" horiz-adv-x="452" 
d="M177 443c-5 -33 -19 -108 -33 -188c-14 -56 -31 -126 -45 -145c-24 -5 -36 20 -41 39c-5 41 -7 38 -2 122c5 52 18 136 18 145c-5 37 -38 52 -71 33c-9 -9 -38 -33 -51 -208c-6 -75 10 -209 127 -201c70 -5 123 34 144 90c33 110 20 18 29 -29c9 -70 14 -80 28 -89
c33 -14 66 -5 71 18c0 5 0 29 -5 52c-19 94 -24 290 -19 351c5 28 0 42 -23 47c-23 9 -80 9 -99 0c-23 -5 -23 -9 -28 -37zM-65 604c-72 -32 -74 -57 -21 -67c47 -5 146 45 232 105c73 58 69 89 -19 74c-44 -8 -65 -21 -111 -54c-22 -17 -64 -42 -81 -58zM163 607
c-72 -32 -74 -58 -21 -68c47 -5 146 46 232 106c73 58 69 89 -19 74c-44 -8 -66 -21 -112 -54c-22 -17 -63 -42 -80 -58z" />
    <glyph glyph-name="Uogonek" unicode="&#x172;" horiz-adv-x="462" 
d="M330 557c0 -126 -1 -140 -14 -261c-13 -90 3 -168 -85 -215c-4 -4 -14 14 -18 45c-9 31 -14 126 -18 265c-4 166 -9 247 -18 265c-9 22 -31 27 -67 27c-36 4 -63 -9 -72 -27c-18 -31 -18 -490 0 -548c18 -63 40 -86 94 -99c45 -9 216 -32 270 92c34 69 35 88 31 353
c0 207 -5 234 -18 247c-9 4 -50 8 -63 4c-18 -9 -18 -27 -22 -148zM230 -98c4 -63 11 -112 70 -148c35 -21 85 -9 131 21c46 25 19 76 -29 66c-29 -2 -67 3 -81 38c-17 31 -2 62 7 82c23 32 11 83 -45 37c-20 -20 -54 -70 -53 -96z" />
    <glyph glyph-name="uogonek" unicode="&#x173;" horiz-adv-x="452" 
d="M251 443c-5 -33 -19 -108 -33 -188c-14 -56 -31 -126 -45 -145c-24 -5 -36 20 -41 39c-5 41 -7 38 -2 122c5 52 18 136 18 145c-5 37 -38 52 -71 33c-9 -9 -38 -33 -51 -208c-6 -75 10 -209 127 -201c70 -5 123 34 144 90c33 110 20 18 29 -29c9 -70 14 -80 28 -89
c33 -14 66 -5 71 18c0 5 0 29 -5 52c-19 94 -24 290 -19 351c5 28 0 42 -23 47c-23 9 -80 9 -99 0c-23 -5 -23 -9 -28 -37zM279 -109c4 -63 11 -112 70 -148c35 -21 85 -9 131 21c46 25 19 76 -29 66c-29 -2 -67 3 -81 38c-17 31 -2 62 7 82c23 32 11 83 -45 37
c-20 -20 -54 -70 -53 -96z" />
    <glyph glyph-name="Wcircumflex" unicode="&#x174;" horiz-adv-x="625" 
d="M24 548c4 -146 28 -365 32 -389c8 -49 13 -112 53 -150c12 -8 73 -24 134 8s60 51 73 117c12 49 32 102 32 98c4 0 51 -75 67 -112c30 -62 43 -51 43 -63c0 -32 60 -48 113 -28c12 4 17 8 21 24c4 24 4 503 0 568c-8 53 -13 69 -33 77c-28 12 -77 4 -89 -16
c0 -4 -4 -89 -4 -219c-4 -215 -5 -215 -29 -183c-37 49 -40 49 -60 53c-37 4 -76 6 -138 -130c-8 -24 -13 -28 -17 -24c-8 41 -36 259 -48 369c-4 89 -25 138 -53 150c-20 8 -61 8 -77 0c-24 -12 -24 -16 -20 -150zM169 833c-23 -33 -33 -55 -30 -62c0 -10 20 -16 49 -16
c36 -3 49 4 62 26s47 78 54 81c0 0 26 -15 36 -25c32 -36 96 -81 118 -74c13 3 23 10 21 23c-5 35 -79 99 -89 112c-13 20 -18 18 -18 28c3 13 0 31 -16 34c-13 10 -45 10 -61 7c-32 -13 -59 -38 -126 -134z" />
    <glyph glyph-name="wcircumflex" unicode="&#x175;" horiz-adv-x="514" 
d="M26 371c11 -243 38 -343 99 -365c11 0 41 -8 61 0c34 7 38 26 48 51c6 17 48 83 59 83c6 0 39 -98 102 -96c34 0 50 17 56 56c6 33 35 219 35 247c0 44 4 80 -61 78c-43 -1 -56 -11 -50 -50c0 -39 -12 -198 -18 -192c0 0 -29 65 -54 69c-33 6 -45 -19 -78 -58
s-28 -56 -50 110c-11 111 -22 161 -33 172s-78 16 -100 5c-17 -6 -22 -16 -16 -110zM116 616c-23 -33 -33 -55 -30 -62c0 -10 20 -16 49 -16c36 -3 49 4 62 26s47 78 54 81c0 0 26 -15 36 -25c32 -36 96 -81 118 -74c13 3 23 10 21 23c-5 35 -79 99 -89 112
c-13 20 -18 18 -18 28c3 13 0 31 -16 34c-13 10 -45 10 -61 7c-32 -13 -59 -38 -126 -134z" />
    <glyph glyph-name="Ycircumflex" unicode="&#x176;" horiz-adv-x="443" 
d="M289 683c-8 -8 -22 -20 -42 -50c-27 -38 -78 -143 -121 -186c-39 -13 -16 130 -8 179c11 57 12 64 -15 72c-19 4 -41 -4 -49 -15c-15 -27 -57 -152 -23 -266c11 -27 75 -81 140 -8c27 27 57 65 95 133c4 -4 -4 -64 -15 -193c-8 -76 -15 -182 -19 -243
c-4 -53 0 -65 15 -76c38 -30 122 -19 137 15c0 4 11 197 19 262c8 137 8 190 0 266c-4 68 -15 114 -30 125c-11 8 -51 18 -84 -15zM75 835c-23 -33 -33 -55 -30 -62c0 -10 20 -16 49 -16c36 -3 49 4 62 26s47 78 54 81c0 0 26 -15 36 -25c32 -36 96 -81 118 -74
c13 3 23 10 21 23c-5 35 -79 99 -89 112c-13 20 -18 18 -18 28c3 13 0 31 -16 34c-13 10 -45 10 -61 7c-32 -13 -59 -38 -126 -134z" />
    <glyph glyph-name="ycircumflex" unicode="&#x177;" horiz-adv-x="396" 
d="M247 404c-7 -59 -1 -90 -30 -112c-44 -44 -101 22 -94 103c7 44 -7 73 -29 73c-15 0 -37 -22 -44 -73c0 -51 3 -171 69 -192c22 -15 74 -15 103 0c22 7 17 47 17 -26c0 -152 -39 -271 -54 -308c-7 -7 -22 -29 -37 -44c-29 -22 -29 -21 -14 -36c44 -37 146 -7 190 44
c22 29 32 73 54 161c22 146 22 388 -7 461c-7 37 -51 51 -88 36c-29 -15 -36 -28 -36 -87zM83 626c-23 -33 -33 -55 -30 -62c0 -10 20 -16 49 -16c36 -3 49 4 62 26s47 78 54 81c0 0 26 -15 36 -25c32 -36 96 -81 118 -74c13 3 23 10 21 23c-5 35 -79 99 -89 112
c-13 20 -18 18 -18 28c3 13 0 31 -16 34c-13 10 -45 10 -61 7c-32 -13 -59 -38 -126 -134z" />
    <glyph glyph-name="Zacute" unicode="&#x179;" horiz-adv-x="431" 
d="M60 650c49 -13 125 16 125 16v-20c-8 -73 -57 -355 -69 -424c-4 -16 -32 -194 -20 -202c12 -16 93 -31 149 -4c24 12 105 49 129 57c36 12 49 20 45 32c0 8 -3 33 -81 28c-28 -2 -73 -8 -73 -8s4 25 8 57c20 117 41 258 45 335c8 73 8 157 4 169c-4 4 2 45 -157 20
c-121 -28 -147 -45 -105 -56zM126 822c-76 -19 -83 -44 -32 -63c45 -13 151 20 246 65c82 45 83 76 -6 76c-45 0 -68 -9 -119 -34c-25 -13 -70 -31 -89 -44z" />
    <glyph glyph-name="zacute" unicode="&#x17a;" horiz-adv-x="360" 
d="M63 438c-10 -5 -29 -15 -29 -20c5 -10 24 -10 74 0c20 5 35 5 35 5s-10 -30 -25 -60c-15 -35 -99 -273 -104 -288c-10 -35 -5 -50 20 -55c60 -20 95 -15 184 20c70 30 99 45 99 55s-5 10 -35 10c-30 5 -49 0 -94 -20c-10 -5 -10 -5 -5 5c10 25 29 85 74 214
c30 94 45 144 40 154c-5 25 -59 35 -129 15c-50 -15 -85 -25 -105 -35zM58 600c-76 -19 -83 -44 -32 -63c45 -13 151 20 246 65c82 45 83 76 -6 76c-45 0 -68 -9 -119 -34c-25 -13 -70 -31 -89 -44z" />
    <glyph glyph-name="Zcaron" unicode="&#x17d;" horiz-adv-x="431" 
d="M60 650c49 -13 125 16 125 16v-20c-8 -73 -57 -355 -69 -424c-4 -16 -32 -194 -20 -202c12 -16 93 -31 149 -4c24 12 105 49 129 57c36 12 49 20 45 32c0 8 -3 33 -81 28c-28 -2 -73 -8 -73 -8s4 25 8 57c20 117 41 258 45 335c8 73 8 157 4 169c-4 4 2 45 -157 20
c-121 -28 -147 -45 -105 -56zM371 892c23 33 33 55 30 62c0 10 -20 16 -49 16c-36 3 -49 -4 -62 -26s-47 -78 -54 -81c0 0 -26 15 -36 25c-32 36 -96 81 -118 74c-13 -3 -23 -10 -21 -23c5 -35 79 -99 89 -112c13 -20 18 -18 18 -28c-3 -13 0 -31 16 -34
c13 -10 45 -10 61 -7c32 13 59 38 126 134z" />
    <glyph glyph-name="zcaron" unicode="&#x17e;" horiz-adv-x="360" 
d="M63 438c-10 -5 -29 -15 -29 -20c5 -10 24 -10 74 0c20 5 35 5 35 5s-10 -30 -25 -60c-15 -35 -99 -273 -104 -288c-10 -35 -5 -50 20 -55c60 -20 95 -15 184 20c70 30 99 45 99 55s-5 10 -35 10c-30 5 -49 0 -94 -20c-10 -5 -10 -5 -5 5c10 25 29 85 74 214
c30 94 45 144 40 154c-5 25 -59 35 -129 15c-50 -15 -85 -25 -105 -35zM303 670c23 33 33 55 30 62c0 10 -20 16 -49 16c-36 3 -49 -4 -62 -26s-47 -78 -54 -81c0 0 -26 15 -36 25c-32 36 -96 81 -118 74c-13 -3 -23 -10 -21 -23c5 -35 79 -99 89 -112c13 -20 18 -18 18 -28
c-3 -13 0 -31 16 -34c13 -10 45 -10 61 -7c32 13 59 38 126 134z" />
    <glyph glyph-name="Ohorn" unicode="&#x1a0;" horiz-adv-x="485" 
d="M186 688c-17 -4 -58 -33 -75 -55c-26 -39 -44 -53 -57 -123c-35 -126 -33 -236 -7 -327c17 -57 49 -211 235 -174c70 13 119 43 154 152c22 61 41 180 4 310c-44 174 -123 239 -232 222c-4 0 -13 -5 -22 -5zM290 500c17 -70 21 -79 21 -166s5 -183 -64 -247
c-42 4 -92 222 -61 384c4 26 13 112 55 118c13 -22 36 -54 49 -89zM175 930c-9 -36 -5 -62 13 -70c-1 -11 31 -6 31 -11c0 -17 -14 -51 -35 -79c-8 -17 0 -24 30 -24s109 23 104 139c-2 43 -3 36 -22 61c-42 23 -82 36 -121 -16z" />
    <glyph glyph-name="ohorn" unicode="&#x1a1;" horiz-adv-x="439" 
d="M62 365c-21 -46 -29 -75 -29 -129s21 -121 100 -157c37 -12 120 -12 157 0c91 33 138 96 129 187c-4 58 -45 116 -99 141c-21 9 -29 12 -58 8c-37 0 -38 1 -34 13c12 16 25 28 46 37c25 12 29 19 8 28c-16 4 -63 0 -79 -4c-54 -16 -112 -70 -141 -124zM274 204
c-4 -21 -17 -48 -54 -67c-10 -5 -34 29 -46 58c-9 29 -7 50 5 108c4 29 20 83 24 83c0 0 17 -13 29 -29c50 -50 63 -95 42 -153zM158 727c-9 -36 -5 -62 13 -70c-1 -11 31 -6 31 -11c0 -17 -14 -51 -35 -79c-8 -17 0 -24 30 -24s109 23 104 139c-2 43 -3 36 -22 61
c-42 23 -82 36 -121 -16z" />
    <glyph glyph-name="Uhorn" unicode="&#x1af;" horiz-adv-x="462" 
d="M330 557c0 -126 -1 -140 -14 -261c-13 -90 3 -168 -85 -215c-4 -4 -14 14 -18 45c-9 31 -14 126 -18 265c-4 166 -9 247 -18 265c-9 22 -31 27 -67 27c-36 4 -63 -9 -72 -27c-18 -31 -18 -490 0 -548c18 -63 40 -86 94 -99c45 -9 216 -32 270 92c34 69 35 88 31 353
c0 207 -5 234 -18 247c-9 4 -50 8 -63 4c-18 -9 -18 -27 -22 -148zM161 941c-9 -36 -5 -62 13 -70c-1 -11 31 -6 31 -11c0 -17 -14 -51 -35 -79c-8 -17 0 -24 30 -24s109 23 104 139c-2 43 -3 36 -22 61c-42 23 -82 36 -121 -16z" />
    <glyph glyph-name="uhorn" unicode="&#x1b0;" horiz-adv-x="452" 
d="M251 443c-5 -33 -19 -108 -33 -188c-14 -56 -31 -126 -45 -145c-24 -5 -36 20 -41 39c-5 41 -7 38 -2 122c5 52 18 136 18 145c-5 37 -38 52 -71 33c-9 -9 -38 -33 -51 -208c-6 -75 10 -209 127 -201c70 -5 123 34 144 90c33 110 20 18 29 -29c9 -70 14 -80 28 -89
c33 -14 66 -5 71 18c0 5 0 29 -5 52c-19 94 -24 290 -19 351c5 28 0 42 -23 47c-23 9 -80 9 -99 0c-23 -5 -23 -9 -28 -37zM156 721c-9 -36 -5 -62 13 -70c-1 -11 31 -6 31 -11c0 -17 -14 -51 -35 -79c-8 -17 0 -24 30 -24s109 23 104 139c-2 43 -3 36 -22 61
c-42 23 -82 36 -121 -16z" />
    <glyph glyph-name="Acaron" unicode="&#x1cd;" horiz-adv-x="469" 
d="M116 692c-4 -4 -33 -123 -43 -156c-29 -123 -66 -487 -62 -544c4 -43 29 -56 95 -52c57 4 66 24 80 161c4 47 10 103 14 127c4 33 5 33 29 43c14 4 23 5 23 5s5 11 49 -147c23 -82 31 -85 74 -85c29 0 53 4 53 14c0 4 -10 32 -20 61c-52 156 -60 175 -56 185
c0 4 5 9 19 19c29 14 16 41 -19 33c-10 0 -18 6 -18 10c0 0 -11 38 -25 85c-29 132 -37 170 -51 184c0 4 -6 19 -10 33c0 24 -1 30 -15 34c-19 10 -80 15 -99 5c-10 -4 -18 -11 -18 -15zM241 345c0 -5 0 -12 -12 -12c-17 -5 -22 -12 -22 0c0 23 -5 81 5 125
c0 0 29 -108 29 -113zM333 900c23 33 33 55 30 62c0 10 -20 16 -49 16c-36 3 -49 -4 -62 -26s-47 -78 -54 -81c0 0 -26 15 -36 25c-32 36 -96 81 -118 74c-13 -3 -23 -10 -21 -23c5 -35 79 -99 89 -112c13 -20 18 -18 18 -28c-3 -13 0 -31 16 -34c13 -10 45 -10 61 -7
c32 13 59 38 126 134z" />
    </font>
</defs>
</svg>
